<?xml version="1.0" standalone="no"?>
<!DOCTYPE svg PUBLIC "-//W3C//DTD SVG 1.1//EN" "http://www.w3.org/Graphics/SVG/1.1/DTD/svg11.dtd" >
<svg xmlns="http://www.w3.org/2000/svg" xmlns:xlink="http://www.w3.org/1999/xlink" version="1.1">
<metadata>
Created by FontForge 20200511 at Sat Sep 19 12:52:04 1998
 By convertio
Copyright (c) 1988, 1990 Adobe Systems Incorporated.  All Rights Reserved.Helvetica is a registered trademark of Linotype AG and/or its subsidiaries.
</metadata>
<defs>
<font id="HelveticaNeueBold" horiz-adv-x="556" >
  <font-face 
    font-family="HelveticaNeue"
    font-weight="400"
    font-stretch="normal"
    units-per-em="1000"
    panose-1="0 0 4 0 0 0 0 0 0 0"
    ascent="800"
    descent="-200"
    x-height="517"
    cap-height="714"
    bbox="-166 -218 1078 975"
    underline-thickness="50"
    underline-position="-125"
    unicode-range="U+0020-F002"
  />
<missing-glyph horiz-adv-x="500" 
d="M63 0v805h375v-805h-375zM125 63h250v680h-250v-680z" />
    <glyph glyph-name=".notdef" horiz-adv-x="500" 
d="M63 0v805h375v-805h-375zM125 63h250v680h-250v-680z" />
    <glyph glyph-name=".null" horiz-adv-x="0" 
 />
    <glyph glyph-name="nonmarkingreturn" horiz-adv-x="278" 
 />
    <glyph glyph-name="space" unicode=" " horiz-adv-x="278" 
 />
    <glyph glyph-name="exclam" unicode="!" horiz-adv-x="278" 
d="M213 714v-192l-39 -308h-71l-38 308v192h148zM61 0v154h157v-154h-157z" />
    <glyph glyph-name="quotedbl" unicode="&#x22;" horiz-adv-x="463" 
d="M271 393v321h107v-321h-107zM85 393v321h107v-321h-107z" />
    <glyph glyph-name="numbersign" unicode="#" 
d="M88 0l28 198h-83v90h95l18 124h-83v90h95l28 198h97l-28 -198h97l27 198h97l-27 -198h74v-90h-87l-17 -124h74v-90h-87l-27 -198h-97l27 198h-96l-28 -198h-97zM339 412h-96l-18 -124h97z" />
    <glyph glyph-name="dollar" unicode="$" 
d="M248 451v163q-36 0 -63 -22t-27 -61q0 -33 20.5 -51t69.5 -29zM307 292v-192q43 4 72 27q36 27 36 71q0 39 -23 58t-85 36zM-1 232h142q-1 -53 29 -88t78 -44v209q-3 1 -32 9q-94 25 -138 60q-62 49 -62 139q0 97 71 156q64 52 161 58v77h59v-77q96 -11 154 -60
q65 -55 71 -153h-142q-1 40 -25 68t-58 28v-177q16 -4 51 -13q128 -35 173 -111q26 -45 26 -121q0 -63 -50 -121q-69 -79 -200 -88v-85h-59v85q-227 17 -249 249z" />
    <glyph glyph-name="percent" unicode="%" horiz-adv-x="1000" 
d="M75 516q0 87 41 140q45 58 129 58q164 0 164 -202q0 -86 -41 -135q-44 -53 -128 -53q-165 0 -165 192zM177 514q0 -50 8 -74q14 -41 56 -41q66 0 66 114q0 126 -62 126q-68 0 -68 -125zM254 -22l414 744h85l-412 -744h-87zM591 183q0 86 41 137q45 56 129 56
q164 0 164 -197q0 -86 -41 -137q-44 -56 -128 -56q-165 0 -165 197zM693 182q0 -121 64 -121q66 0 66 120t-62 120q-68 0 -68 -119z" />
    <glyph glyph-name="ampersand" unicode="&#x26;" horiz-adv-x="685" 
d="M382 559q0 28 -19.5 48t-45.5 20t-45 -18t-19 -45q0 -29 18 -58q6 -10 38 -49q37 24 52 41q21 26 21 61zM389 166l-122 149q-100 -44 -100 -118q0 -39 30.5 -66.5t71.5 -27.5q64 0 120 63zM522 0l-58 71q-87 -85 -201 -85q-100 0 -164 56q-67 59 -67 158q0 133 160 207
q-68 84 -68 152q0 72 57 119q55 44 129 44q85 0 139 -43q57 -46 57 -128q0 -111 -127 -178l92 -113q19 36 26 85h123q-11 -104 -69 -176l145 -169h-174z" />
    <glyph glyph-name="quotesingle" unicode="'" horiz-adv-x="278" 
d="M86 393v321h107v-321h-107z" />
    <glyph glyph-name="parenleft" unicode="(" horiz-adv-x="296" 
d="M184 731h119q-109 -208 -109 -453q0 -250 108 -460h-118q-132 219 -132 450q0 118 33 240q36 132 99 223z" />
    <glyph glyph-name="parenright" unicode=")" horiz-adv-x="296" 
d="M112 -182h-119q109 206 109 452q0 249 -108 461h118q132 -221 132 -451q0 -118 -33 -240q-36 -131 -99 -222z" />
    <glyph glyph-name="asterisk" unicode="*" horiz-adv-x="407" 
d="M242 714v-125l116 44l27 -77l-118 -39l74 -98l-66 -49l-74 103l-70 -103l-67 49l74 98l-116 39l27 77l113 -44v125h80z" />
    <glyph glyph-name="plus" unicode="+" horiz-adv-x="600" 
d="M354 505v-199h199v-107h-199v-199h-107v199h-199v107h199v199h107z" />
    <glyph glyph-name="comma" unicode="," horiz-adv-x="278" 
d="M61 0v154h157v-154q0 -67 -44.5 -111.5t-111.5 -54.5v72q31 5 52 33t19 61h-72z" />
    <glyph glyph-name="hyphen" unicode="-" horiz-adv-x="407" 
d="M53 212v122h301v-122h-301z" />
    <glyph glyph-name="hyphen" unicode="&#x2010;" horiz-adv-x="407" 
d="M53 212v122h301v-122h-301z" />
    <glyph glyph-name="period" unicode="." horiz-adv-x="278" 
d="M60 0v154h157v-154h-157z" />
    <glyph glyph-name="slash" unicode="/" horiz-adv-x="371" 
d="M-11 -17l279 748h114l-279 -748h-114z" />
    <glyph glyph-name="zero" unicode="0" 
d="M21 353q0 191 76 283q65 78 180 78q116 0 182 -78q76 -91 76 -283q0 -367 -258 -367q-256 0 -256 367zM163 353q0 -102 14 -155q26 -95 100 -95q75 0 102 95q14 53 14 155q0 244 -116 244q-114 0 -114 -244z" />
    <glyph glyph-name="one" unicode="1" 
d="M392 700v-700h-142v454h-176v107q185 -4 205 139h113z" />
    <glyph glyph-name="two" unicode="2" 
d="M173 431h-136q-4 124 63.5 203.5t190.5 79.5q100 0 168 -58q72 -62 72 -161q0 -93 -62 -159q-31 -33 -136 -101q-92 -61 -129 -113h331v-122h-514q1 109 65 187q41 48 156 126q82 56 97 69q50 46 50 102q0 49 -29.5 78.5t-75.5 29.5q-58 0 -87 -53q-24 -43 -24 -108z" />
    <glyph glyph-name="three" unicode="3" 
d="M228 317v100q58 -5 97 12q52 21 52 75q0 43 -29 68t-70 25q-52 0 -80.5 -34.5t-27.5 -90.5h-135q4 108 69.5 175t172.5 67q91 0 160 -50q75 -56 75 -144q0 -52 -25 -89q-26 -41 -73 -54v-2q57 -13 90.5 -56.5t33.5 -102.5q0 -106 -79 -170q-73 -60 -181 -60
q-120 0 -191 68t-69 187h135q2 -61 32 -97q32 -41 91 -41q49 0 81.5 30.5t32.5 79.5q0 70 -55 92q-31 12 -107 12z" />
    <glyph glyph-name="four" unicode="4" 
d="M312 0v162h-296v130l304 408h127v-421h93v-117h-93v-162h-135zM312 279v243h-3l-181 -243h184z" />
    <glyph glyph-name="five" unicode="5" 
d="M500 700v-117h-289l-28 -159l2 -2q53 54 137 54q100 0 160 -70q56 -66 56 -168q0 -107 -76.5 -180t-183.5 -72q-109 1 -180 56q-79 61 -80 166h142q5 -47 37 -76t78 -29q54 0 87.5 40t33.5 95q0 56 -32.5 93.5t-88.5 37.5q-66 0 -107 -56h-128l69 387h391z" />
    <glyph glyph-name="six" unicode="6" 
d="M523 520h-135q-7 37 -32.5 62t-61.5 25q-68 0 -104 -77q-26 -56 -30 -136l2 -2q55 78 158 78q97 0 161 -72q54 -61 54 -156q0 -109 -68.5 -182.5t-176.5 -73.5q-146 0 -214 115q-55 92 -55 247q0 147 63 247q74 119 212 119q92 0 153.5 -51.5t73.5 -142.5zM286 363
q-54 0 -83.5 -37.5t-29.5 -92.5q0 -52 30 -89q32 -41 83 -41q48 0 79 40q28 37 28 88q0 54 -26 91q-29 41 -81 41z" />
    <glyph glyph-name="seven" unicode="7" 
d="M517 700v-122q-104 -91 -169 -267q-58 -159 -60 -311h-152q24 315 235 568h-332v132h478z" />
    <glyph glyph-name="eight" unicode="8" 
d="M156 212q0 -53 36 -86t88 -33t86 33t34 85q0 49 -34.5 80.5t-85.5 31.5q-54 0 -88 -28q-36 -31 -36 -83zM43 523q0 89 75 143q68 48 161 48q117 0 182 -68q52 -55 52 -120q0 -112 -102 -149v0q62 -14 96.5 -59.5t34.5 -111.5q0 -104 -82 -165q-74 -55 -180 -55
q-110 0 -184 53q-82 59 -82 166q0 66 35 111.5t97 60.5v2q-103 29 -103 144zM172 510q0 -44 31 -68t76 -24t75 24.5t30 67.5q0 37 -19 62q-28 35 -86 35q-45 0 -76 -26t-31 -71z" />
    <glyph glyph-name="nine" unicode="9" 
d="M33 180h135q7 -37 32.5 -62t61.5 -25q68 0 104 77q26 56 30 136l-2 2q-55 -78 -158 -78q-97 0 -161 72q-54 61 -54 156q0 109 68.5 182.5t176.5 73.5q146 0 214 -115q55 -92 55 -247q0 -147 -63 -247q-74 -119 -212 -119q-92 0 -153.5 51.5t-73.5 142.5zM270 337
q54 0 85 39q28 36 28 91q0 52 -30 89q-32 41 -83 41q-48 0 -77.5 -38.5t-29.5 -89.5q0 -54 26 -91q30 -41 81 -41z" />
    <glyph glyph-name="colon" unicode=":" horiz-adv-x="278" 
d="M61 0v154h157v-154h-157zM218 508v-154h-157v154h157z" />
    <glyph glyph-name="semicolon" unicode=";" horiz-adv-x="278" 
d="M61 0v154h157v-154q0 -67 -44.5 -111.5t-111.5 -54.5v72q31 5 52 33t19 61h-72zM218 508v-154h-157v154h157z" />
    <glyph glyph-name="less" unicode="&#x3c;" horiz-adv-x="600" 
d="M554 514v-115l-367 -146l367 -146v-115l-508 202v118z" />
    <glyph glyph-name="equal" unicode="=" horiz-adv-x="600" 
d="M553 413v-107h-505v107h505zM553 199v-107h-505v107h505z" />
    <glyph glyph-name="greater" unicode="&#x3e;" horiz-adv-x="600" 
d="M46 -8v115l367 146l-367 146v115l508 -202v-118z" />
    <glyph glyph-name="question" unicode="?" 
d="M179 484h-147q2 109 68.5 178t174.5 69q128 0 195 -68q54 -53 54 -125q0 -66 -26 -109q-18 -30 -58 -60q-54 -40 -62 -48q-30 -31 -36 -69v-38h-135v45q0 58 29 99q17 26 57.5 57.5t51.5 45.5q22 27 22 63q0 90 -85 90q-51 0 -76.5 -36.5t-26.5 -93.5zM193 0v154h157
v-154h-157z" />
    <glyph glyph-name="at" unicode="@" horiz-adv-x="800" 
d="M291 319q0 -40 21.5 -64.5t56.5 -24.5q51 0 89 50q34 46 34 101q0 36 -22.5 60.5t-54.5 24.5q-51 0 -89 -49q-35 -45 -35 -98zM622 545l-63 -258q-7 -30 -7 -43q0 -23 16 -23q45 0 81.5 53.5t36.5 130.5q0 116 -78 183q-75 63 -193 63q-127 0 -205 -83.5t-78 -212.5
q0 -130 82.5 -211t212.5 -81q133 0 215 82h84q-51 -77 -131 -119.5t-174 -42.5q-161 0 -273 107.5t-112 266.5q0 157 111.5 265.5t268.5 108.5q142 0 242 -83q106 -88 106 -222q0 -136 -93 -222q-74 -68 -142 -68q-31 0 -51 16t-22 41h-2q-35 -58 -108 -58
q-64 0 -110.5 50.5t-46.5 120.5q0 100 60 175q63 80 158 80q86 0 117 -70l16 54h82z" />
    <glyph glyph-name="A" unicode="A" horiz-adv-x="685" 
d="M-7 0l271 714h161l267 -714h-163l-54 159h-267l-56 -159h-159zM342 538l-93 -262h185l-90 262h-2z" />
    <glyph glyph-name="B" unicode="B" horiz-adv-x="704" 
d="M226 318v-196h168q116 0 116 94q0 102 -113 102h-171zM69 0v714h336q228 0 228 -177q0 -102 -97 -149q131 -38 131 -181q0 -102 -78 -158q-68 -49 -174 -49h-346zM226 592v-167h159q96 0 96 85q0 82 -108 82h-147z" />
    <glyph glyph-name="C" unicode="C" horiz-adv-x="741" 
d="M697 474h-152q-7 53 -52 89t-104 36q-99 0 -150 -76q-44 -65 -44 -169q0 -100 44 -164q52 -75 150 -75q70 0 113 45q40 42 49 115h152q-12 -133 -97.5 -212.5t-216.5 -79.5q-161 0 -258 108q-93 103 -93 263q0 164 93 268q96 109 258 109q122 0 206 -67q88 -70 102 -190z
" />
    <glyph glyph-name="D" unicode="D" horiz-adv-x="741" 
d="M69 0v714h308q145 0 231 -88q93 -93 93 -265q0 -162 -80 -258q-86 -103 -244 -103h-308zM226 582v-450h140q76 0 123 48q55 56 55 166q0 115 -44 172q-50 64 -162 64h-112z" />
    <glyph glyph-name="E" unicode="E" horiz-adv-x="648" 
d="M69 0v714h534v-132h-377v-153h346v-122h-346v-175h385v-132h-542z" />
    <glyph glyph-name="F" unicode="F" horiz-adv-x="593" 
d="M69 0v714h502v-132h-345v-165h299v-122h-299v-295h-157z" />
    <glyph glyph-name="G" unicode="G" horiz-adv-x="759" 
d="M601 0l-16 81q-76 -98 -196 -98q-161 0 -258 108q-93 103 -93 263q0 164 93 268q96 109 258 109q115 0 199 -65q90 -70 102 -187h-150q-13 58 -53.5 89t-97.5 31q-99 0 -150 -76q-44 -65 -44 -169q0 -100 44 -164q52 -75 150 -75q156 0 170 154h-158v117h300v-386h-100z
" />
    <glyph glyph-name="H" unicode="H" horiz-adv-x="741" 
d="M69 0v714h157v-274h289v274h157v-714h-157v308h-289v-308h-157z" />
    <glyph glyph-name="I" unicode="I" horiz-adv-x="295" 
d="M69 0v714h157v-714h-157z" />
    <glyph glyph-name="J" unicode="J" 
d="M487 714v-489q0 -242 -238 -242q-98 0 -162 52q-73 59 -73 169v62h142v-32q0 -119 91 -119q55 0 73 40q10 23 10 77v482h157z" />
    <glyph glyph-name="K" unicode="K" horiz-adv-x="722" 
d="M69 0v714h157v-296l279 296h196l-279 -282l306 -432h-197l-215 321l-90 -91v-230h-157z" />
    <glyph glyph-name="L" unicode="L" horiz-adv-x="593" 
d="M69 0v714h157v-582h348v-132h-505z" />
    <glyph glyph-name="M" unicode="M" horiz-adv-x="907" 
d="M69 0v714h221l167 -491h2l158 491h221v-714h-147v506h-2l-175 -506h-121l-175 501h-2v-501h-147z" />
    <glyph glyph-name="N" unicode="N" horiz-adv-x="741" 
d="M69 0v714h156l298 -479h2v479h147v-714h-157l-297 478h-2v-478h-147z" />
    <glyph glyph-name="O" unicode="O" horiz-adv-x="778" 
d="M38 354q0 164 93 268q96 109 258 109t258 -109q93 -104 93 -268q0 -160 -93 -263q-97 -108 -258 -108t-258 108q-93 103 -93 263zM195 354q0 -100 44 -164q52 -75 150 -75t150 75q44 64 44 164q0 104 -44 169q-51 76 -150 76t-150 -76q-44 -65 -44 -169z" />
    <glyph glyph-name="P" unicode="P" horiz-adv-x="667" 
d="M69 0v714h322q125 0 190 -71q57 -61 57 -158t-57 -158q-65 -71 -190 -71h-165v-256h-157zM226 592v-214h122q64 0 96 19q42 26 42 88t-42 88q-32 19 -96 19h-122z" />
    <glyph glyph-name="Q" unicode="Q" horiz-adv-x="778" 
d="M736 10l-73 -77l-101 92q-73 -42 -173 -42q-161 0 -258 108q-93 103 -93 263q0 164 93 268q96 109 258 109t258 -109q93 -104 93 -268q0 -158 -93 -263zM385 186l73 78l81 -74q44 61 44 164q0 104 -44 169q-51 76 -150 76t-150 -76q-44 -65 -44 -169q0 -100 44 -164
q52 -75 150 -75q52 0 63 10z" />
    <glyph glyph-name="R" unicode="R" horiz-adv-x="722" 
d="M69 0v714h385q94 0 153 -58q56 -56 56 -139q0 -133 -113 -179v-2q94 -24 104 -167l6 -86q6 -58 24 -83h-157q-11 27 -17 81l-8 90q-8 58 -34.5 83t-84.5 25h-157v-279h-157zM226 592v-201h172q108 0 108 102q0 99 -108 99h-172z" />
    <glyph glyph-name="S" unicode="S" horiz-adv-x="649" 
d="M24 237h152q0 -67 48 -102q41 -30 110 -30q54 0 90 17q49 23 49 72q0 61 -110 92q-190 54 -205 62q-110 53 -110 167q0 103 85 163q76 53 182 53q123 0 199 -53q87 -61 87 -177h-152q-6 108 -141 108q-43 0 -73 -18q-35 -22 -35 -63q0 -39 39 -57q30 -14 174 -51
q84 -21 125 -48q87 -56 87 -160q0 -102 -76 -164q-80 -65 -221 -65q-129 0 -212 61q-93 69 -92 193z" />
    <glyph glyph-name="T" unicode="T" horiz-adv-x="611" 
d="M227 0v582h-214v132h585v-132h-214v-582h-157z" />
    <glyph glyph-name="U" unicode="U" horiz-adv-x="741" 
d="M675 714v-444q0 -142 -79.5 -214.5t-225.5 -72.5q-304 0 -304 287v444h157v-444q0 -71 26 -107q35 -48 121 -48q82 0 116 38q32 35 32 117v444h157z" />
    <glyph glyph-name="V" unicode="V" horiz-adv-x="630" 
d="M638 714l-237 -714h-177l-232 714h162l159 -502h2l161 502h162z" />
    <glyph glyph-name="W" unicode="W" horiz-adv-x="944" 
d="M941 714l-192 -714h-156l-121 486h-2l-119 -486h-159l-189 714h157l113 -486h2l124 486h147l122 -492h2l117 492h154z" />
    <glyph glyph-name="X" unicode="X" horiz-adv-x="667" 
d="M-6 0l250 374l-230 340h182l140 -228l145 228h172l-229 -341l249 -373h-187l-156 247l-159 -247h-177z" />
    <glyph glyph-name="Y" unicode="Y" horiz-adv-x="667" 
d="M254 0v278l-263 436h177l167 -282l166 282h175l-265 -440v-274h-157z" />
    <glyph glyph-name="Z" unicode="Z" horiz-adv-x="648" 
d="M23 0v124l383 458h-353v132h562v-124l-383 -458h393v-132h-602z" />
    <glyph glyph-name="bracketleft" unicode="[" horiz-adv-x="333" 
d="M68 -182v913h264v-112h-122v-689h122v-112h-264z" />
    <glyph glyph-name="backslash" unicode="\" horiz-adv-x="371" 
d="M103 731l279 -748h-114l-279 748h114z" />
    <glyph glyph-name="bracketright" unicode="]" horiz-adv-x="333" 
d="M265 731v-913h-264v112h122v689h-122v112h264z" />
    <glyph glyph-name="asciicircum" unicode="^" horiz-adv-x="600" 
d="M61 315l172 385h134l172 -385h-117l-122 275l-122 -275h-117z" />
    <glyph glyph-name="underscore" unicode="_" horiz-adv-x="500" 
d="M0 -125v50h500v-50h-500z" />
    <glyph glyph-name="grave" unicode="`" horiz-adv-x="259" 
d="M106 581l-154 142h157l96 -142h-99z" />
    <glyph glyph-name="a" unicode="a" horiz-adv-x="574" 
d="M376 200v53q-17 -15 -74 -23q-65 -10 -86 -19q-42 -19 -42 -64q0 -66 87 -66q115 0 115 119zM190 358h-142q6 92 81 136q62 37 162 37q227 0 227 -147v-269q0 -86 18 -115h-144q-9 28 -10 50q-61 -64 -174 -64q-78 0 -125 38q-51 41 -51 117q0 79 55 118q40 27 121 39
q115 16 117 17q51 13 51 51q0 42 -28 58q-20 12 -64 12q-87 0 -94 -78z" />
    <glyph glyph-name="b" unicode="b" horiz-adv-x="611" 
d="M54 0v714h142v-260h2q51 77 163 77q86 0 146 -65q68 -75 68 -207q0 -133 -68 -208q-60 -65 -146 -65q-126 0 -170 80h-2v-66h-135zM433 258q0 71 -29 116q-32 50 -92 50t-92 -50q-29 -45 -29 -116q0 -70 29 -115q33 -50 92 -50t92 50q29 45 29 115z" />
    <glyph glyph-name="c" unicode="c" horiz-adv-x="574" 
d="M545 335h-139q-14 89 -105 89q-62 0 -95 -55q-26 -46 -26 -113q0 -65 26 -109q31 -54 92 -54q98 0 113 105h137q-13 -102 -79.5 -157t-169.5 -55q-116 0 -188.5 74t-72.5 191q0 124 69 200q72 80 195 80q98 0 164 -48q73 -54 79 -148z" />
    <glyph glyph-name="d" unicode="d" horiz-adv-x="611" 
d="M423 0v66h-2q-47 -80 -157 -80q-111 0 -174 85q-58 77 -58 192q0 112 58 186q63 82 171 82q104 0 154 -77h1v260h142v-714h-135zM421 260q0 71 -26 114q-32 50 -96 50q-65 0 -97 -51q-28 -43 -28 -114q0 -68 30 -113q33 -53 95 -53q122 0 122 167z" />
    <glyph glyph-name="e" unicode="e" horiz-adv-x="574" 
d="M544 224h-373q6 -131 127 -131q41 0 74 22q31 19 38 45h125q-57 -174 -242 -174q-121 0 -192.5 75.5t-71.5 196.5q0 118 73.5 195.5t190.5 77.5q126 0 195 -94q64 -86 56 -213zM171 314h231q-20 110 -113 110q-60 0 -92 -40q-24 -30 -26 -70z" />
    <glyph glyph-name="f" unicode="f" horiz-adv-x="333" 
d="M85 0v422h-85v95h85v40q0 71 44.5 114t128.5 43q14 0 38 -2q30 -2 37 -2v-106q-25 3 -52 3q-54 0 -54 -59v-31h98v-95h-98v-422h-142z" />
    <glyph glyph-name="g" unicode="g" horiz-adv-x="611" 
d="M551 517v-484q0 -229 -268 -229q-87 0 -150 39q-73 45 -78 127h141q17 -71 106 -71q114 0 114 128v68h-2q-46 -80 -155 -80q-110 0 -169 77q-52 69 -52 183q0 107 57 178q61 78 165 78q107 0 154 -83h2v69h135zM295 122q58 0 91 44q30 39 30 99q0 159 -121 159
q-57 0 -87 -45q-28 -39 -28 -102q0 -64 25 -105q30 -50 90 -50z" />
    <glyph glyph-name="h" unicode="h" horiz-adv-x="593" 
d="M54 0v714h142v-269h3q26 42 69 65q40 21 82 21q107 0 151 -58q38 -50 38 -155v-318h-142v292q0 127 -91 127q-58 0 -84 -35t-26 -113v-271h-142z" />
    <glyph glyph-name="i" unicode="i" horiz-adv-x="258" 
d="M58 0v517h142v-517h-142zM200 714v-117h-142v117h142z" />
    <glyph glyph-name="j" unicode="j" horiz-adv-x="278" 
d="M-19 -178v117q12 -4 31 -4q55 0 55 46v536h142v-543q0 -83 -37 -118q-41 -38 -145 -38q-16 0 -46 4zM209 714v-117h-142v117h142z" />
    <glyph glyph-name="k" unicode="k" horiz-adv-x="574" 
d="M67 0v714h142v-383l179 186h168l-195 -190l217 -327h-172l-142 231l-55 -53v-178h-142z" />
    <glyph glyph-name="l" unicode="l" horiz-adv-x="258" 
d="M58 0v714h142v-714h-142z" />
    <glyph glyph-name="m" unicode="m" horiz-adv-x="906" 
d="M58 0v517h134v-70h2q59 84 158 84q112 0 151 -86q57 86 156 86q189 0 189 -185v-346h-142v293q0 63 -13 89q-19 37 -74 37q-95 0 -95 -131v-288h-142v290q0 65 -9 87q-18 42 -77 42q-33 0 -58 -22q-38 -31 -38 -97v-300h-142z" />
    <glyph glyph-name="n" unicode="n" horiz-adv-x="593" 
d="M54 0v517h135v-72h3q53 86 158 86q107 0 151 -58q38 -50 38 -155v-318h-142v292q0 127 -91 127q-58 0 -84 -35t-26 -113v-271h-142z" />
    <glyph glyph-name="o" unicode="o" horiz-adv-x="611" 
d="M38 258q0 124 73 198.5t194 74.5q122 0 195 -74.5t73 -198.5q0 -123 -73 -197.5t-195 -74.5q-121 0 -194 74.5t-73 197.5zM180 258q0 -71 27 -113q32 -52 98 -52q126 0 126 165q0 166 -126 166q-125 0 -125 -166z" />
    <glyph glyph-name="p" unicode="p" horiz-adv-x="611" 
d="M54 -182v699h135v-66h2q49 80 154 80q115 0 178 -84q57 -75 57 -194q0 -111 -57 -185q-62 -82 -170 -82q-103 0 -155 78h-2v-246h-142zM315 93q123 0 123 164q0 70 -28 114q-33 53 -96 53q-65 0 -96 -52q-27 -44 -27 -115q0 -70 28 -113q32 -51 96 -51z" />
    <glyph glyph-name="q" unicode="q" horiz-adv-x="611" 
d="M558 517v-699h-142v247h-2q-47 -79 -163 -79q-85 0 -145 60q-74 72 -74 209q0 115 57 191q64 85 175 85q112 0 157 -80h2v66h135zM174 258q0 -71 27 -114q31 -51 96 -51q64 0 97 50q27 42 27 113q0 69 -27 114q-32 54 -94 54q-64 0 -97 -51q-29 -45 -29 -115z" />
    <glyph glyph-name="r" unicode="r" horiz-adv-x="389" 
d="M54 0v517h135v-96h2q19 48 66 79t99 31q16 0 31 -5v-132q-22 5 -51 5q-140 0 -140 -166v-233h-142z" />
    <glyph glyph-name="s" unicode="s" horiz-adv-x="537" 
d="M29 168h135q1 -44 34 -67q29 -20 75 -20q37 0 62 14q31 18 31 52q0 30 -42 48q-30 13 -119 32q-76 16 -113 42q-51 34 -51 96q0 166 225 166q214 0 228 -165h-135q-5 70 -97 70q-79 0 -79 -48q0 -33 50 -51q6 -2 111 -26q77 -18 113 -44q51 -36 51 -101q0 -94 -74 -141
q-61 -39 -162 -39t-164 40q-75 47 -79 142z" />
    <glyph glyph-name="t" unicode="t" horiz-adv-x="352" 
d="M234 672v-155h104v-95h-104v-256q0 -36 12 -48t48 -12q24 0 44 4v-111q-30 -5 -83 -5q-163 0 -163 123v305h-86v95h86v155h142z" />
    <glyph glyph-name="u" unicode="u" horiz-adv-x="593" 
d="M539 517v-517h-135v72h-3q-53 -86 -158 -86q-107 0 -151 59q-38 49 -38 154v318h142v-292q0 -127 91 -127q58 0 84 35t26 113v271h142z" />
    <glyph glyph-name="v" unicode="v" horiz-adv-x="520" 
d="M515 517l-175 -517h-158l-177 517h149l109 -353h2l109 353h141z" />
    <glyph glyph-name="w" unicode="w" horiz-adv-x="814" 
d="M808 517l-163 -517h-146l-92 347h-2l-88 -347h-147l-164 517h150l95 -351h2l86 351h138l88 -350h2l95 350h146z" />
    <glyph glyph-name="x" unicode="x" horiz-adv-x="537" 
d="M0 0l186 272l-170 245h162l91 -135l90 135h157l-170 -242l191 -275h-162l-108 163l-108 -163h-159z" />
    <glyph glyph-name="y" unicode="y" horiz-adv-x="519" 
d="M525 517l-216 -582q-23 -63 -64 -90t-114 -27q-39 0 -87 5v117q75 -6 83 -5q55 4 55 65q0 17 -6 32l-182 485h152l117 -354h2l113 354h147z" />
    <glyph glyph-name="z" unicode="z" horiz-adv-x="519" 
d="M22 0v107l269 303h-249v107h436v-107l-269 -303h288v-107h-475z" />
    <glyph glyph-name="braceleft" unicode="{" horiz-adv-x="333" 
d="M333 731v-112h-54q-54 0 -54 -73v-152q0 -105 -99 -118v-3q34 -3 61 -25q38 -30 38 -85v-160q0 -73 54 -73h54v-112h-127q-41 0 -78 33q-45 40 -45 102v195q0 41 -34 64q-27 19 -58 19v87q31 0 58 20q34 25 34 70v188q0 62 45 102q37 33 78 33h127z" />
    <glyph glyph-name="bar" unicode="|" horiz-adv-x="223" 
d="M58 -17v748h107v-748h-107z" />
    <glyph glyph-name="braceright" unicode="}" horiz-adv-x="333" 
d="M0 -182v112h54q54 0 54 73v160q0 55 38 85q27 22 61 25v3q-99 13 -99 118v152q0 73 -54 73h-54v112h127q41 0 78 -33q45 -40 45 -102v-188q0 -45 34 -70q27 -20 58 -20v-87q-31 0 -58 -19q-34 -23 -34 -64v-195q0 -62 -45 -102q-37 -33 -78 -33h-127z" />
    <glyph glyph-name="asciitilde" unicode="~" horiz-adv-x="600" 
d="M493 344v0l40 -93q-30 -42 -50 -59q-34 -27 -75 -27q-42 0 -102 33q-63 35 -115 35q-51 0 -84 -72l-40 93q45 86 125 86q38 0 111 -32q82 -36 102 -36q41 0 88 72z" />
    <glyph glyph-name="exclamdown" unicode="&#xa1;" horiz-adv-x="278" 
d="M218 531v-154h-157v154h157zM65 -183v192l39 308h71l38 -308v-192h-148z" />
    <glyph glyph-name="cent" unicode="&#xa2;" 
d="M260 93v330q-97 -26 -97 -159q0 -141 97 -171zM260 -115v101q-106 7 -172.5 81.5t-66.5 182.5q0 117 61 193q65 78 178 88v85h59v-85q87 -1 152 -54q69 -57 72 -143h-139q-3 36 -27 61.5t-58 28.5v-331q36 7 61 39t26 71h139q-8 -93 -70.5 -151t-155.5 -66v-101h-59z" />
    <glyph glyph-name="sterling" unicode="&#xa3;" 
d="M88 -17l-62 93q113 73 113 166q0 29 -19 67h-99v85h64q-45 56 -45 138q0 84 65 139q70 60 191 60q115 0 179.5 -65t63.5 -185h-135q-4 55 -17 81q-26 52 -92 52q-44 0 -71 -25t-27 -67q0 -54 41 -128h133v-85h-105q8 -27 8 -62q0 -75 -82 -140l2 -2q37 23 68 23
q27 0 79 -11.5t78 -11.5q47 0 88 43l60 -101q-67 -64 -156 -64q-46 0 -108.5 19t-99.5 19q-66 0 -115 -38z" />
    <glyph glyph-name="currency" unicode="&#xa4;" 
d="M20 149l57 58q-48 56 -48 142q0 96 48 144l-57 58l57 57l57 -56q54 46 146 46q87 0 137 -45l58 57l61 -61l-56 -55q45 -50 45 -143q0 -89 -46 -146l55 -56l-55 -55l-57 58q-52 -50 -143 -50q-93 0 -147 49l-56 -58zM280 491q-60 0 -93.5 -41.5t-33.5 -100.5q0 -58 32 -97
q35 -43 94 -43q58 0 92 44q30 40 30 98q0 57 -30 96q-34 44 -91 44z" />
    <glyph glyph-name="yen" unicode="&#xa5;" 
d="M359 0h-152v138h-157v95h157v46l-14 29h-143v95h95l-154 311h163l132 -311l129 311h162l-155 -311h95v-95h-143l-15 -29v-46h158v-95h-158v-138z" />
    <glyph glyph-name="brokenbar" unicode="&#xa6;" horiz-adv-x="223" 
d="M58 -17v275h107v-275h-107zM165 731v-275h-107v275h107z" />
    <glyph glyph-name="section" unicode="&#xa7;" 
d="M377 287l-165 93q-19 11 -27 10q-21 -2 -36 -23t-15 -44q0 -32 32 -49l180 -98q16 -7 30 -7q18 0 32 18.5t14 36.5q0 38 -45 63zM494 538h-124q0 38 -23 62t-62 24q-29 0 -51 -17q-25 -19 -25 -47q0 -36 54 -69q10 -6 116 -57q79 -38 115 -71q52 -49 52 -113
q0 -49 -28.5 -89t-75.5 -57q55 -42 55 -118q0 -79 -69 -126q-60 -42 -144 -42q-101 0 -160 46q-66 51 -65 148h124q5 -87 98 -87q32 0 53 17t21 49q0 39 -52 72q-18 11 -118 58q-82 38 -120 74q-55 50 -55 116q0 108 107 146q-43 46 -43 101q0 80 66 129q60 44 143 44
q92 0 150 -50q61 -53 61 -143z" />
    <glyph glyph-name="dieresis" unicode="&#xa8;" horiz-adv-x="259" 
d="M165 597v117h135v-117h-135zM-41 597v117h135v-117h-135z" />
    <glyph glyph-name="copyright" unicode="&#xa9;" horiz-adv-x="800" 
d="M16 357q0 166 116 273q110 101 268 101t268 -101q116 -107 116 -273q0 -165 -116 -272q-110 -102 -268 -102t-268 102q-116 107 -116 272zM118 357q0 -126 81.5 -210t200.5 -84q118 0 200 84t82 210q0 127 -82 210.5t-200 83.5q-119 0 -200.5 -83.5t-81.5 -210.5z
M515 295h81q-12 -73 -62.5 -115.5t-119.5 -42.5q-96 0 -155.5 63.5t-59.5 158.5q0 99 57.5 161.5t155.5 62.5q71 0 121 -40.5t60 -114.5h-78q-7 35 -35.5 55t-67.5 20q-56 0 -86.5 -39.5t-30.5 -102.5q0 -60 33 -102t86 -42q41 0 69 21t32 57z" />
    <glyph glyph-name="ordfeminine" unicode="&#xaa;" horiz-adv-x="344" 
d="M230 515v20q-9 -8 -31 -12l-36 -6q-51 -11 -51 -40q0 -37 45 -37q73 0 73 75zM122 605h-102q15 109 156 109q150 0 150 -89v-166q0 -54 12 -75h-101q-5 15 -7 31q-39 -40 -108 -40q-112 0 -112 100q0 83 114 97q71 8 76 10q31 7 31 28q0 39 -60 39q-45 0 -49 -44z" />
    <glyph glyph-name="guillemotleft" unicode="&#xab;" horiz-adv-x="444" 
d="M402 80l-157 125v135l157 123v-120l-90 -71l90 -72v-120zM199 80l-157 125v135l157 123v-120l-90 -71l90 -72v-120z" />
    <glyph glyph-name="logicalnot" unicode="&#xac;" horiz-adv-x="600" 
d="M552 406v-307h-107v200h-397v107h504z" />
    <glyph glyph-name="registered" unicode="&#xae;" horiz-adv-x="800" 
d="M16 358q0 165 116 272q110 101 268 101t268 -101q116 -107 116 -272q0 -166 -116 -273q-110 -102 -268 -102t-268 102q-116 107 -116 273zM118 358q0 -127 81.5 -211t200.5 -84q118 0 200 84t82 211q0 126 -82 209.5t-200 83.5q-119 0 -200.5 -83.5t-81.5 -209.5z
M251 149v419h158q164 0 164 -124q0 -103 -110 -112l112 -183h-87l-102 179h-52v-179h-83zM334 503v-110h74q39 0 57 9q25 13 25 49q0 52 -86 52h-70z" />
    <glyph glyph-name="degree" unicode="&#xb0;" horiz-adv-x="400" 
d="M52 566q0 62 43.5 105t104.5 43q62 0 105 -43t43 -105q0 -61 -43 -104.5t-105 -43.5q-61 0 -104.5 43.5t-43.5 104.5zM117 566q0 -36 25 -62t58 -26t58 26t25 62t-25 62t-58 26t-58 -26t-25 -62z" />
    <glyph glyph-name="plusminus" unicode="&#xb1;" horiz-adv-x="600" 
d="M354 506v-131h199v-107h-199v-131h-107v131h-199v107h199v131h107zM48 0v107h505v-107h-505z" />
    <glyph glyph-name="twosuperior" unicode="&#xb2;" horiz-adv-x="392" 
d="M130 540h-102q-1 80 45 127t136 47q66 0 109 -34q47 -37 47 -101q0 -75 -81 -128q-35 -21 -70 -43q-41 -26 -62 -55h209v-80h-334q1 72 41 119q26 31 99 77q55 35 63 42q33 27 33 61q0 27 -17 44.5t-44 17.5q-38 0 -58 -32q-16 -26 -14 -62z" />
    <glyph glyph-name="threesuperior" unicode="&#xb3;" horiz-adv-x="392" 
d="M164 464v70q95 0 95 47q0 24 -18.5 38.5t-43.5 14.5q-31 0 -49.5 -20.5t-17.5 -51.5h-96q2 70 45 111t117 41q64 0 109 -31q50 -34 50 -92q0 -69 -66 -86v-2q37 -7 59 -33t22 -61q0 -69 -52 -108q-47 -37 -121 -37q-82 0 -129 41.5t-46 118.5h96q2 -34 21.5 -57t55.5 -23
q31 0 52 18t21 45q0 37 -36 50q-20 7 -68 7z" />
    <glyph glyph-name="acute" unicode="&#xb4;" horiz-adv-x="259" 
d="M307 723l-154 -142h-99l96 142h157z" />
    <glyph glyph-name="paragraph" unicode="&#xb6;" horiz-adv-x="620" 
d="M221 -166v523q-103 0 -161 47.5t-58 127.5q0 182 240 182h293v-880h-102v800h-110v-800h-102z" />
    <glyph glyph-name="cedilla" unicode="&#xb8;" horiz-adv-x="259" 
d="M12 -196l21 48q42 -18 84 -18q40 0 40 34q0 32 -40 32q-21 0 -40 -7l-21 24l59 85h49l-39 -55h2q10 5 34 5q37 0 64.5 -18t27.5 -52q0 -100 -117 -100q-60 0 -124 22z" />
    <glyph glyph-name="onesuperior" unicode="&#xb9;" horiz-adv-x="392" 
d="M289 705v-432h-102v274h-110v75q116 -4 128 83h84z" />
    <glyph glyph-name="ordmasculine" unicode="&#xba;" horiz-adv-x="367" 
d="M12 544q0 78 46.5 124t124.5 46t125 -46t47 -124t-46.5 -123.5t-125.5 -45.5q-78 0 -124.5 45.5t-46.5 123.5zM119 544q0 -37 15 -63q18 -31 49 -31q32 0 50 31q15 26 15 63q0 39 -15 65q-18 30 -50 30q-31 0 -49 -30q-15 -26 -15 -65z" />
    <glyph glyph-name="guillemotright" unicode="&#xbb;" horiz-adv-x="444" 
d="M245 463l157 -123v-135l-157 -125v120l90 72l-90 71v120zM42 463l157 -123v-135l-157 -125v120l90 72l-90 71v120z" />
    <glyph glyph-name="onequarter" unicode="&#xbc;" horiz-adv-x="892" 
d="M152 -22l414 744h85l-412 -744h-87zM236 705v-432h-102v274h-110v75q116 -4 128 83h84zM689 0v89h-192v93l188 238h100v-251h57v-80h-57v-89h-96zM689 169v144h-2l-114 -144h116z" />
    <glyph glyph-name="onehalf" unicode="&#xbd;" horiz-adv-x="889" 
d="M152 -22l414 744h85l-412 -744h-87zM236 705v-432h-102v274h-110v75q116 -4 128 83h84zM611 267h-102q-1 80 45 127t136 47q66 0 109 -34q47 -37 47 -101q0 -75 -81 -128q-35 -21 -70 -43q-41 -26 -62 -55h209v-80h-334q1 72 41 119q26 31 99 77q55 35 63 42q33 27 33 61
q0 27 -17 44.5t-44 17.5q-38 0 -58 -32q-16 -26 -14 -62z" />
    <glyph glyph-name="threequarters" unicode="&#xbe;" horiz-adv-x="889" 
d="M239 -22l414 744h85l-412 -744h-87zM181 464v70q95 0 95 47q0 24 -18.5 38.5t-43.5 14.5q-31 0 -49.5 -20.5t-17.5 -51.5h-96q2 70 45 111t117 41q64 0 109 -31q50 -34 50 -92q0 -69 -66 -86v-2q37 -7 59 -33t22 -61q0 -69 -52 -108q-47 -37 -121 -37q-82 0 -129 41.5
t-46 118.5h96q2 -34 21.5 -57t55.5 -23q31 0 52 18t21 45q0 37 -36 50q-20 7 -68 7zM709 0v89h-192v93l188 238h100v-251h57v-80h-57v-89h-96zM709 169v144h-2l-114 -144h116z" />
    <glyph glyph-name="questiondown" unicode="&#xbf;" 
d="M375 51h147q-2 -109 -68 -178t-173 -69q-128 0 -195 68q-54 53 -54 125q0 66 26 109q18 30 58 60q54 40 62 48q30 31 36 69v38h135v-45q0 -58 -29 -99q-17 -26 -57.5 -57.5t-51.5 -45.5q-22 -27 -22 -63q0 -90 85 -90q50 0 76 38q24 35 25 92zM363 531v-154h-157v154h157
z" />
    <glyph glyph-name="Agrave" unicode="&#xc0;" horiz-adv-x="685" 
d="M-7 0l271 714h161l267 -714h-163l-54 159h-267l-56 -159h-159zM342 538l-93 -262h185l-90 262h-2zM319 778l-154 142h157l96 -142h-99z" />
    <glyph glyph-name="Aacute" unicode="&#xc1;" horiz-adv-x="685" 
d="M-7 0l271 714h161l267 -714h-163l-54 159h-267l-56 -159h-159zM342 538l-93 -262h185l-90 262h-2zM520 920l-154 -142h-99l96 142h157z" />
    <glyph glyph-name="Acircumflex" unicode="&#xc2;" horiz-adv-x="685" 
d="M-7 0l271 714h161l267 -714h-163l-54 159h-267l-56 -159h-159zM342 538l-93 -262h185l-90 262h-2zM167 778l111 142h130l110 -142h-117l-62 81l-64 -81h-108z" />
    <glyph glyph-name="Atilde" unicode="&#xc3;" horiz-adv-x="685" 
d="M-7 0l271 714h161l267 -714h-163l-54 159h-267l-56 -159h-159zM342 538l-93 -262h185l-90 262h-2zM457 911v0h69q-17 -57 -35 -79q-27 -35 -77 -35q-29 0 -78.5 17t-73.5 17q-32 0 -42 -42h-61q27 122 126 122q23 0 65 -17.5t65 -17.5q44 0 42 35z" />
    <glyph glyph-name="Adieresis" unicode="&#xc4;" horiz-adv-x="685" 
d="M-7 0l271 714h161l267 -714h-163l-54 159h-267l-56 -159h-159zM342 538l-93 -262h185l-90 262h-2zM378 794v117h135v-117h-135zM172 794v117h135v-117h-135z" />
    <glyph glyph-name="Aring" unicode="&#xc5;" horiz-adv-x="685" 
d="M-7 0l271 714h161l267 -714h-163l-54 159h-267l-56 -159h-159zM342 538l-93 -262h185l-90 262h-2zM279 853q0 -30 17.5 -50t45.5 -20t46 20t18 50t-18 50t-46 20t-45.5 -20t-17.5 -50zM220 853q0 50 36 86t86 36q51 0 87 -36t36 -86t-36 -86t-87 -36q-50 0 -86 36t-36 86
z" />
    <glyph glyph-name="AE" unicode="&#xc6;" horiz-adv-x="981" 
d="M418 582l-138 -306h172v306h-34zM-11 0l341 714h606v-132h-332v-153h312v-122h-312v-175h340v-132h-492v159h-224l-72 -159h-167z" />
    <glyph glyph-name="Ccedilla" unicode="&#xc7;" horiz-adv-x="741" 
d="M551 275h152q-12 -133 -96 -211.5t-215 -80.5l-26 -36h2q10 5 34 5q37 0 64.5 -18t27.5 -52q0 -100 -117 -100q-60 0 -124 22l21 48q42 -18 84 -18q40 0 40 34q0 32 -40 32q-21 0 -40 -7l-21 24l48 69q-142 15 -226 120q-81 100 -81 248q0 164 93 268q96 109 258 109
q122 0 206 -67q88 -70 102 -190h-152q-7 53 -52 89t-104 36q-99 0 -150 -76q-44 -65 -44 -169q0 -100 44 -164q52 -75 150 -75q70 0 113 45q40 42 49 115z" />
    <glyph glyph-name="Egrave" unicode="&#xc8;" horiz-adv-x="648" 
d="M69 0v714h534v-132h-377v-153h346v-122h-346v-175h385v-132h-542zM301 778l-154 142h157l96 -142h-99z" />
    <glyph glyph-name="Eacute" unicode="&#xc9;" horiz-adv-x="648" 
d="M69 0v714h534v-132h-377v-153h346v-122h-346v-175h385v-132h-542zM502 920l-154 -142h-99l96 142h157z" />
    <glyph glyph-name="Ecircumflex" unicode="&#xca;" horiz-adv-x="648" 
d="M69 0v714h534v-132h-377v-153h346v-122h-346v-175h385v-132h-542zM149 778l111 142h130l110 -142h-117l-62 81l-64 -81h-108z" />
    <glyph glyph-name="Edieresis" unicode="&#xcb;" horiz-adv-x="648" 
d="M69 0v714h534v-132h-377v-153h346v-122h-346v-175h385v-132h-542zM360 794v117h135v-117h-135zM154 794v117h135v-117h-135z" />
    <glyph glyph-name="Igrave" unicode="&#xcc;" horiz-adv-x="295" 
d="M69 0v714h157v-714h-157zM124 778l-154 142h157l96 -142h-99z" />
    <glyph glyph-name="Iacute" unicode="&#xcd;" horiz-adv-x="295" 
d="M69 0v714h157v-714h-157zM325 920l-154 -142h-99l96 142h157z" />
    <glyph glyph-name="Icircumflex" unicode="&#xce;" horiz-adv-x="295" 
d="M69 0v714h157v-714h-157zM-28 778l111 142h130l110 -142h-117l-62 81l-64 -81h-108z" />
    <glyph glyph-name="Idieresis" unicode="&#xcf;" horiz-adv-x="295" 
d="M69 0v714h157v-714h-157zM183 794v117h135v-117h-135zM-23 794v117h135v-117h-135z" />
    <glyph glyph-name="Eth" unicode="&#xd0;" horiz-adv-x="741" 
d="M69 0v311h-66v116h66v287h308q145 0 231 -88q93 -93 93 -265q0 -162 -80 -258q-86 -103 -244 -103h-308zM226 582v-155h160v-117h-160v-178h140q76 0 123 48q55 56 55 166q0 115 -44 172q-50 64 -162 64h-112z" />
    <glyph glyph-name="Ntilde" unicode="&#xd1;" horiz-adv-x="741" 
d="M69 0v714h156l298 -479h2v479h147v-714h-157l-297 478h-2v-478h-147zM485 911v0h69q-17 -57 -35 -79q-27 -35 -77 -35q-29 0 -78.5 17t-73.5 17q-32 0 -42 -42h-61q27 122 126 122q23 0 65 -17.5t65 -17.5q44 0 42 35z" />
    <glyph glyph-name="Ograve" unicode="&#xd2;" horiz-adv-x="778" 
d="M38 354q0 164 93 268q96 109 258 109t258 -109q93 -104 93 -268q0 -160 -93 -263q-97 -108 -258 -108t-258 108q-93 103 -93 263zM195 354q0 -100 44 -164q52 -75 150 -75t150 75q44 64 44 164q0 104 -44 169q-51 76 -150 76t-150 -76q-44 -65 -44 -169zM366 778
l-154 142h157l96 -142h-99z" />
    <glyph glyph-name="Oacute" unicode="&#xd3;" horiz-adv-x="778" 
d="M38 354q0 164 93 268q96 109 258 109t258 -109q93 -104 93 -268q0 -160 -93 -263q-97 -108 -258 -108t-258 108q-93 103 -93 263zM195 354q0 -100 44 -164q52 -75 150 -75t150 75q44 64 44 164q0 104 -44 169q-51 76 -150 76t-150 -76q-44 -65 -44 -169zM567 920
l-154 -142h-99l96 142h157z" />
    <glyph glyph-name="Ocircumflex" unicode="&#xd4;" horiz-adv-x="778" 
d="M38 354q0 164 93 268q96 109 258 109t258 -109q93 -104 93 -268q0 -160 -93 -263q-97 -108 -258 -108t-258 108q-93 103 -93 263zM195 354q0 -100 44 -164q52 -75 150 -75t150 75q44 64 44 164q0 104 -44 169q-51 76 -150 76t-150 -76q-44 -65 -44 -169zM214 778l111 142
h130l110 -142h-117l-62 81l-64 -81h-108z" />
    <glyph glyph-name="Otilde" unicode="&#xd5;" horiz-adv-x="778" 
d="M38 354q0 164 93 268q96 109 258 109t258 -109q93 -104 93 -268q0 -160 -93 -263q-97 -108 -258 -108t-258 108q-93 103 -93 263zM195 354q0 -100 44 -164q52 -75 150 -75t150 75q44 64 44 164q0 104 -44 169q-51 76 -150 76t-150 -76q-44 -65 -44 -169zM504 911v0h69
q-17 -57 -35 -79q-27 -35 -77 -35q-29 0 -78.5 17t-73.5 17q-32 0 -42 -42h-61q27 122 126 122q23 0 65 -17.5t65 -17.5q44 0 42 35z" />
    <glyph glyph-name="Odieresis" unicode="&#xd6;" horiz-adv-x="778" 
d="M38 354q0 164 93 268q96 109 258 109t258 -109q93 -104 93 -268q0 -160 -93 -263q-97 -108 -258 -108t-258 108q-93 103 -93 263zM195 354q0 -100 44 -164q52 -75 150 -75t150 75q44 64 44 164q0 104 -44 169q-51 76 -150 76t-150 -76q-44 -65 -44 -169zM425 794v117h135
v-117h-135zM219 794v117h135v-117h-135z" />
    <glyph glyph-name="multiply" unicode="&#xd7;" horiz-adv-x="600" 
d="M140 17l-76 76l161 160l-159 160l76 76l159 -160l160 160l76 -76l-161 -160l161 -160l-76 -76l-160 161z" />
    <glyph glyph-name="Oslash" unicode="&#xd8;" horiz-adv-x="778" 
d="M34 10l86 95q-82 100 -82 249q0 164 93 268q96 109 258 109q135 0 225 -77l80 89l50 -44l-84 -93q80 -102 80 -252q0 -160 -93 -263q-97 -108 -258 -108q-134 0 -223 76l-83 -92zM223 219l296 329q-49 51 -130 51q-99 0 -150 -76q-44 -65 -44 -169q0 -78 28 -135z
M556 490l-295 -326q49 -49 128 -49q98 0 150 75q44 64 44 164q0 78 -27 136z" />
    <glyph glyph-name="Ugrave" unicode="&#xd9;" horiz-adv-x="741" 
d="M675 714v-444q0 -142 -79.5 -214.5t-225.5 -72.5q-304 0 -304 287v444h157v-444q0 -71 26 -107q35 -48 121 -48q82 0 116 38q32 35 32 117v444h157zM347 778l-154 142h157l96 -142h-99z" />
    <glyph glyph-name="Uacute" unicode="&#xda;" horiz-adv-x="741" 
d="M675 714v-444q0 -142 -79.5 -214.5t-225.5 -72.5q-304 0 -304 287v444h157v-444q0 -71 26 -107q35 -48 121 -48q82 0 116 38q32 35 32 117v444h157zM548 920l-154 -142h-99l96 142h157z" />
    <glyph glyph-name="Ucircumflex" unicode="&#xdb;" horiz-adv-x="741" 
d="M675 714v-444q0 -142 -79.5 -214.5t-225.5 -72.5q-304 0 -304 287v444h157v-444q0 -71 26 -107q35 -48 121 -48q82 0 116 38q32 35 32 117v444h157zM195 778l111 142h130l110 -142h-117l-62 81l-64 -81h-108z" />
    <glyph glyph-name="Udieresis" unicode="&#xdc;" horiz-adv-x="741" 
d="M675 714v-444q0 -142 -79.5 -214.5t-225.5 -72.5q-304 0 -304 287v444h157v-444q0 -71 26 -107q35 -48 121 -48q82 0 116 38q32 35 32 117v444h157zM406 794v117h135v-117h-135zM200 794v117h135v-117h-135z" />
    <glyph glyph-name="Yacute" unicode="&#xdd;" horiz-adv-x="667" 
d="M254 0v278l-263 436h177l167 -282l166 282h175l-265 -440v-274h-157zM511 920l-154 -142h-99l96 142h157z" />
    <glyph glyph-name="Thorn" unicode="&#xde;" horiz-adv-x="667" 
d="M69 0v714h157v-97h165q125 0 190 -71q57 -61 57 -158t-57 -158q-65 -71 -190 -71h-165v-159h-157zM226 495v-214h122q64 0 96 19q42 26 42 88t-42 88q-32 19 -96 19h-122z" />
    <glyph glyph-name="germandbls" unicode="&#xdf;" horiz-adv-x="611" 
d="M56 0v491q0 240 235 240q96 0 158 -46q69 -52 69 -146q0 -47 -26 -86.5t-67 -52.5v-2q63 -14 98 -64q32 -48 32 -115q0 -95 -62 -164t-155 -69q-41 0 -82 6v116q16 -5 41 -5q50 0 83 35t33 86q0 122 -122 122q-11 0 -35 -2v94q16 -2 22 -2q44 0 74.5 22.5t30.5 66.5
q0 89 -96 89q-42 0 -65.5 -26.5t-23.5 -71.5v-516h-142z" />
    <glyph glyph-name="agrave" unicode="&#xe0;" horiz-adv-x="574" 
d="M376 200v53q-17 -15 -74 -23q-65 -10 -86 -19q-42 -19 -42 -64q0 -66 87 -66q115 0 115 119zM190 358h-142q6 92 81 136q62 37 162 37q227 0 227 -147v-269q0 -86 18 -115h-144q-9 28 -10 50q-61 -64 -174 -64q-78 0 -125 38q-51 41 -51 117q0 79 55 118q40 27 121 39
q115 16 117 17q51 13 51 51q0 42 -28 58q-20 12 -64 12q-87 0 -94 -78zM264 581l-154 142h157l96 -142h-99z" />
    <glyph glyph-name="aacute" unicode="&#xe1;" horiz-adv-x="574" 
d="M376 200v53q-17 -15 -74 -23q-65 -10 -86 -19q-42 -19 -42 -64q0 -66 87 -66q115 0 115 119zM190 358h-142q6 92 81 136q62 37 162 37q227 0 227 -147v-269q0 -86 18 -115h-144q-9 28 -10 50q-61 -64 -174 -64q-78 0 -125 38q-51 41 -51 117q0 79 55 118q40 27 121 39
q115 16 117 17q51 13 51 51q0 42 -28 58q-20 12 -64 12q-87 0 -94 -78zM465 723l-154 -142h-99l96 142h157z" />
    <glyph glyph-name="acircumflex" unicode="&#xe2;" horiz-adv-x="574" 
d="M376 200v53q-17 -15 -74 -23q-65 -10 -86 -19q-42 -19 -42 -64q0 -66 87 -66q115 0 115 119zM190 358h-142q6 92 81 136q62 37 162 37q227 0 227 -147v-269q0 -86 18 -115h-144q-9 28 -10 50q-61 -64 -174 -64q-78 0 -125 38q-51 41 -51 117q0 79 55 118q40 27 121 39
q115 16 117 17q51 13 51 51q0 42 -28 58q-20 12 -64 12q-87 0 -94 -78zM112 581l111 142h130l110 -142h-117l-62 81l-64 -81h-108z" />
    <glyph glyph-name="atilde" unicode="&#xe3;" horiz-adv-x="574" 
d="M376 200v53q-17 -15 -74 -23q-65 -10 -86 -19q-42 -19 -42 -64q0 -66 87 -66q115 0 115 119zM190 358h-142q6 92 81 136q62 37 162 37q227 0 227 -147v-269q0 -86 18 -115h-144q-9 28 -10 50q-61 -64 -174 -64q-78 0 -125 38q-51 41 -51 117q0 79 55 118q40 27 121 39
q115 16 117 17q51 13 51 51q0 42 -28 58q-20 12 -64 12q-87 0 -94 -78zM402 714v0h69q-17 -57 -35 -79q-27 -35 -77 -35q-29 0 -78.5 17t-73.5 17q-32 0 -42 -42h-61q27 122 126 122q23 0 65 -17.5t65 -17.5q44 0 42 35z" />
    <glyph glyph-name="adieresis" unicode="&#xe4;" horiz-adv-x="574" 
d="M376 200v53q-17 -15 -74 -23q-65 -10 -86 -19q-42 -19 -42 -64q0 -66 87 -66q115 0 115 119zM190 358h-142q6 92 81 136q62 37 162 37q227 0 227 -147v-269q0 -86 18 -115h-144q-9 28 -10 50q-61 -64 -174 -64q-78 0 -125 38q-51 41 -51 117q0 79 55 118q40 27 121 39
q115 16 117 17q51 13 51 51q0 42 -28 58q-20 12 -64 12q-87 0 -94 -78zM323 597v117h135v-117h-135zM117 597v117h135v-117h-135z" />
    <glyph glyph-name="aring" unicode="&#xe5;" horiz-adv-x="574" 
d="M376 200v53q-17 -15 -74 -23q-65 -10 -86 -19q-42 -19 -42 -64q0 -66 87 -66q115 0 115 119zM190 358h-142q6 92 81 136q62 37 162 37q227 0 227 -147v-269q0 -86 18 -115h-144q-9 28 -10 50q-61 -64 -174 -64q-78 0 -125 38q-51 41 -51 117q0 79 55 118q40 27 121 39
q115 16 117 17q51 13 51 51q0 42 -28 58q-20 12 -64 12q-87 0 -94 -78zM224 656q0 -30 17.5 -50t45.5 -20t46 20t18 50t-18 50t-46 20t-45.5 -20t-17.5 -50zM165 656q0 50 36 86t86 36q51 0 87 -36t36 -86t-36 -86t-87 -36q-50 0 -86 36t-36 86z" />
    <glyph glyph-name="ae" unicode="&#xe6;" horiz-adv-x="907" 
d="M385 188v64q-17 -14 -55 -21q-33 -6 -67 -11q-83 -15 -83 -72q0 -67 88 -67q45 0 78 25q39 30 39 82zM878 224h-369q-2 -55 31 -97q36 -46 92 -46q89 0 103 81h138q-21 -81 -86.5 -128.5t-151.5 -47.5q-132 0 -193 88q-67 -88 -211 -88q-82 0 -133 34q-60 40 -60 120
t54 118q39 28 119 40q114 17 132 23q42 13 42 49q0 66 -92 66q-96 0 -99 -80h-142q3 91 79 136q63 39 165 39q124 0 171 -70q60 70 173 70q122 0 184 -93q54 -81 54 -214zM509 314h227q1 50 -28 85q-32 37 -83 37q-52 0 -83.5 -36t-32.5 -86z" />
    <glyph glyph-name="ccedilla" unicode="&#xe7;" horiz-adv-x="574" 
d="M411 198h137q-13 -99 -75.5 -153.5t-162.5 -57.5l-28 -40h2q10 5 34 5q37 0 64.5 -18t27.5 -52q0 -100 -117 -100q-60 0 -124 22l21 48q42 -18 84 -18q40 0 40 34q0 32 -40 32q-21 0 -40 -7l-21 24l50 72q-102 11 -163.5 83t-61.5 179q0 124 69 200q72 80 195 80
q98 0 164 -48q73 -54 79 -148h-139q-14 89 -105 89q-62 0 -95 -55q-26 -46 -26 -113q0 -65 26 -109q31 -54 92 -54q98 0 113 105z" />
    <glyph glyph-name="egrave" unicode="&#xe8;" horiz-adv-x="574" 
d="M544 224h-373q6 -131 127 -131q41 0 74 22q31 19 38 45h125q-57 -174 -242 -174q-121 0 -192.5 75.5t-71.5 196.5q0 118 73.5 195.5t190.5 77.5q126 0 195 -94q64 -86 56 -213zM171 314h231q-20 110 -113 110q-60 0 -92 -40q-24 -30 -26 -70zM264 581l-154 142h157
l96 -142h-99z" />
    <glyph glyph-name="eacute" unicode="&#xe9;" horiz-adv-x="574" 
d="M544 224h-373q6 -131 127 -131q41 0 74 22q31 19 38 45h125q-57 -174 -242 -174q-121 0 -192.5 75.5t-71.5 196.5q0 118 73.5 195.5t190.5 77.5q126 0 195 -94q64 -86 56 -213zM171 314h231q-20 110 -113 110q-60 0 -92 -40q-24 -30 -26 -70zM465 723l-154 -142h-99
l96 142h157z" />
    <glyph glyph-name="ecircumflex" unicode="&#xea;" horiz-adv-x="574" 
d="M544 224h-373q6 -131 127 -131q41 0 74 22q31 19 38 45h125q-57 -174 -242 -174q-121 0 -192.5 75.5t-71.5 196.5q0 118 73.5 195.5t190.5 77.5q126 0 195 -94q64 -86 56 -213zM171 314h231q-20 110 -113 110q-60 0 -92 -40q-24 -30 -26 -70zM112 581l111 142h130
l110 -142h-117l-62 81l-64 -81h-108z" />
    <glyph glyph-name="edieresis" unicode="&#xeb;" horiz-adv-x="574" 
d="M544 224h-373q6 -131 127 -131q41 0 74 22q31 19 38 45h125q-57 -174 -242 -174q-121 0 -192.5 75.5t-71.5 196.5q0 118 73.5 195.5t190.5 77.5q126 0 195 -94q64 -86 56 -213zM171 314h231q-20 110 -113 110q-60 0 -92 -40q-24 -30 -26 -70zM323 597v117h135v-117h-135z
M117 597v117h135v-117h-135z" />
    <glyph glyph-name="igrave" unicode="&#xec;" horiz-adv-x="258" 
d="M58 0v517h142v-517h-142zM106 581l-154 142h157l96 -142h-99z" />
    <glyph glyph-name="iacute" unicode="&#xed;" horiz-adv-x="258" 
d="M58 0v517h142v-517h-142zM307 723l-154 -142h-99l96 142h157z" />
    <glyph glyph-name="icircumflex" unicode="&#xee;" horiz-adv-x="258" 
d="M58 0v517h142v-517h-142zM-46 581l111 142h130l110 -142h-117l-62 81l-64 -81h-108z" />
    <glyph glyph-name="idieresis" unicode="&#xef;" horiz-adv-x="258" 
d="M58 0v517h142v-517h-142zM165 597v117h135v-117h-135zM-41 597v117h135v-117h-135z" />
    <glyph glyph-name="eth" unicode="&#xf0;" horiz-adv-x="611" 
d="M305 93q126 0 126 165q0 63 -29 104q-34 49 -98 49t-97 -49q-27 -41 -27 -104q0 -71 27 -113q32 -52 98 -52zM133 593l107 54q-44 31 -84 50l92 69q54 -30 99 -66l123 62l52 -59l-114 -57q167 -161 165 -373q-1 -125 -73 -205q-75 -82 -195 -82q-121 0 -194 72.5
t-73 188.5q0 103 55 176q63 83 175 83q78 0 135 -40h2q-26 60 -102 127l-112 -56z" />
    <glyph glyph-name="ntilde" unicode="&#xf1;" horiz-adv-x="593" 
d="M54 0v517h135v-72h3q53 86 158 86q107 0 151 -58q38 -50 38 -155v-318h-142v292q0 127 -91 127q-58 0 -84 -35t-26 -113v-271h-142zM411 714v0h69q-17 -57 -35 -79q-27 -35 -77 -35q-29 0 -78.5 17t-73.5 17q-32 0 -42 -42h-61q27 122 126 122q23 0 65 -17.5t65 -17.5
q44 0 42 35z" />
    <glyph glyph-name="ograve" unicode="&#xf2;" horiz-adv-x="611" 
d="M38 258q0 124 73 198.5t194 74.5q122 0 195 -74.5t73 -198.5q0 -123 -73 -197.5t-195 -74.5q-121 0 -194 74.5t-73 197.5zM180 258q0 -71 27 -113q32 -52 98 -52q126 0 126 165q0 166 -126 166q-125 0 -125 -166zM282 581l-154 142h157l96 -142h-99z" />
    <glyph glyph-name="oacute" unicode="&#xf3;" horiz-adv-x="611" 
d="M38 258q0 124 73 198.5t194 74.5q122 0 195 -74.5t73 -198.5q0 -123 -73 -197.5t-195 -74.5q-121 0 -194 74.5t-73 197.5zM180 258q0 -71 27 -113q32 -52 98 -52q126 0 126 165q0 166 -126 166q-125 0 -125 -166zM483 723l-154 -142h-99l96 142h157z" />
    <glyph glyph-name="ocircumflex" unicode="&#xf4;" horiz-adv-x="611" 
d="M38 258q0 124 73 198.5t194 74.5q122 0 195 -74.5t73 -198.5q0 -123 -73 -197.5t-195 -74.5q-121 0 -194 74.5t-73 197.5zM180 258q0 -71 27 -113q32 -52 98 -52q126 0 126 165q0 166 -126 166q-125 0 -125 -166zM130 581l111 142h130l110 -142h-117l-62 81l-64 -81h-108
z" />
    <glyph glyph-name="otilde" unicode="&#xf5;" horiz-adv-x="611" 
d="M38 258q0 124 73 198.5t194 74.5q122 0 195 -74.5t73 -198.5q0 -123 -73 -197.5t-195 -74.5q-121 0 -194 74.5t-73 197.5zM180 258q0 -71 27 -113q32 -52 98 -52q126 0 126 165q0 166 -126 166q-125 0 -125 -166zM420 714v0h69q-17 -57 -35 -79q-27 -35 -77 -35
q-29 0 -78.5 17t-73.5 17q-32 0 -42 -42h-61q27 122 126 122q23 0 65 -17.5t65 -17.5q44 0 42 35z" />
    <glyph glyph-name="odieresis" unicode="&#xf6;" horiz-adv-x="611" 
d="M38 258q0 124 73 198.5t194 74.5q122 0 195 -74.5t73 -198.5q0 -123 -73 -197.5t-195 -74.5q-121 0 -194 74.5t-73 197.5zM180 258q0 -71 27 -113q32 -52 98 -52q126 0 126 165q0 166 -126 166q-125 0 -125 -166zM341 597v117h135v-117h-135zM135 597v117h135v-117h-135z
" />
    <glyph glyph-name="divide" unicode="&#xf7;" horiz-adv-x="600" 
d="M48 199v107h505v-107h-505zM216 460q0 35 25 60t60 25q34 0 59 -25.5t25 -59.5q0 -32 -25 -58t-58 -26q-35 0 -60.5 25t-25.5 59zM216 45q0 35 25 59.5t60 24.5q34 0 59 -25t25 -59q0 -32 -25 -58.5t-58 -26.5q-35 0 -60.5 25t-25.5 60z" />
    <glyph glyph-name="oslash" unicode="&#xf8;" horiz-adv-x="611" 
d="M195 172l193 220q-30 32 -83 32q-125 0 -125 -166q0 -52 15 -86zM415 349l-195 -222q31 -34 85 -34q126 0 126 165q0 52 -16 91zM44 1l60 68q-66 72 -66 189q0 124 73 198.5t194 74.5q95 0 163 -48l53 61l37 -32l-54 -61q69 -74 69 -193q0 -123 -73 -197.5t-195 -74.5
q-97 0 -165 50l-59 -67z" />
    <glyph glyph-name="ugrave" unicode="&#xf9;" horiz-adv-x="593" 
d="M539 517v-517h-135v72h-3q-53 -86 -158 -86q-107 0 -151 59q-38 49 -38 154v318h142v-292q0 -127 91 -127q58 0 84 35t26 113v271h142zM273 581l-154 142h157l96 -142h-99z" />
    <glyph glyph-name="uacute" unicode="&#xfa;" horiz-adv-x="593" 
d="M539 517v-517h-135v72h-3q-53 -86 -158 -86q-107 0 -151 59q-38 49 -38 154v318h142v-292q0 -127 91 -127q58 0 84 35t26 113v271h142zM474 723l-154 -142h-99l96 142h157z" />
    <glyph glyph-name="ucircumflex" unicode="&#xfb;" horiz-adv-x="593" 
d="M539 517v-517h-135v72h-3q-53 -86 -158 -86q-107 0 -151 59q-38 49 -38 154v318h142v-292q0 -127 91 -127q58 0 84 35t26 113v271h142zM121 581l111 142h130l110 -142h-117l-62 81l-64 -81h-108z" />
    <glyph glyph-name="udieresis" unicode="&#xfc;" horiz-adv-x="593" 
d="M539 517v-517h-135v72h-3q-53 -86 -158 -86q-107 0 -151 59q-38 49 -38 154v318h142v-292q0 -127 91 -127q58 0 84 35t26 113v271h142zM332 597v117h135v-117h-135zM126 597v117h135v-117h-135z" />
    <glyph glyph-name="yacute" unicode="&#xfd;" horiz-adv-x="519" 
d="M525 517l-216 -582q-23 -63 -64 -90t-114 -27q-39 0 -87 5v117q75 -6 83 -5q55 4 55 65q0 17 -6 32l-182 485h152l117 -354h2l113 354h147zM437 723l-154 -142h-99l96 142h157z" />
    <glyph glyph-name="thorn" unicode="&#xfe;" horiz-adv-x="611" 
d="M54 -182v896h142v-263h2q49 80 147 80q115 0 178 -84q57 -75 57 -194q0 -111 -57 -185q-62 -82 -170 -82q-103 0 -155 78h-2v-246h-142zM438 257q0 70 -28 114q-33 53 -96 53q-65 0 -96 -52q-27 -44 -27 -115q0 -70 28 -113q32 -51 96 -51q123 0 123 164z" />
    <glyph glyph-name="ydieresis" unicode="&#xff;" horiz-adv-x="519" 
d="M525 517l-216 -582q-23 -63 -64 -90t-114 -27q-39 0 -87 5v117q75 -6 83 -5q55 4 55 65q0 17 -6 32l-182 485h152l117 -354h2l113 354h147zM295 597v117h135v-117h-135zM89 597v117h135v-117h-135z" />
    <glyph glyph-name="dotlessi" unicode="&#x131;" horiz-adv-x="258" 
d="M58 0v517h142v-517h-142z" />
    <glyph glyph-name="Lslash" unicode="&#x141;" horiz-adv-x="593" 
d="M69 0v214l-80 -56v112l80 56v388h157v-278l211 148v-112l-211 -148v-192h348v-132h-505z" />
    <glyph glyph-name="lslash" unicode="&#x142;" horiz-adv-x="258" 
d="M58 0v286l-67 -53v102l67 53v326h142v-214l67 53v-102l-67 -53v-398h-142z" />
    <glyph glyph-name="OE" unicode="&#x152;" horiz-adv-x="1093" 
d="M544 0v54h-2q-65 -71 -172 -71q-153 0 -245 111q-87 104 -87 259q0 156 88 263q95 115 247 115q116 0 169 -68h2v51h500v-132h-354v-153h324v-122h-324v-175h361v-132h-507zM538 278v170q0 67 -43.5 109t-110.5 42q-97 0 -147 -77q-42 -66 -42 -167q0 -99 43 -164
q50 -76 143 -76q72 0 114.5 45t42.5 118z" />
    <glyph glyph-name="oe" unicode="&#x153;" horiz-adv-x="926" 
d="M528 314h227q-5 110 -115 110q-51 0 -80.5 -31t-31.5 -79zM290 93q114 0 114 167q0 164 -111 164q-60 0 -89 -54q-24 -45 -24 -114q0 -64 23 -108q29 -55 87 -55zM897 224h-369q0 -58 30 -93q33 -38 93 -38q75 0 104 71h138q-25 -84 -89.5 -131t-152.5 -47
q-132 0 -187 88q-50 -88 -183 -88q-115 0 -181 82q-62 76 -62 193q0 116 70 193t184 77q127 0 178 -82q26 38 77 61q47 21 96 21q129 0 196 -92q58 -80 58 -215z" />
    <glyph glyph-name="Scaron" unicode="&#x160;" horiz-adv-x="649" 
d="M24 237h152q0 -67 48 -102q41 -30 110 -30q54 0 90 17q49 23 49 72q0 61 -110 92q-190 54 -205 62q-110 53 -110 167q0 103 85 163q76 53 182 53q123 0 199 -53q87 -61 87 -177h-152q-6 108 -141 108q-43 0 -73 -18q-35 -22 -35 -63q0 -39 39 -57q30 -14 174 -51
q84 -21 125 -48q87 -56 87 -160q0 -102 -76 -164q-80 -65 -221 -65q-129 0 -212 61q-93 69 -92 193zM500 920l-110 -142h-130l-111 142h112l64 -81l65 81h110z" />
    <glyph glyph-name="scaron" unicode="&#x161;" horiz-adv-x="537" 
d="M29 168h135q1 -44 34 -67q29 -20 75 -20q37 0 62 14q31 18 31 52q0 30 -42 48q-30 13 -119 32q-76 16 -113 42q-51 34 -51 96q0 166 225 166q214 0 228 -165h-135q-5 70 -97 70q-79 0 -79 -48q0 -33 50 -51q6 -2 111 -26q77 -18 113 -44q51 -36 51 -101q0 -94 -74 -141
q-61 -39 -162 -39t-164 40q-75 47 -79 142zM444 723l-110 -142h-130l-111 142h112l64 -81l65 81h110z" />
    <glyph glyph-name="Ydieresis" unicode="&#x178;" horiz-adv-x="667" 
d="M254 0v278l-263 436h177l167 -282l166 282h175l-265 -440v-274h-157zM369 794v117h135v-117h-135zM163 794v117h135v-117h-135z" />
    <glyph glyph-name="Zcaron" unicode="&#x17d;" horiz-adv-x="648" 
d="M23 0v124l383 458h-353v132h562v-124l-383 -458h393v-132h-602zM500 920l-110 -142h-130l-111 142h112l64 -81l65 81h110z" />
    <glyph glyph-name="zcaron" unicode="&#x17e;" horiz-adv-x="519" 
d="M22 0v107l269 303h-249v107h436v-107l-269 -303h288v-107h-475zM435 723l-110 -142h-130l-111 142h112l64 -81l65 81h110z" />
    <glyph glyph-name="florin" unicode="&#x192;" 
d="M-5 -167l19 107q17 -3 40 -3q36 -1 52 18q13 15 20 53l63 329h-92l18 95h91l24 127q18 95 63.5 133.5t142.5 38.5q40 0 75 -7l-18 -107q-17 7 -40 7q-38 0 -54 -14t-22 -48l-25 -130h98l-16 -95h-100l-56 -310q-20 -108 -58 -149q-46 -48 -151 -48q-32 0 -74 3z" />
    <glyph glyph-name="circumflex" unicode="&#x2c6;" horiz-adv-x="259" 
d="M-46 581l111 142h130l110 -142h-117l-62 81l-64 -81h-108z" />
    <glyph glyph-name="caron" unicode="&#x2c7;" horiz-adv-x="259" 
d="M305 723l-110 -142h-130l-111 142h112l64 -81l65 81h110z" />
    <glyph glyph-name="macron" unicode="&#xaf;" horiz-adv-x="259" 
d="M-57 616v75h373v-75h-373z" />
    <glyph glyph-name="macron" unicode="&#x2c9;" horiz-adv-x="259" 
d="M-57 616v75h373v-75h-373z" />
    <glyph glyph-name="breve" unicode="&#x2d8;" horiz-adv-x="259" 
d="M-39 727h65q5 -37 38 -56q26 -15 61 -15q93 0 110 71h63q-19 -146 -178 -146q-147 0 -159 146z" />
    <glyph glyph-name="dotaccent" unicode="&#x2d9;" horiz-adv-x="259" 
d="M62 597v117h135v-117h-135z" />
    <glyph glyph-name="ring" unicode="&#x2da;" horiz-adv-x="259" 
d="M66 656q0 -30 17.5 -50t45.5 -20t46 20t18 50t-18 50t-46 20t-45.5 -20t-17.5 -50zM7 656q0 50 36 86t86 36q51 0 87 -36t36 -86t-36 -86t-87 -36q-50 0 -86 36t-36 86z" />
    <glyph glyph-name="ogonek" unicode="&#x2db;" horiz-adv-x="259" 
d="M202 -128l48 -22q-53 -68 -134 -68q-107 0 -107 90q0 63 114 131h65q-83 -75 -83 -127q0 -15 11.5 -24.5t27.5 -9.5q36 0 58 30z" />
    <glyph glyph-name="tilde" unicode="&#x2dc;" horiz-adv-x="259" 
d="M244 714v0h69q-17 -57 -35 -79q-27 -35 -77 -35q-29 0 -78.5 17t-73.5 17q-32 0 -42 -42h-61q27 122 126 122q23 0 65 -17.5t65 -17.5q44 0 42 35z" />
    <glyph glyph-name="hungarumlaut" unicode="&#x2dd;" horiz-adv-x="259" 
d="M192 723l-149 -142h-99l91 142h157zM399 723l-149 -142h-99l91 142h157z" />
    <glyph glyph-name="mu" unicode="&#xb5;" horiz-adv-x="593" 
d="M539 517v-517h-135v72h-3q-25 -40 -66 -65q-36 -21 -64 -21q-53 0 -75 24v-192h-142v699h142v-292q0 -127 91 -127q58 0 84 35t26 113v271h142z" />
    <glyph glyph-name="mu" unicode="&#x3bc;" horiz-adv-x="593" 
d="M539 517v-517h-135v72h-3q-25 -40 -66 -65q-36 -21 -64 -21q-53 0 -75 24v-192h-142v699h142v-292q0 -127 91 -127q58 0 84 35t26 113v271h142z" />
    <glyph glyph-name="endash" unicode="&#x2013;" horiz-adv-x="500" 
d="M0 212v122h500v-122h-500z" />
    <glyph glyph-name="emdash" unicode="&#x2014;" horiz-adv-x="1000" 
d="M0 212v122h1000v-122h-1000z" />
    <glyph glyph-name="quoteleft" unicode="&#x2018;" horiz-adv-x="278" 
d="M210 547v-154h-142v153q0 66 39.5 113t102.5 55v-66q-66 -22 -66 -101h66z" />
    <glyph glyph-name="quoteright" unicode="&#x2019;" horiz-adv-x="278" 
d="M68 560v154h142v-153q0 -66 -39.5 -113t-102.5 -55v66q66 22 66 101h-66z" />
    <glyph glyph-name="quotesinglbase" unicode="&#x201a;" horiz-adv-x="278" 
d="M68 0v154h142v-153q0 -66 -39.5 -113t-102.5 -55v66q66 22 66 101h-66z" />
    <glyph glyph-name="quotedblleft" unicode="&#x201c;" horiz-adv-x="463" 
d="M409 547v-154h-142v153q0 66 39.5 113t102.5 55v-66q-66 -22 -66 -101h66zM196 547v-154h-142v153q0 66 39.5 113t102.5 55v-66q-66 -22 -66 -101h66z" />
    <glyph glyph-name="quotedblright" unicode="&#x201d;" horiz-adv-x="463" 
d="M267 560v154h142v-153q0 -66 -39.5 -113t-102.5 -55v66q66 22 66 101h-66zM54 560v154h142v-153q0 -66 -39.5 -113t-102.5 -55v66q66 22 66 101h-66z" />
    <glyph glyph-name="quotedblbase" unicode="&#x201e;" horiz-adv-x="463" 
d="M267 0v154h142v-153q0 -66 -39.5 -113t-102.5 -55v66q66 22 66 101h-66zM54 0v154h142v-153q0 -66 -39.5 -113t-102.5 -55v66q66 22 66 101h-66z" />
    <glyph glyph-name="dagger" unicode="&#x2020;" 
d="M210 -166v566h-186v117h186v197h135v-197h187v-117h-187v-566h-135z" />
    <glyph glyph-name="daggerdbl" unicode="&#x2021;" 
d="M210 -166v193h-186v117h186v256h-186v117h186v197h135v-197h187v-117h-187v-256h187v-117h-187v-193h-135z" />
    <glyph glyph-name="bullet" unicode="&#x2022;" horiz-adv-x="501" 
d="M72 357q0 74 52 126t126 52t126.5 -52t52.5 -126t-52.5 -126.5t-126.5 -52.5t-126 52.5t-52 126.5z" />
    <glyph glyph-name="ellipsis" unicode="&#x2026;" horiz-adv-x="1000" 
d="M88 0v154h157v-154h-157zM421 0v154h157v-154h-157zM754 0v154h157v-154h-157z" />
    <glyph glyph-name="perthousand" unicode="&#x2030;" horiz-adv-x="1147" 
d="M530 172q0 -56 8 -82q13 -39 48 -39q38 0 49 36q7 19 7 71t-7 73q-12 34 -47 34q-58 0 -58 -93zM786 155q0 76 35 123q38 52 112 52q145 0 145 -174q0 -77 -34 -121q-38 -49 -112 -49q-69 0 -107.5 46.5t-38.5 122.5zM876 172q0 -56 8 -82q13 -39 48 -39q38 0 49 36
q7 19 7 71t-7 73q-12 34 -47 34q-58 0 -58 -93zM69 539q0 76 35 123q38 52 112 52q145 0 145 -174q0 -77 -34 -121q-38 -49 -112 -49q-69 0 -107.5 46.5t-38.5 122.5zM159 556q0 -56 8 -82q13 -39 48 -39q38 0 49 36q7 19 7 71t-7 73q-12 34 -47 34q-58 0 -58 -93zM150 -22
l414 744h85l-412 -744h-87zM440 155q0 76 35 123q38 52 112 52q145 0 145 -174q0 -77 -34 -121q-38 -49 -112 -49q-69 0 -107.5 46.5t-38.5 122.5z" />
    <glyph glyph-name="guilsinglleft" unicode="&#x2039;" horiz-adv-x="241" 
d="M199 80l-157 125v135l157 123v-120l-90 -71l90 -72v-120z" />
    <glyph glyph-name="guilsinglright" unicode="&#x203a;" horiz-adv-x="241" 
d="M42 463l157 -123v-135l-157 -125v120l90 72l-90 71v120z" />
    <glyph glyph-name="fraction" unicode="&#x2044;" horiz-adv-x="167" 
d="M-166 -22l414 744h85l-412 -744h-87z" />
    <glyph glyph-name="trademark" unicode="&#x2122;" horiz-adv-x="1000" 
d="M928 714v-412h-96v292h-2l-106 -292h-69l-106 292h-2v-292h-96v412h136l103 -271l103 271h135zM398 714v-80h-117v-332h-102v332h-117v80h336z" />
    <glyph glyph-name="minus" unicode="&#xad;" horiz-adv-x="600" 
d="M48 199v107h505v-107h-505z" />
    <glyph glyph-name="minus" unicode="&#x2212;" horiz-adv-x="600" 
d="M48 199v107h505v-107h-505z" />
    <glyph glyph-name="periodcentered" unicode="&#xb7;" horiz-adv-x="278" 
d="M55 287q0 35 25 60t60 25q34 0 59 -25.5t25 -59.5q0 -32 -25 -58t-58 -26q-35 0 -60.5 25t-25.5 59z" />
    <glyph glyph-name="periodcentered" unicode="&#x2219;" horiz-adv-x="278" 
d="M55 287q0 35 25 60t60 25q34 0 59 -25.5t25 -59.5q0 -32 -25 -58t-58 -26q-35 0 -60.5 25t-25.5 59z" />
    <glyph glyph-name="fi" unicode="&#xf001;" horiz-adv-x="611" 
d="M553 714v-117h-142v117h142zM411 0v517h142v-517h-142zM85 0v422h-85v95h85v40q0 71 44.5 114t128.5 43q14 0 38 -2q30 -2 37 -2v-106q-25 3 -52 3q-54 0 -54 -59v-31h98v-95h-98v-422h-142z" />
    <glyph glyph-name="fl" unicode="&#xf002;" horiz-adv-x="611" 
d="M411 0v714h142v-714h-142zM85 0v422h-85v95h85v40q0 71 44.5 114t128.5 43q14 0 38 -2q30 -2 37 -2v-106q-25 3 -52 3q-54 0 -54 -59v-31h98v-95h-98v-422h-142z" />
    <glyph glyph-name="glyph231" horiz-adv-x="278" 
 />
  </font>
</defs>
</svg>
