<?xml version="1.0" standalone="no"?>
<!DOCTYPE svg PUBLIC "-//W3C//DTD SVG 1.1//EN" "http://www.w3.org/Graphics/SVG/1.1/DTD/svg11.dtd" >
<svg xmlns="http://www.w3.org/2000/svg" xmlns:xlink="http://www.w3.org/1999/xlink" version="1.1">
<metadata>
Created by FontForge 20200427 at Wed Nov  1 02:59:46 2017
 By www
Copyright 2011 The Montserrat Project Authors (https://github.com/JulietaUla/Montserrat)
</metadata>
<defs>
<font id="Montserrat-ExtraBold" horiz-adv-x="0" >
  <font-face 
    font-family="Montserrat ExtraBold"
    font-weight="800"
    font-stretch="normal"
    units-per-em="1000"
    panose-1="0 0 9 0 0 0 0 0 0 0"
    ascent="800"
    descent="-200"
    x-height="542"
    cap-height="700"
    bbox="-906 -268 1715 1088"
    underline-thickness="50"
    underline-position="-100"
    unicode-range="U+000D-FB02"
  />
<missing-glyph horiz-adv-x="587" 
d="M40 700h507v-700h-507v700zM467 70v560h-347v-560h347z" />
    <glyph glyph-name="fi" unicode="fi" horiz-adv-x="799" 
d="M268 522h129v-142h-124v-380h-190v380h-79v142h79v14q0 99 59.5 157t166.5 58q36 0 70 -7t56 -21l-47 -134q-28 16 -57 16q-30 0 -46.5 -18t-16.5 -53v-12zM547 542h190v-542h-190v542zM558 631q-32 29 -32 72t32 72t84 29t84 -27.5t32 -70.5q0 -45 -32 -74.5t-84 -29.5
t-84 29z" />
    <glyph glyph-name="fl" unicode="fl" horiz-adv-x="719" 
d="M268 522h129v-142h-124v-380h-190v380h-79v142h79v14q0 99 59.5 157t166.5 58q36 0 70 -7t56 -21l-47 -134q-28 16 -57 16q-30 0 -46.5 -18t-16.5 -53v-12zM467 742h190v-742h-190v742z" />
    <glyph glyph-name=".notdef" horiz-adv-x="587" 
d="M40 700h507v-700h-507v700zM467 70v560h-347v-560h347z" />
    <glyph glyph-name=".null" 
 />
    <glyph glyph-name="nonmarkingreturn" unicode="&#xd;" horiz-adv-x="291" 
 />
    <glyph glyph-name="NULL" 
 />
    <glyph glyph-name="NULL" 
 />
    <glyph glyph-name="space" unicode=" " horiz-adv-x="291" 
 />
    <glyph glyph-name="exclam" unicode="!" horiz-adv-x="301" 
d="M38 700h226l-38 -445h-151zM69 21.5q-32 30.5 -32 74.5q0 45 32 74t82 29t81.5 -29t31.5 -74q0 -44 -32 -74.5t-81 -30.5q-50 0 -82 30.5z" />
    <glyph glyph-name="quotedbl" unicode="&#x22;" horiz-adv-x="462" 
d="M41 700h160l-13 -292h-135zM261 700h160l-13 -292h-135z" />
    <glyph glyph-name="numbersign" unicode="#" horiz-adv-x="730" 
d="M571 422l-17 -144h125v-129h-141l-19 -149h-136l19 149h-123l-19 -149h-136l19 149h-126v129h142l17 144h-126v129h142l19 149h136l-19 -149h123l19 149h136l-19 -149h126v-129h-142zM435 422h-123l-17 -144h123z" />
    <glyph glyph-name="dollar" unicode="$" horiz-adv-x="647" 
d="M566.5 68.5q-59.5 -60.5 -172.5 -77.5v-111h-120v107q-75 5 -142 25.5t-111 50.5l65 146q47 -31 109 -50t122 -19q114 0 114 57q0 30 -32.5 44.5t-104.5 30.5q-79 17 -132 36.5t-91 62.5t-38 116q0 86 62 147.5t179 75.5v110h120v-108q57 -5 109.5 -20t93.5 -39l-61 -147
q-100 54 -194 54q-59 0 -86 -17.5t-27 -45.5t32 -42t103 -29q80 -17 132.5 -36.5t91 -62t38.5 -115.5q0 -83 -59.5 -143.5z" />
    <glyph glyph-name="percent" unicode="%" horiz-adv-x="897" 
d="M72 373q-50 52 -50 142q0 59 23 103t63.5 67.5t92.5 23.5q80 0 130 -52.5t50 -141.5q0 -90 -50 -142t-130 -52q-79 0 -129 52zM615 700h144l-478 -700h-144zM244 440q16 24 16 75t-16 75t-43 24q-26 0 -42.5 -24.5t-16.5 -74.5t16.5 -74.5t42.5 -24.5q27 0 43 24z
M565.5 43q-49.5 52 -49.5 142q0 89 50 141.5t129 52.5q80 0 130 -52.5t50 -141.5q0 -90 -50 -142t-130 -52t-129.5 52zM738 110q16 24 16 75t-16 75t-43 24t-43 -24t-16 -75t16 -75t43 -24t43 24z" />
    <glyph glyph-name="ampersand" unicode="&#x26;" horiz-adv-x="752" 
d="M624 -12l-79 70q-49 -35 -109 -53.5t-126 -18.5q-79 0 -143 25.5t-100 70.5t-36 101q0 66 35 115.5t111 90.5q-67 68 -67 141q0 53 29 94t82.5 63.5t123.5 22.5q97 0 156.5 -45.5t59.5 -122.5q0 -54 -31.5 -96t-98.5 -79l102 -91q20 44 31 100l153 -46q-20 -90 -65 -159
l74 -66zM299.5 570.5q-16.5 -14.5 -16.5 -37.5q0 -17 9.5 -32.5t35.5 -40.5q40 21 56.5 39.5t16.5 38.5q0 22 -14.5 34.5t-41.5 12.5q-29 0 -45.5 -14.5zM431 160l-151 134q-33 -20 -48 -41.5t-15 -48.5q0 -32 29 -52.5t78 -20.5q58 0 107 29z" />
    <glyph glyph-name="quotesingle" unicode="'" horiz-adv-x="242" 
d="M41 700h160l-13 -292h-135z" />
    <glyph glyph-name="parenleft" unicode="(" horiz-adv-x="369" 
d="M93.5 16.5q-33.5 120.5 -33.5 257.5t33.5 257.5t95.5 210.5h182q-65 -115 -95 -228.5t-30 -239.5t30 -239.5t95 -228.5h-182q-62 90 -95.5 210.5z" />
    <glyph glyph-name="parenright" unicode=")" horiz-adv-x="369" 
d="M-2 -194q65 115 95 228.5t30 239.5t-30 239.5t-95 228.5h182q62 -90 95.5 -210.5t33.5 -257.5t-33.5 -257.5t-95.5 -210.5h-182z" />
    <glyph glyph-name="asterisk" unicode="*" horiz-adv-x="453" 
d="M341 538l102 -55l-58 -96l-105 63l3 -115h-114l3 115l-105 -63l-57 96l102 55l-102 56l57 96l105 -64l-3 116h114l-3 -116l105 64l58 -96z" />
    <glyph glyph-name="plus" unicode="+" horiz-adv-x="609" 
d="M551 277h-169v-165h-154v165h-170v146h170v165h154v-165h169v-146z" />
    <glyph glyph-name="comma" unicode="," horiz-adv-x="283" 
d="M223 185q32 -31 32 -81q0 -23 -6 -46t-27 -69l-63 -146h-119l47 163q-28 13 -43.5 38.5t-15.5 59.5q0 50 32 81t82 31q49 0 81 -31z" />
    <glyph glyph-name="hyphen" unicode="-" horiz-adv-x="388" 
d="M48 358h292v-146h-292v146z" />
    <glyph glyph-name="period" unicode="." horiz-adv-x="283" 
d="M60 23q-33 32 -33 81q0 50 32.5 81t81.5 31q50 0 82 -31t32 -81q0 -49 -32.5 -81t-81.5 -32q-48 0 -81 32z" />
    <glyph glyph-name="slash" unicode="/" horiz-adv-x="415" 
d="M293 842h169l-330 -942h-169z" />
    <glyph glyph-name="zero" unicode="0" horiz-adv-x="685" 
d="M183 29q-70 43 -109.5 125.5t-39.5 195.5t39.5 195.5t109.5 125.5t160 43q89 0 159 -43t109.5 -125.5t39.5 -195.5t-39.5 -195.5t-109.5 -125.5t-159 -43q-90 0 -160 43zM422.5 196.5q29.5 48.5 29.5 153.5t-29.5 153.5t-79.5 48.5q-51 0 -80.5 -48.5t-29.5 -153.5
t29.5 -153.5t80.5 -48.5q50 0 79.5 48.5z" />
    <glyph glyph-name="one" unicode="1" horiz-adv-x="405" 
d="M334 700v-700h-198v547h-130v153h328z" />
    <glyph glyph-name="two" unicode="2" horiz-adv-x="599" 
d="M575 157v-157h-545v124l262 245q38 36 51 61.5t13 51.5q0 34 -23 53t-67 19q-39 0 -71.5 -17.5t-53.5 -50.5l-147 82q41 68 115 107t175 39q80 0 141.5 -26t96 -74.5t34.5 -112.5q0 -57 -24.5 -107.5t-94.5 -114.5l-132 -122h270z" />
    <glyph glyph-name="three" unicode="3" horiz-adv-x="603" 
d="M526.5 348.5q46.5 -53.5 46.5 -129.5q0 -62 -33.5 -115t-102 -85.5t-169.5 -32.5q-74 0 -146.5 18t-125.5 51l72 149q41 -28 92.5 -43t101.5 -15q51 0 81 19t30 54q0 68 -107 68h-83v125l125 135h-276v153h506v-124l-145 -156q87 -18 133.5 -71.5z" />
    <glyph glyph-name="four" unicode="4" horiz-adv-x="700" 
d="M694 134h-104v-134h-193v134h-370v129l314 437h205l-285 -409h142v119h187v-119h104v-157z" />
    <glyph glyph-name="five" unicode="5" horiz-adv-x="607" 
d="M513.5 385q70.5 -60 70.5 -160q0 -65 -33.5 -119.5t-102 -87t-169.5 -32.5q-74 0 -146.5 18t-124.5 51l71 149q42 -28 92.5 -43t101.5 -15t81.5 19.5t30.5 54.5t-30 53t-106 18h-190l35 409h446v-153h-282l-9 -102h47q147 0 217.5 -60z" />
    <glyph glyph-name="six" unicode="6" horiz-adv-x="649" 
d="M513 418.5q55 -27.5 87.5 -78t32.5 -115.5q0 -71 -36.5 -125.5t-99 -84t-139.5 -29.5q-150 0 -237 89t-87 256q0 120 46.5 206.5t130.5 131.5t195 45q60 0 114 -13t92 -38l-72 -142q-51 36 -129 36q-76 0 -123 -42t-54 -121q60 52 158 52q66 0 121 -27.5zM414.5 151
q26.5 24 26.5 65q0 40 -26.5 64t-69.5 24t-70 -24.5t-27 -64.5q0 -39 26.5 -63.5t71.5 -24.5q42 0 68.5 24z" />
    <glyph glyph-name="seven" unicode="7" horiz-adv-x="632" 
d="M603 700v-124l-247 -576h-216l236 543h-184v-108h-169v265h580z" />
    <glyph glyph-name="eight" unicode="8" horiz-adv-x="669" 
d="M612 300q26 -41 26 -94q0 -66 -38 -116t-107 -77t-159 -27t-159 27t-107 77t-38 116q0 53 26 94t74 69q-36 25 -55.5 61t-19.5 80q0 61 35 107.5t98.5 71.5t145.5 25t145.5 -25t98.5 -71.5t35 -107.5q0 -44 -19.5 -80t-55.5 -61q48 -28 74 -69zM274 555.5
q-23 -19.5 -23 -54.5q0 -34 22.5 -53.5t60.5 -19.5t61 19.5t23 53.5q0 35 -23 54.5t-61 19.5q-37 0 -60 -19.5zM410.5 148.5q28.5 23.5 28.5 63.5t-28.5 63.5t-76.5 23.5t-76.5 -23.5t-28.5 -63.5t28.5 -63.5t76.5 -23.5t76.5 23.5z" />
    <glyph glyph-name="nine" unicode="9" horiz-adv-x="649" 
d="M528 625q87 -89 87 -256q0 -120 -46.5 -206.5t-131 -131.5t-195.5 -45q-59 0 -113 13.5t-92 37.5l72 142q51 -36 129 -36q75 0 121.5 41.5t54.5 120.5q-60 -51 -157 -51q-66 0 -121 27.5t-87.5 78t-32.5 115.5q0 71 36.5 125.5t99 84t138.5 29.5q151 0 238 -89z
M374 420.5q27 24.5 27 64.5q0 39 -26.5 63.5t-71.5 24.5q-42 0 -68.5 -24t-26.5 -65q0 -40 26.5 -64t69.5 -24t70 24.5z" />
    <glyph glyph-name="colon" unicode=":" horiz-adv-x="283" 
d="M60 358q-33 32 -33 81q0 50 32.5 81t81.5 31q50 0 82 -31t32 -81q0 -49 -32.5 -81t-81.5 -32q-48 0 -81 32zM60 23q-33 32 -33 81q0 50 32.5 81t81.5 31q50 0 82 -31t32 -81q0 -49 -32.5 -81t-81.5 -32q-48 0 -81 32z" />
    <glyph glyph-name="semicolon" unicode=";" horiz-adv-x="283" 
d="M60 358q-33 32 -33 81q0 50 32.5 81t81.5 31q50 0 82 -31t32 -81q0 -49 -32.5 -81t-81.5 -32q-48 0 -81 32zM223 185q32 -31 32 -81q0 -23 -6 -46t-27 -69l-63 -146h-119l47 163q-28 13 -43.5 38.5t-15.5 59.5q0 50 32 81t82 31q49 0 81 -31z" />
    <glyph glyph-name="less" unicode="&#x3c;" horiz-adv-x="609" 
d="M551 463l-319 -113l319 -113v-146l-493 182v154l493 182v-146z" />
    <glyph glyph-name="equal" unicode="=" horiz-adv-x="609" 
d="M58 549h493v-145h-493v145zM58 296h493v-145h-493v145z" />
    <glyph glyph-name="greater" unicode="&#x3e;" horiz-adv-x="609" 
d="M551 427v-154l-493 -182v146l319 113l-319 113v146z" />
    <glyph glyph-name="question" unicode="?" horiz-adv-x="597" 
d="M234 337.5q22 32.5 64 71.5q29 27 43 45.5t14 39.5q0 29 -24.5 46.5t-63.5 17.5q-40 0 -72.5 -19t-52.5 -53l-149 80q41 70 116 109t181 39q119 0 191.5 -49.5t72.5 -138.5q0 -41 -14 -72.5t-33.5 -53t-50.5 -48.5q-34 -29 -50 -49.5t-16 -47.5h-178q0 50 22 82.5z
M220 21.5q-32 30.5 -32 74.5q0 45 31.5 74t81.5 29t82 -29t32 -74q0 -44 -32 -74.5t-82 -30.5q-49 0 -81 30.5z" />
    <glyph glyph-name="at" unicode="@" horiz-adv-x="1036" 
d="M772.5 655q108.5 -57 169 -156t60.5 -221q0 -90 -28.5 -154.5t-78 -98t-113.5 -33.5q-53 0 -91 22t-56 65q-49 -87 -162 -87q-59 0 -110 31.5t-81.5 88.5t-30.5 131t30 131t81 88t111 31q88 0 139 -57v49h163v-305q0 -32 12 -46t32 -14q63 0 63 155q0 95 -44.5 169
t-125.5 115.5t-187 41.5q-105 0 -186.5 -45t-126.5 -124.5t-45 -178.5q0 -101 44 -181t124.5 -124.5t185.5 -44.5q107 0 199 44l37 -107q-45 -22 -108.5 -35t-127.5 -13q-145 0 -255.5 60t-171 165t-60.5 236q0 130 61 234.5t172.5 164.5t257.5 60q139 0 247.5 -57z
M587.5 158q27.5 30 27.5 85q0 54 -27.5 84t-71.5 30t-71 -30t-27 -84t27 -84.5t71 -30.5t71.5 30z" />
    <glyph glyph-name="A" unicode="A" horiz-adv-x="786" 
d="M539 136h-296l-55 -136h-202l309 700h195l310 -700h-206zM481 282l-90 224l-90 -224h180z" />
    <glyph glyph-name="B" unicode="B" horiz-adv-x="769" 
d="M702 299.5q34 -44.5 34 -107.5q0 -92 -74 -142t-214 -50h-378v700h358q134 0 204 -49.5t70 -133.5q0 -50 -24.5 -89.5t-69.5 -62.5q60 -21 94 -65.5zM266 557v-135h136q100 0 100 68q0 67 -100 67h-136zM536 214q0 71 -104 71h-166v-142h166q104 0 104 71z" />
    <glyph glyph-name="C" unicode="C" horiz-adv-x="738" 
d="M221.5 32.5q-87.5 46.5 -137.5 129.5t-50 188t50 188t137.5 129.5t197.5 46.5q96 0 173 -34t128 -98l-126 -114q-68 82 -165 82q-57 0 -101.5 -25t-69 -70.5t-24.5 -104.5t24.5 -104.5t69 -70.5t101.5 -25q97 0 165 82l126 -114q-51 -64 -128 -98t-173 -34
q-110 0 -197.5 46.5z" />
    <glyph glyph-name="D" unicode="D" horiz-adv-x="826" 
d="M70 700h331q115 0 204 -43t138 -122t49 -185t-49 -185t-138 -122t-204 -43h-331v700zM393 158q90 0 144.5 51t54.5 141t-54.5 141t-144.5 51h-125v-384h125z" />
    <glyph glyph-name="E" unicode="E" horiz-adv-x="672" 
d="M632 153v-153h-562v700h549v-153h-353v-118h311v-148h-311v-128h366z" />
    <glyph glyph-name="F" unicode="F" horiz-adv-x="642" 
d="M268 547v-154h309v-153h-309v-240h-198v700h549v-153h-351z" />
    <glyph glyph-name="G" unicode="G" horiz-adv-x="770" 
d="M539 365h175v-290q-60 -43 -138 -66t-156 -23q-110 0 -198 46.5t-138 129.5t-50 188t50 188t139 129.5t201 46.5q98 0 176 -33t130 -95l-126 -114q-71 78 -170 78q-90 0 -145 -54.5t-55 -145.5q0 -58 25 -103.5t70 -71t103 -25.5q57 0 107 23v192z" />
    <glyph glyph-name="H" unicode="H" horiz-adv-x="806" 
d="M736 700v-700h-198v273h-270v-273h-198v700h198v-263h270v263h198z" />
    <glyph glyph-name="I" unicode="I" horiz-adv-x="339" 
d="M70 700h198v-700h-198v700z" />
    <glyph glyph-name="J" unicode="J" horiz-adv-x="557" 
d="M83 12.5q-63 26.5 -103 76.5l108 128q56 -73 121 -73q43 0 65.5 26t22.5 76v301h-242v153h438v-442q0 -136 -68.5 -204t-201.5 -68q-77 0 -140 26.5z" />
    <glyph glyph-name="K" unicode="K" horiz-adv-x="752" 
d="M340 254l-74 -79v-175h-196v700h196v-291l271 291h218l-286 -310l301 -390h-230z" />
    <glyph glyph-name="L" unicode="L" horiz-adv-x="610" 
d="M70 700h198v-543h334v-157h-532v700z" />
    <glyph glyph-name="M" unicode="M" horiz-adv-x="954" 
d="M702 0l-2 371l-180 -302h-88l-179 292v-361h-183v700h163l246 -404l240 404h163l2 -700h-182z" />
    <glyph glyph-name="N" unicode="N" horiz-adv-x="806" 
d="M736 700v-700h-163l-309 373v-373h-194v700h163l309 -373v373h194z" />
    <glyph glyph-name="O" unicode="O" horiz-adv-x="846" 
d="M223.5 33q-88.5 47 -139 130t-50.5 187t50.5 187t139 130t199.5 47t199.5 -47t139 -130t50.5 -187t-50.5 -187t-139 -130t-199.5 -47t-199.5 47zM519 175q43 25 68 70.5t25 104.5t-25 104.5t-68 70.5t-96 25t-96 -25t-68 -70.5t-25 -104.5t25 -104.5t68 -70.5t96 -25
t96 25z" />
    <glyph glyph-name="P" unicode="P" horiz-adv-x="737" 
d="M555 668.5q70 -31.5 108 -90t38 -137.5t-38 -137t-108 -89.5t-165 -31.5h-122v-183h-198v700h320q95 0 165 -31.5zM470 365.5q31 26.5 31 75.5t-31 76t-92 27h-110v-205h110q61 0 92 26.5z" />
    <glyph glyph-name="Q" unicode="Q" horiz-adv-x="846" 
d="M848 -81q-35 -43 -85.5 -65.5t-110.5 -22.5q-58 0 -105 15t-94.5 49.5t-106.5 96.5q-91 15 -162 65t-110.5 126t-39.5 167q0 104 50.5 187t139 130t199.5 47t199.5 -47t139 -130t50.5 -187q0 -118 -64.5 -208.5t-173.5 -129.5q20 -22 39.5 -31t42.5 -9q59 0 106 49z
M259 245.5q25 -45.5 68 -70.5t96 -25t96 25t68 70.5t25 104.5t-25 104.5t-68 70.5t-96 25t-96 -25t-68 -70.5t-25 -104.5t25 -104.5z" />
    <glyph glyph-name="R" unicode="R" horiz-adv-x="740" 
d="M376 186h-108v-186h-198v700h320q95 0 165 -31.5t108 -90t38 -137.5q0 -76 -35.5 -132.5t-101.5 -88.5l151 -220h-212zM470 517q-31 27 -92 27h-110v-205h110q61 0 92 26.5t31 75.5t-31 76z" />
    <glyph glyph-name="S" unicode="S" horiz-adv-x="647" 
d="M151 7q-80 21 -130 56l65 146q47 -31 109 -50t122 -19q114 0 114 57q0 30 -32.5 44.5t-104.5 30.5q-79 17 -132 36.5t-91 62.5t-38 116q0 64 35 115.5t104.5 81.5t170.5 30q69 0 136 -15.5t118 -45.5l-61 -147q-100 54 -194 54q-59 0 -86 -17.5t-27 -45.5t32 -42t103 -29
q80 -17 132.5 -36.5t91 -62t38.5 -115.5q0 -63 -35 -114t-105 -81.5t-170 -30.5q-85 0 -165 21z" />
    <glyph glyph-name="T" unicode="T" horiz-adv-x="635" 
d="M219 543h-215v157h627v-157h-214v-543h-198v543z" />
    <glyph glyph-name="U" unicode="U" horiz-adv-x="786" 
d="M150.5 71q-86.5 85 -86.5 241v388h198v-382q0 -168 133 -168q132 0 132 168v382h195v-388q0 -156 -86.5 -241t-242.5 -85t-242.5 85z" />
    <glyph glyph-name="V" unicode="V" horiz-adv-x="766" 
d="M780 700l-300 -700h-195l-299 700h214l190 -456l194 456h196z" />
    <glyph glyph-name="W" unicode="W" horiz-adv-x="1184" 
d="M1168 700l-227 -700h-212l-134 426l-140 -426h-212l-227 700h204l141 -447l148 447h182l141 -451l147 451h189z" />
    <glyph glyph-name="X" unicode="X" horiz-adv-x="737" 
d="M512 0l-145 217l-143 -217h-226l255 354l-244 346h223l140 -202l138 202h214l-244 -338l260 -362h-228z" />
    <glyph glyph-name="Y" unicode="Y" horiz-adv-x="693" 
d="M445 251v-251h-198v254l-267 446h209l166 -278l166 278h192z" />
    <glyph glyph-name="Z" unicode="Z" horiz-adv-x="679" 
d="M662 157v-157h-627v124l353 419h-344v157h603v-124l-353 -419h368z" />
    <glyph glyph-name="bracketleft" unicode="[" horiz-adv-x="389" 
d="M70 742h306v-145h-116v-646h116v-145h-306v936z" />
    <glyph glyph-name="backslash" unicode="\" horiz-adv-x="415" 
d="M283 -100l-330 942h169l330 -942h-169z" />
    <glyph glyph-name="bracketright" unicode="]" horiz-adv-x="389" 
d="M12 -194v145h116v646h-116v145h306v-936h-306z" />
    <glyph glyph-name="asciicircum" unicode="^" horiz-adv-x="610" 
d="M419 140l-114 274l-114 -274h-144l183 420h150l183 -420h-144z" />
    <glyph glyph-name="underscore" unicode="_" horiz-adv-x="500" 
d="M0 0h500v-104h-500v104z" />
    <glyph glyph-name="grave" unicode="`" horiz-adv-x="600" 
d="M74 759h190l134 -152h-136z" />
    <glyph glyph-name="a" unicode="a" horiz-adv-x="628" 
d="M498 489.5q71 -61.5 71 -188.5v-301h-177v70q-41 -79 -160 -79q-63 0 -109 22t-69.5 59.5t-23.5 85.5q0 77 59 119.5t182 42.5h108q-5 86 -115 86q-39 0 -79 -12.5t-68 -34.5l-64 129q45 30 109.5 46.5t129.5 16.5q135 0 206 -61.5zM343 127q25 16 36 47v47h-82
q-83 0 -83 -55q0 -25 19 -40t52 -15t58 16z" />
    <glyph glyph-name="b" unicode="b" horiz-adv-x="695" 
d="M536.5 517q60.5 -34 96 -97.5t35.5 -147.5t-35.5 -148t-96 -98.5t-134.5 -34.5q-107 0 -160 63v-54h-181v742h190v-247q55 56 151 56q74 0 134.5 -34zM444 176.5q32 34.5 32 95.5q0 60 -32 94t-82 34t-82 -34t-32 -94q0 -61 32 -95.5t82 -34.5t82 34.5z" />
    <glyph glyph-name="c" unicode="c" horiz-adv-x="603" 
d="M177 27q-71 36 -110.5 100t-39.5 145t39.5 144.5t110.5 99t161 35.5q92 0 159 -39.5t95 -109.5l-147 -75q-37 73 -108 73q-51 0 -84.5 -34t-33.5 -94q0 -61 33.5 -95.5t84.5 -34.5q71 0 108 73l147 -75q-28 -70 -95 -109.5t-159 -39.5q-90 0 -161 36z" />
    <glyph glyph-name="d" unicode="d" horiz-adv-x="698" 
d="M637 742v-742h-181v54q-53 -63 -159 -63q-74 0 -135 34.5t-96.5 98.5t-35.5 148t35.5 147.5t96.5 97.5t135 34q97 0 150 -56v247h190zM418 176.5q32 34.5 32 95.5q0 60 -31.5 94t-81.5 34t-82 -34t-32 -94q0 -61 32 -95.5t82 -34.5q49 0 81 34.5z" />
    <glyph glyph-name="e" unicode="e" horiz-adv-x="642" 
d="M612 223h-394q12 -42 46.5 -64.5t86.5 -22.5q39 0 67.5 11t57.5 36l100 -104q-79 -88 -231 -88q-95 0 -167 36t-111.5 100t-39.5 145q0 80 38.5 143.5t106.5 99.5t153 36q81 0 147 -33.5t104.5 -97t38.5 -150.5q0 -2 -3 -47zM252.5 391q-29.5 -25 -37.5 -68h222
q-8 43 -37.5 68t-73.5 25t-73.5 -25z" />
    <glyph glyph-name="f" unicode="f" horiz-adv-x="406" 
d="M268 522h129v-142h-124v-380h-190v380h-79v142h79v14q0 99 59.5 157t166.5 58q36 0 70 -7t56 -21l-47 -134q-28 16 -57 16q-30 0 -46.5 -18t-16.5 -53v-12z" />
    <glyph glyph-name="g" unicode="g" horiz-adv-x="705" 
d="M644 542v-443q0 -151 -82 -226.5t-236 -75.5q-80 0 -150 18t-119 53l69 133q33 -27 83.5 -42.5t99.5 -15.5q75 0 110 33t35 98v18q-55 -64 -161 -64q-72 0 -133 32.5t-97 92t-36 137.5q0 77 36 136.5t97 92t133 32.5q116 0 170 -75v66h181zM422.5 210q33.5 31 33.5 80
t-33 79.5t-85 30.5t-85.5 -30.5t-33.5 -79.5t34 -80t85 -31t84.5 31z" />
    <glyph glyph-name="h" unicode="h" horiz-adv-x="696" 
d="M576.5 491q61.5 -60 61.5 -181v-310h-190v279q0 111 -89 111q-49 0 -78.5 -32t-29.5 -96v-262h-190v742h190v-250q31 29 73 44t90 15q101 0 162.5 -60z" />
    <glyph glyph-name="i" unicode="i" horiz-adv-x="313" 
d="M61 542h190v-542h-190v542zM72 631q-32 29 -32 72t32 72t84 29t84 -27.5t32 -70.5q0 -45 -32 -74.5t-84 -29.5t-84 29z" />
    <glyph glyph-name="j" unicode="j" horiz-adv-x="320" 
d="M-94 -175l48 135q26 -16 59 -16q26 0 41 18t15 53v527h190v-528q0 -100 -58.5 -158.5t-162.5 -58.5q-83 0 -132 28zM80 631q-32 29 -32 72t32 72t84 29t84 -27.5t32 -70.5q0 -45 -32 -74.5t-84 -29.5t-84 29z" />
    <glyph glyph-name="k" unicode="k" horiz-adv-x="686" 
d="M307 190l-56 -57v-133h-190v742h190v-389l194 189h225l-225 -232l244 -310h-230z" />
    <glyph glyph-name="l" unicode="l" horiz-adv-x="313" 
d="M61 742h190v-742h-190v742z" />
    <glyph glyph-name="m" unicode="m" horiz-adv-x="1045" 
d="M926.5 491q59.5 -60 59.5 -181v-310h-190v279q0 57 -21.5 84t-60.5 27q-43 0 -69 -30t-26 -91v-269h-190v279q0 111 -82 111q-44 0 -70 -30t-26 -91v-269h-190v542h181v-57q30 33 71.5 49.5t90.5 16.5q57 0 102 -21t73 -64q32 41 81 63t107 22q100 0 159.5 -60z" />
    <glyph glyph-name="n" unicode="n" horiz-adv-x="696" 
d="M576.5 491q61.5 -60 61.5 -181v-310h-190v279q0 111 -89 111q-49 0 -78.5 -32t-29.5 -96v-262h-190v542h181v-59q32 33 76 50.5t96 17.5q101 0 162.5 -60z" />
    <glyph glyph-name="o" unicode="o" horiz-adv-x="666" 
d="M176 27q-70 36 -109.5 100t-39.5 145q0 80 39.5 144t109 99.5t157.5 35.5t158 -35.5t109 -99t39 -144.5t-39 -145t-109 -100t-158 -36q-87 0 -157 36zM415 176.5q32 34.5 32 95.5q0 60 -32 94t-82 34t-82 -34t-32 -94q0 -61 32 -95.5t82 -34.5t82 34.5z" />
    <glyph glyph-name="p" unicode="p" horiz-adv-x="695" 
d="M536.5 516.5q60.5 -34.5 96 -98t35.5 -147.5t-35.5 -147.5t-96 -98t-134.5 -34.5q-95 0 -151 57v-242h-190v736h181v-54q53 63 160 63q74 0 134.5 -34.5zM444 176.5q32 34.5 32 94.5t-32 94.5t-82 34.5t-82 -34.5t-32 -94.5t32 -94.5t82 -34.5t82 34.5z" />
    <glyph glyph-name="q" unicode="q" horiz-adv-x="695" 
d="M634 542v-736h-190v242q-55 -57 -151 -57q-74 0 -134.5 34.5t-96 98t-35.5 147.5t35.5 147.5t96 98t134.5 34.5q107 0 160 -63v54h181zM415 176.5q32 34.5 32 94.5t-32 94.5t-82 34.5t-82 -34.5t-32 -94.5t32 -94.5t82 -34.5t82 34.5z" />
    <glyph glyph-name="r" unicode="r" horiz-adv-x="443" 
d="M317.5 532.5q46.5 18.5 106.5 18.5v-171q-26 3 -43 3q-61 0 -95.5 -33t-34.5 -101v-249h-190v542h181v-65q29 37 75.5 55.5z" />
    <glyph glyph-name="s" unicode="s" horiz-adv-x="547" 
d="M124 6.5q-66 15.5 -106 40.5l57 130q37 -23 88 -36.5t101 -13.5q46 0 65.5 9.5t19.5 27.5t-23.5 25.5t-74.5 14.5q-65 8 -110.5 21t-78.5 48t-33 98q0 52 31 92.5t90.5 64t142.5 23.5q59 0 117 -12t97 -34l-57 -129q-72 40 -156 40q-45 0 -66 -10.5t-21 -27.5
q0 -19 23 -26.5t76 -15.5q67 -10 111 -23t76.5 -47.5t32.5 -96.5q0 -51 -31 -91.5t-91.5 -63.5t-145.5 -23q-68 0 -134 15.5z" />
    <glyph glyph-name="t" unicode="t" horiz-adv-x="447" 
d="M435 22q-24 -15 -58.5 -23t-73.5 -8q-106 0 -163 52t-57 155v182h-79v142h79v141h190v-141h124v-142h-124v-180q0 -29 15.5 -45.5t41.5 -16.5q33 0 58 17z" />
    <glyph glyph-name="u" unicode="u" horiz-adv-x="692" 
d="M631 542v-542h-181v58q-30 -33 -72 -50t-89 -17q-105 0 -167.5 62t-62.5 186v303h190v-272q0 -61 23 -89t67 -28q45 0 73.5 31.5t28.5 96.5v261h190z" />
    <glyph glyph-name="v" unicode="v" horiz-adv-x="620" 
d="M632 542l-224 -542h-196l-223 542h195l130 -331l137 331h181z" />
    <glyph glyph-name="w" unicode="w" horiz-adv-x="956" 
d="M959 542l-193 -542h-184l-102 295l-106 -295h-184l-193 542h180l111 -328l115 328h162l112 -331l115 331h167z" />
    <glyph glyph-name="x" unicode="x" horiz-adv-x="619" 
d="M405 0l-97 142l-104 -142h-206l206 271l-200 271h214l96 -137l100 137h201l-200 -264l207 -278h-217z" />
    <glyph glyph-name="y" unicode="y" horiz-adv-x="620" 
d="M632 542l-234 -564q-41 -100 -100 -140.5t-144 -40.5q-43 0 -86.5 13.5t-70.5 35.5l66 133q16 -15 38.5 -23.5t45.5 -8.5q27 0 44.5 11t29.5 35l-232 549h195l133 -331l134 331h181z" />
    <glyph glyph-name="z" unicode="z" horiz-adv-x="556" 
d="M533 142v-142h-500v112l251 289h-244v141h483v-111l-251 -289h261z" />
    <glyph glyph-name="braceleft" unicode="{" horiz-adv-x="414" 
d="M297.5 313.5q-17.5 -28.5 -57.5 -39.5q40 -11 57.5 -39.5t17.5 -83.5v-128q0 -35 18 -53.5t54 -18.5h14v-145h-65q-104 0 -157.5 50.5t-53.5 144.5v155q0 23 -11.5 34t-31.5 11h-34v146h34q20 0 31.5 11t11.5 34v155q0 94 53.5 144.5t157.5 50.5h65v-145h-14
q-36 0 -54 -18.5t-18 -53.5v-128q0 -55 -17.5 -83.5z" />
    <glyph glyph-name="bar" unicode="|" horiz-adv-x="314" 
d="M70 742h174v-936h-174v936z" />
    <glyph glyph-name="braceright" unicode="}" horiz-adv-x="414" 
d="M365 347v-146h-33q-20 0 -31.5 -11t-11.5 -34v-155q0 -94 -53.5 -144.5t-157.5 -50.5h-66v145h15q36 0 54 18.5t18 53.5v128q0 55 17.5 83.5t57.5 39.5q-40 11 -57.5 39.5t-17.5 83.5v128q0 35 -18 53.5t-54 18.5h-15v145h66q104 0 157.5 -50.5t53.5 -144.5v-155
q0 -23 11.5 -34t31.5 -11h33z" />
    <glyph glyph-name="asciitilde" unicode="~" horiz-adv-x="609" 
d="M342.5 256q-26.5 13 -60.5 37q-22 16 -35.5 23.5t-27.5 7.5q-25 0 -40.5 -18.5t-16.5 -51.5h-117q1 97 45 151t115 54q36 0 62.5 -13t60.5 -37q22 -16 35.5 -23.5t27.5 -7.5q25 0 39.5 19t16.5 52h117q-1 -98 -45 -152t-115 -54q-35 0 -61.5 13z" />
    <glyph glyph-name="uni00A0" unicode="&#xa0;" horiz-adv-x="291" 
 />
    <glyph glyph-name="exclamdown" unicode="&#xa1;" horiz-adv-x="301" 
d="M232 520.5q32 -30.5 32 -74.5t-31.5 -73.5t-81.5 -29.5t-82 29.5t-32 73.5t32 74.5t82 30.5q49 0 81 -30.5zM264 -154h-226l37 441h151z" />
    <glyph glyph-name="cent" unicode="&#xa2;" horiz-adv-x="603" 
d="M445 215l147 -75q-24 -61 -77 -98.5t-127 -47.5v-114h-120v117q-109 20 -175 94.5t-66 180.5q0 70 30 127t84.5 95t126.5 51v117h120v-114q74 -10 127 -47.5t77 -98.5l-147 -75q-37 73 -108 73q-51 0 -84.5 -34t-33.5 -94q0 -61 33.5 -95.5t84.5 -34.5q71 0 108 73z" />
    <glyph glyph-name="sterling" unicode="&#xa3;" horiz-adv-x="681" 
d="M323 153h325v-153h-618v153h95v140h-95v114h95v6q0 143 89.5 222t251.5 79q123 0 204 -45l-58 -152q-56 33 -136 33q-74 0 -113.5 -33.5t-39.5 -99.5v-10h226v-114h-226v-140z" />
    <glyph glyph-name="currency" unicode="&#xa4;" horiz-adv-x="700" 
d="M576 198l102 -102l-106 -107l-105 104q-56 -28 -118 -28q-63 0 -117 28l-105 -104l-105 107l101 102q-32 59 -32 124t29 118l-98 99l105 107l99 -98q57 31 123 31q67 0 124 -31l99 98l106 -107l-99 -99q29 -53 29 -118t-32 -124zM428 245.5q33 31.5 33 76.5t-33 77
t-79 32t-78 -32t-32 -77t32 -76.5t78 -31.5t79 31.5z" />
    <glyph glyph-name="yen" unicode="&#xa5;" horiz-adv-x="753" 
d="M514 311h135v-97h-174v-41h174v-97h-174v-76h-198v76h-174v97h174v41h-174v97h137l-260 389h211l193 -286l194 286h195z" />
    <glyph glyph-name="brokenbar" unicode="&#xa6;" horiz-adv-x="314" 
d="M70 742h174v-350h-174v350zM70 156h174v-350h-174v350z" />
    <glyph glyph-name="section" unicode="&#xa7;" horiz-adv-x="535" 
d="M494 237q-15 -31 -44 -55q40 -40 40 -105q0 -54 -28 -96t-82 -66t-130 -24q-64 0 -128.5 16t-102.5 41l53 129q36 -24 86 -38.5t92 -14.5q36 0 54.5 12.5t18.5 34.5q0 24 -25 35t-79 21q-61 13 -99.5 26.5t-67 46.5t-28.5 90q0 81 59 129q-39 37 -39 103q0 84 68 135.5
t198 51.5q50 0 111 -12t97 -34l-53 -129q-73 42 -165 42q-89 0 -89 -47q0 -20 23 -30t73 -20q61 -13 101.5 -28.5t70.5 -51t30 -96.5q0 -35 -15 -66zM203.5 275q15.5 -11 36 -16.5t69.5 -16.5q17 9 26.5 23.5t9.5 31.5q0 18 -15.5 29t-36 16.5t-69.5 16.5q-36 -21 -36 -55
q0 -18 15.5 -29z" />
    <glyph glyph-name="dieresis" unicode="&#xa8;" horiz-adv-x="600" 
d="M137.5 627.5q-22.5 21.5 -22.5 56.5t22.5 57t56.5 22t56.5 -22t22.5 -57t-22.5 -56.5t-56.5 -21.5t-56.5 21.5zM349.5 627.5q-22.5 21.5 -22.5 56.5t22.5 57t56.5 22t56.5 -22t22.5 -57t-22.5 -56.5t-56.5 -21.5t-56.5 21.5z" />
    <glyph glyph-name="copyright" unicode="&#xa9;" horiz-adv-x="775" 
d="M207.5 44q-80.5 47 -127 128t-46.5 178t46.5 178t127.5 128t180 47t179.5 -46t126.5 -126.5t46 -178.5t-47 -179.5t-128 -128.5t-179 -47t-178.5 47zM525.5 110q62.5 37 98 100.5t35.5 141.5t-34.5 140.5t-96.5 98.5t-140 36t-140.5 -36.5t-97.5 -100t-35 -140.5
t35 -140.5t97 -100t139 -36.5t139.5 37zM290 175.5q-49 25.5 -76.5 71t-27.5 103.5t27.5 103.5t76.5 71t111 25.5q63 0 109 -28t66 -76l-108 -59q-23 44 -68 44q-31 0 -52.5 -21.5t-21.5 -59.5t21.5 -59.5t52.5 -21.5q45 0 68 44l108 -59q-20 -48 -66 -76t-109 -28
q-62 0 -111 25.5z" />
    <glyph glyph-name="ordfeminine" unicode="&#xaa;" horiz-adv-x="417" 
d="M373 600v-178h-120v42q-26 -47 -102 -47q-61 0 -94.5 28t-33.5 72q0 96 153 96h67q-5 47 -72 47q-23 0 -48.5 -7.5t-43.5 -20.5l-42 80q29 18 71 28.5t83 10.5q182 0 182 -151zM221.5 500.5q14.5 8.5 21.5 24.5v26h-47q-51 0 -51 -29q0 -14 11.5 -22t31.5 -8
q19 0 33.5 8.5z" />
    <glyph glyph-name="guillemotleft" unicode="&#xab;" horiz-adv-x="605" 
d="M31 272l139 197h169l-135 -197l135 -198h-169zM276 272l139 197h169l-135 -197l135 -198h-169z" />
    <glyph glyph-name="logicalnot" unicode="&#xac;" horiz-adv-x="609" 
d="M551 105h-154v173h-339v145h493v-318z" />
    <glyph glyph-name="uni00AD" unicode="&#xad;" horiz-adv-x="388" 
d="M48 358h292v-146h-292v146z" />
    <glyph glyph-name="registered" unicode="&#xae;" horiz-adv-x="775" 
d="M567.5 657q80.5 -46 126.5 -126.5t46 -178.5t-47 -179.5t-128 -128.5t-179 -47t-178.5 47t-127 128t-46.5 178t46.5 178t127.5 128t180 47t179.5 -46zM641 248q18 49 18 104q0 78 -34.5 140.5t-96.5 98.5t-140 36t-140.5 -36.5t-97.5 -100t-35 -140.5t35 -140.5t97 -100
t139 -36.5q60 0 111.5 22.5t88.5 63.5h-121l-67 104h-47v-104h-123v382h174q80 0 126 -37.5t46 -101.5q0 -82 -66 -117l81 -124q34 38 52 87zM394 351q27 0 42.5 13.5t15.5 37.5t-15 37.5t-43 13.5h-43v-102h43z" />
    <glyph glyph-name="macron" unicode="&#xaf;" horiz-adv-x="600" 
d="M103 734h394v-102h-394v102z" />
    <glyph glyph-name="degree" unicode="&#xb0;" horiz-adv-x="417" 
d="M117.5 381.5q-41.5 23.5 -66 63.5t-24.5 89t24.5 89t66 63.5t90.5 23.5q50 0 91.5 -23.5t66 -63.5t24.5 -89t-24.5 -89t-66 -63.5t-91.5 -23.5q-49 0 -90.5 23.5zM269 472.5q24 24.5 24 61.5q0 36 -24 60.5t-61 24.5q-36 0 -60 -24.5t-24 -60.5q0 -37 24 -61.5t60 -24.5
q37 0 61 24.5z" />
    <glyph glyph-name="plusminus" unicode="&#xb1;" horiz-adv-x="609" 
d="M551 518v-139h-169v-158h-154v158h-170v139h170v158h154v-158h169zM58 145h493v-145h-493v145z" />
    <glyph glyph-name="uni00B2" unicode="&#xb2;" horiz-adv-x="430" 
d="M395 426v-99h-357v79l166 143q25 21 34 35.5t9 27.5q0 17 -14 27.5t-43 10.5q-27 0 -47.5 -10.5t-32.5 -30.5l-97 52q24 42 72 66t117 24q81 0 130 -35.5t49 -93.5q0 -32 -17 -61t-63 -70l-76 -65h170z" />
    <glyph glyph-name="uni00B3" unicode="&#xb3;" horiz-adv-x="430" 
d="M376 536q30 -32 30 -78q0 -37 -22 -69t-68 -51.5t-114 -19.5q-55 0 -106 12t-82 33l45 94q30 -18 67.5 -28t73.5 -10q72 0 72 39q0 36 -64 36h-65v79l78 72h-187v97h348v-79l-92 -85q56 -10 86 -42z" />
    <glyph glyph-name="acute" unicode="&#xb4;" horiz-adv-x="600" 
d="M336 759h190l-188 -152h-136z" />
    <glyph glyph-name="uni00B5" unicode="&#xb5;" horiz-adv-x="695" 
d="M634 542v-542h-168v60q-23 -36 -56.5 -52.5t-71.5 -16.5q-51 0 -87 24v-209h-190v736h190v-272q0 -117 91 -117q45 0 73.5 31.5t28.5 96.5v261h190z" />
    <glyph glyph-name="paragraph" unicode="&#xb6;" horiz-adv-x="707" 
d="M228 347q-61 2 -110.5 26.5t-78 68.5t-28.5 102q0 60 31 105t87.5 69t131.5 24h376v-842h-154v709h-101v-709h-154v447z" />
    <glyph glyph-name="periodcentered" unicode="&#xb7;" horiz-adv-x="323" 
d="M79 203.5q-32 31.5 -32 82.5t32 82t82 31q51 0 82.5 -31t31.5 -82t-31.5 -82.5t-82.5 -31.5q-50 0 -82 31.5z" />
    <glyph glyph-name="cedilla" unicode="&#xb8;" horiz-adv-x="600" 
d="M211.5 -230q-26.5 6 -43.5 15l26 75q30 -14 62 -14q50 0 50 28q0 25 -45 25h-37l26 110h99l-14 -60q44 -5 65 -27.5t21 -53.5q0 -48 -43 -76t-115 -28q-25 0 -51.5 6z" />
    <glyph glyph-name="uni00B9" unicode="&#xb9;" horiz-adv-x="430" 
d="M382 424v-97h-313v97h95v221h-86v97h222v-318h82z" />
    <glyph glyph-name="ordmasculine" unicode="&#xba;" horiz-adv-x="432" 
d="M115.5 438.5q-44.5 21.5 -70 59.5t-25.5 86t25.5 86t70 59.5t100.5 21.5q57 0 101.5 -21.5t69.5 -59.5t25 -86t-25 -86t-69.5 -59.5t-101.5 -21.5q-56 0 -100.5 21.5zM265 532q19 19 19 52q0 34 -19 52.5t-49 18.5t-49 -18.5t-19 -52.5q0 -33 19 -52t49 -19t49 19z" />
    <glyph glyph-name="guillemotright" unicode="&#xbb;" horiz-adv-x="605" 
d="M20 74l135 198l-135 197h169l140 -197l-140 -198h-169zM265 74l135 198l-135 197h169l140 -197l-140 -198h-169z" />
    <glyph glyph-name="onequarter" unicode="&#xbc;" horiz-adv-x="1050" 
d="M382 382v-97h-313v97h95v221h-86v97h222v-318h82zM693 700h143l-478 -700h-143zM1035 76h-58v-76h-129v76h-222v82l182 257h142l-171 -240h83v63h115v-63h58v-99z" />
    <glyph glyph-name="onehalf" unicode="&#xbd;" horiz-adv-x="1050" 
d="M382 382v-97h-313v97h95v221h-86v97h222v-318h82zM693 700h143l-478 -700h-143zM1015 99v-99h-357v79l166 143q25 21 34 35.5t9 27.5q0 17 -14 27.5t-43 10.5q-27 0 -47.5 -10.5t-32.5 -30.5l-97 52q24 42 72 66t117 24q81 0 130 -35.5t49 -93.5q0 -32 -17 -61t-63 -70
l-76 -65h170z" />
    <glyph glyph-name="threequarters" unicode="&#xbe;" horiz-adv-x="1050" 
d="M376 494q30 -32 30 -78q0 -37 -22 -69t-68 -51.5t-114 -19.5q-55 0 -106 12t-82 33l45 94q30 -18 67.5 -28t73.5 -10q72 0 72 39q0 36 -64 36h-65v79l78 72h-187v97h348v-79l-92 -85q56 -10 86 -42zM693 700h143l-478 -700h-143zM1035 76h-58v-76h-129v76h-222v82
l182 257h142l-171 -240h83v63h115v-63h58v-99z" />
    <glyph glyph-name="questiondown" unicode="&#xbf;" horiz-adv-x="597" 
d="M214 372.5q-32 29.5 -32 73.5t32 74.5t82 30.5q49 0 81 -30.5t32 -74.5t-31.5 -73.5t-81.5 -29.5t-82 29.5zM115.5 -118q-72.5 49 -72.5 137q0 41 14 72t33.5 52t51.5 49q34 30 49.5 49.5t15.5 45.5h178q0 -48 -22 -80.5t-64 -71.5q-29 -27 -43 -45.5t-14 -39.5
q0 -27 24.5 -44t63.5 -17q40 0 72.5 19t52.5 52l149 -79q-41 -70 -116 -109t-181 -39q-119 0 -191.5 49z" />
    <glyph glyph-name="Agrave" unicode="&#xc0;" horiz-adv-x="786" 
d="M539 136h-296l-55 -136h-202l309 700h195l310 -700h-206zM481 282l-90 224l-90 -224h180zM167 909h190l134 -152h-136z" />
    <glyph glyph-name="Aacute" unicode="&#xc1;" horiz-adv-x="786" 
d="M539 136h-296l-55 -136h-202l309 700h195l310 -700h-206zM481 282l-90 224l-90 -224h180zM429 909h190l-188 -152h-136z" />
    <glyph glyph-name="Acircumflex" unicode="&#xc2;" horiz-adv-x="786" 
d="M539 136h-296l-55 -136h-202l309 700h195l310 -700h-206zM481 282l-90 224l-90 -224h180zM479 757l-86 76l-86 -76h-126l130 152h164l130 -152h-126z" />
    <glyph glyph-name="Atilde" unicode="&#xc3;" horiz-adv-x="786" 
d="M539 136h-296l-55 -136h-202l309 700h195l310 -700h-206zM481 282l-90 224l-90 -224h180zM422.5 760.5q-21.5 10.5 -47.5 28.5q-19 13 -28.5 18t-19.5 5q-20 0 -32 -14t-14 -39h-93q2 73 36 116t91 43q27 0 48 -10t48 -28q19 -13 28.5 -18t19.5 -5q20 0 32 13.5t14 36.5
h93q-2 -71 -36 -114t-91 -43q-27 0 -48.5 10.5z" />
    <glyph glyph-name="Adieresis" unicode="&#xc4;" horiz-adv-x="786" 
d="M539 136h-296l-55 -136h-202l309 700h195l310 -700h-206zM481 282l-90 224l-90 -224h180zM230.5 777.5q-22.5 21.5 -22.5 56.5t22.5 57t56.5 22t56.5 -22t22.5 -57t-22.5 -56.5t-56.5 -21.5t-56.5 21.5zM442.5 777.5q-22.5 21.5 -22.5 56.5t22.5 57t56.5 22t56.5 -22
t22.5 -57t-22.5 -56.5t-56.5 -21.5t-56.5 21.5z" />
    <glyph glyph-name="Aring" unicode="&#xc5;" horiz-adv-x="786" 
d="M539 136h-296l-55 -136h-202l309 700h195l310 -700h-206zM481 282l-90 224l-90 -224h180zM299 786q-38 37 -38 90q0 54 38 91t94 37q36 0 66.5 -17t48 -46.5t17.5 -64.5q0 -53 -38.5 -90t-93.5 -37q-56 0 -94 37zM433.5 835q16.5 16 16.5 41t-16.5 41.5t-40.5 16.5
t-40.5 -16.5t-16.5 -41.5t16.5 -41t40.5 -16t40.5 16z" />
    <glyph glyph-name="AE" unicode="&#xc6;" horiz-adv-x="1099" 
d="M1059 153v-153h-562v136h-238l-71 -136h-202l382 700h678v-153h-353v-118h311v-148h-311v-128h366zM497 282v265h-23l-138 -265h161z" />
    <glyph glyph-name="Ccedilla" unicode="&#xc7;" horiz-adv-x="738" 
d="M221.5 32.5q-87.5 46.5 -137.5 129.5t-50 188t50 188t137.5 129.5t197.5 46.5q96 0 173 -34t128 -98l-126 -114q-68 82 -165 82q-57 0 -101.5 -25t-69 -70.5t-24.5 -104.5t24.5 -104.5t69 -70.5t101.5 -25q97 0 165 82l126 -114q-51 -64 -128 -98t-173 -34
q-110 0 -197.5 46.5zM306.5 -230q-26.5 6 -43.5 15l26 75q30 -14 62 -14q50 0 50 28q0 25 -45 25h-37l26 110h99l-14 -60q44 -5 65 -27.5t21 -53.5q0 -48 -43 -76t-115 -28q-25 0 -51.5 6z" />
    <glyph glyph-name="Egrave" unicode="&#xc8;" horiz-adv-x="672" 
d="M632 153v-153h-562v700h549v-153h-353v-118h311v-148h-311v-128h366zM119 909h190l134 -152h-136z" />
    <glyph glyph-name="Eacute" unicode="&#xc9;" horiz-adv-x="672" 
d="M632 153v-153h-562v700h549v-153h-353v-118h311v-148h-311v-128h366zM381 909h190l-188 -152h-136z" />
    <glyph glyph-name="Ecircumflex" unicode="&#xca;" horiz-adv-x="672" 
d="M632 153v-153h-562v700h549v-153h-353v-118h311v-148h-311v-128h366zM431 757l-86 76l-86 -76h-126l130 152h164l130 -152h-126z" />
    <glyph glyph-name="Edieresis" unicode="&#xcb;" horiz-adv-x="672" 
d="M632 153v-153h-562v700h549v-153h-353v-118h311v-148h-311v-128h366zM182.5 777.5q-22.5 21.5 -22.5 56.5t22.5 57t56.5 22t56.5 -22t22.5 -57t-22.5 -56.5t-56.5 -21.5t-56.5 21.5zM394.5 777.5q-22.5 21.5 -22.5 56.5t22.5 57t56.5 22t56.5 -22t22.5 -57t-22.5 -56.5
t-56.5 -21.5t-56.5 21.5z" />
    <glyph glyph-name="Igrave" unicode="&#xcc;" horiz-adv-x="339" 
d="M70 700h198v-700h-198v700zM-57 909h190l134 -152h-136z" />
    <glyph glyph-name="Iacute" unicode="&#xcd;" horiz-adv-x="339" 
d="M70 700h198v-700h-198v700zM205 909h190l-188 -152h-136z" />
    <glyph glyph-name="Icircumflex" unicode="&#xce;" horiz-adv-x="339" 
d="M70 700h198v-700h-198v700zM255 757l-86 76l-86 -76h-126l130 152h164l130 -152h-126z" />
    <glyph glyph-name="Idieresis" unicode="&#xcf;" horiz-adv-x="339" 
d="M70 700h198v-700h-198v700zM6.5 777.5q-22.5 21.5 -22.5 56.5t22.5 57t56.5 22t56.5 -22t22.5 -57t-22.5 -56.5t-56.5 -21.5t-56.5 21.5zM218.5 777.5q-22.5 21.5 -22.5 56.5t22.5 57t56.5 22t56.5 -22t22.5 -57t-22.5 -56.5t-56.5 -21.5t-56.5 21.5z" />
    <glyph glyph-name="Eth" unicode="&#xd0;" horiz-adv-x="843" 
d="M87 700h331q115 0 204 -43t138 -122t49 -185t-49 -185t-138 -122t-204 -43h-331v700zM410 158q90 0 144.5 51t54.5 141t-54.5 141t-144.5 51h-125v-384h125zM-3 416h450v-122h-450v122z" />
    <glyph glyph-name="Ntilde" unicode="&#xd1;" horiz-adv-x="806" 
d="M736 700v-700h-163l-309 373v-373h-194v700h163l309 -373v373h194zM432.5 760.5q-21.5 10.5 -47.5 28.5q-19 13 -28.5 18t-19.5 5q-20 0 -32 -14t-14 -39h-93q2 73 36 116t91 43q27 0 48 -10t48 -28q19 -13 28.5 -18t19.5 -5q20 0 32 13.5t14 36.5h93q-2 -71 -36 -114
t-91 -43q-27 0 -48.5 10.5z" />
    <glyph glyph-name="Ograve" unicode="&#xd2;" horiz-adv-x="846" 
d="M223.5 33q-88.5 47 -139 130t-50.5 187t50.5 187t139 130t199.5 47t199.5 -47t139 -130t50.5 -187t-50.5 -187t-139 -130t-199.5 -47t-199.5 47zM519 175q43 25 68 70.5t25 104.5t-25 104.5t-68 70.5t-96 25t-96 -25t-68 -70.5t-25 -104.5t25 -104.5t68 -70.5t96 -25
t96 25zM197 909h190l134 -152h-136z" />
    <glyph glyph-name="Oacute" unicode="&#xd3;" horiz-adv-x="846" 
d="M223.5 33q-88.5 47 -139 130t-50.5 187t50.5 187t139 130t199.5 47t199.5 -47t139 -130t50.5 -187t-50.5 -187t-139 -130t-199.5 -47t-199.5 47zM519 175q43 25 68 70.5t25 104.5t-25 104.5t-68 70.5t-96 25t-96 -25t-68 -70.5t-25 -104.5t25 -104.5t68 -70.5t96 -25
t96 25zM459 909h190l-188 -152h-136z" />
    <glyph glyph-name="Ocircumflex" unicode="&#xd4;" horiz-adv-x="846" 
d="M223.5 33q-88.5 47 -139 130t-50.5 187t50.5 187t139 130t199.5 47t199.5 -47t139 -130t50.5 -187t-50.5 -187t-139 -130t-199.5 -47t-199.5 47zM519 175q43 25 68 70.5t25 104.5t-25 104.5t-68 70.5t-96 25t-96 -25t-68 -70.5t-25 -104.5t25 -104.5t68 -70.5t96 -25
t96 25zM509 757l-86 76l-86 -76h-126l130 152h164l130 -152h-126z" />
    <glyph glyph-name="Otilde" unicode="&#xd5;" horiz-adv-x="846" 
d="M223.5 33q-88.5 47 -139 130t-50.5 187t50.5 187t139 130t199.5 47t199.5 -47t139 -130t50.5 -187t-50.5 -187t-139 -130t-199.5 -47t-199.5 47zM519 175q43 25 68 70.5t25 104.5t-25 104.5t-68 70.5t-96 25t-96 -25t-68 -70.5t-25 -104.5t25 -104.5t68 -70.5t96 -25
t96 25zM452.5 760.5q-21.5 10.5 -47.5 28.5q-19 13 -28.5 18t-19.5 5q-20 0 -32 -14t-14 -39h-93q2 73 36 116t91 43q27 0 48 -10t48 -28q19 -13 28.5 -18t19.5 -5q20 0 32 13.5t14 36.5h93q-2 -71 -36 -114t-91 -43q-27 0 -48.5 10.5z" />
    <glyph glyph-name="Odieresis" unicode="&#xd6;" horiz-adv-x="846" 
d="M223.5 33q-88.5 47 -139 130t-50.5 187t50.5 187t139 130t199.5 47t199.5 -47t139 -130t50.5 -187t-50.5 -187t-139 -130t-199.5 -47t-199.5 47zM519 175q43 25 68 70.5t25 104.5t-25 104.5t-68 70.5t-96 25t-96 -25t-68 -70.5t-25 -104.5t25 -104.5t68 -70.5t96 -25
t96 25zM260.5 777.5q-22.5 21.5 -22.5 56.5t22.5 57t56.5 22t56.5 -22t22.5 -57t-22.5 -56.5t-56.5 -21.5t-56.5 21.5zM472.5 777.5q-22.5 21.5 -22.5 56.5t22.5 57t56.5 22t56.5 -22t22.5 -57t-22.5 -56.5t-56.5 -21.5t-56.5 21.5z" />
    <glyph glyph-name="multiply" unicode="&#xd7;" horiz-adv-x="609" 
d="M407 350l123 -123l-102 -103l-123 123l-123 -123l-102 103l123 123l-123 123l102 103l123 -123l123 123l102 -103z" />
    <glyph glyph-name="Oslash" unicode="&#xd8;" horiz-adv-x="846" 
d="M223.5 33q-88.5 47 -139 130t-50.5 187t50.5 187t139 130t199.5 47t199.5 -47t139 -130t50.5 -187t-50.5 -187t-139 -130t-199.5 -47t-199.5 47zM519 175q43 25 68 70.5t25 104.5t-25 104.5t-68 70.5t-96 25t-96 -25t-68 -70.5t-25 -104.5t25 -104.5t68 -70.5t96 -25
t96 25zM663 770h117l-597 -840h-117z" />
    <glyph glyph-name="Ugrave" unicode="&#xd9;" horiz-adv-x="786" 
d="M150.5 71q-86.5 85 -86.5 241v388h198v-382q0 -168 133 -168q132 0 132 168v382h195v-388q0 -156 -86.5 -241t-242.5 -85t-242.5 85zM169 909h190l134 -152h-136z" />
    <glyph glyph-name="Uacute" unicode="&#xda;" horiz-adv-x="786" 
d="M150.5 71q-86.5 85 -86.5 241v388h198v-382q0 -168 133 -168q132 0 132 168v382h195v-388q0 -156 -86.5 -241t-242.5 -85t-242.5 85zM431 909h190l-188 -152h-136z" />
    <glyph glyph-name="Ucircumflex" unicode="&#xdb;" horiz-adv-x="786" 
d="M150.5 71q-86.5 85 -86.5 241v388h198v-382q0 -168 133 -168q132 0 132 168v382h195v-388q0 -156 -86.5 -241t-242.5 -85t-242.5 85zM481 757l-86 76l-86 -76h-126l130 152h164l130 -152h-126z" />
    <glyph glyph-name="Udieresis" unicode="&#xdc;" horiz-adv-x="786" 
d="M150.5 71q-86.5 85 -86.5 241v388h198v-382q0 -168 133 -168q132 0 132 168v382h195v-388q0 -156 -86.5 -241t-242.5 -85t-242.5 85zM232.5 777.5q-22.5 21.5 -22.5 56.5t22.5 57t56.5 22t56.5 -22t22.5 -57t-22.5 -56.5t-56.5 -21.5t-56.5 21.5zM444.5 777.5
q-22.5 21.5 -22.5 56.5t22.5 57t56.5 22t56.5 -22t22.5 -57t-22.5 -56.5t-56.5 -21.5t-56.5 21.5z" />
    <glyph glyph-name="Yacute" unicode="&#xdd;" horiz-adv-x="693" 
d="M445 251v-251h-198v254l-267 446h209l166 -278l166 278h192zM382 909h190l-188 -152h-136z" />
    <glyph glyph-name="Thorn" unicode="&#xde;" horiz-adv-x="737" 
d="M555 596.5q70 -31.5 108 -90t38 -137.5t-38 -137.5t-108 -90t-165 -31.5h-122v-110h-198v701h198v-73h122q95 0 165 -31.5zM470 293.5q31 26.5 31 75.5t-31 75.5t-92 26.5h-110v-204h110q61 0 92 26.5z" />
    <glyph glyph-name="germandbls" unicode="&#xdf;" horiz-adv-x="703" 
d="M642 324q35 -47 35 -114q0 -102 -70.5 -160.5t-187.5 -58.5q-32 0 -65.5 4.5t-54.5 11.5l20 147q35 -12 75 -12q41 0 65.5 19t24.5 54t-25.5 53.5t-73.5 18.5h-53v146q46 2 73 25.5t27 62.5q0 36 -23.5 58t-62.5 22q-44 0 -69.5 -25.5t-25.5 -73.5v-502h-190v478
q0 87 37.5 148.5t102.5 93t145 31.5q83 0 143.5 -28t92.5 -76.5t32 -109.5q0 -85 -70 -143q63 -23 98 -70z" />
    <glyph glyph-name="agrave" unicode="&#xe0;" horiz-adv-x="628" 
d="M498 489.5q71 -61.5 71 -188.5v-301h-177v70q-41 -79 -160 -79q-63 0 -109 22t-69.5 59.5t-23.5 85.5q0 77 59 119.5t182 42.5h108q-5 86 -115 86q-39 0 -79 -12.5t-68 -34.5l-64 129q45 30 109.5 46.5t129.5 16.5q135 0 206 -61.5zM343 127q25 16 36 47v47h-82
q-83 0 -83 -55q0 -25 19 -40t52 -15t58 16zM87 759h190l134 -152h-136z" />
    <glyph glyph-name="aacute" unicode="&#xe1;" horiz-adv-x="628" 
d="M498 489.5q71 -61.5 71 -188.5v-301h-177v70q-41 -79 -160 -79q-63 0 -109 22t-69.5 59.5t-23.5 85.5q0 77 59 119.5t182 42.5h108q-5 86 -115 86q-39 0 -79 -12.5t-68 -34.5l-64 129q45 30 109.5 46.5t129.5 16.5q135 0 206 -61.5zM343 127q25 16 36 47v47h-82
q-83 0 -83 -55q0 -25 19 -40t52 -15t58 16zM349 759h190l-188 -152h-136z" />
    <glyph glyph-name="acircumflex" unicode="&#xe2;" horiz-adv-x="628" 
d="M498 489.5q71 -61.5 71 -188.5v-301h-177v70q-41 -79 -160 -79q-63 0 -109 22t-69.5 59.5t-23.5 85.5q0 77 59 119.5t182 42.5h108q-5 86 -115 86q-39 0 -79 -12.5t-68 -34.5l-64 129q45 30 109.5 46.5t129.5 16.5q135 0 206 -61.5zM343 127q25 16 36 47v47h-82
q-83 0 -83 -55q0 -25 19 -40t52 -15t58 16zM399 607l-86 76l-86 -76h-126l130 152h164l130 -152h-126z" />
    <glyph glyph-name="atilde" unicode="&#xe3;" horiz-adv-x="628" 
d="M498 489.5q71 -61.5 71 -188.5v-301h-177v70q-41 -79 -160 -79q-63 0 -109 22t-69.5 59.5t-23.5 85.5q0 77 59 119.5t182 42.5h108q-5 86 -115 86q-39 0 -79 -12.5t-68 -34.5l-64 129q45 30 109.5 46.5t129.5 16.5q135 0 206 -61.5zM343 127q25 16 36 47v47h-82
q-83 0 -83 -55q0 -25 19 -40t52 -15t58 16zM342.5 610.5q-21.5 10.5 -47.5 28.5q-19 13 -28.5 18t-19.5 5q-20 0 -32 -14t-14 -39h-93q2 73 36 116t91 43q27 0 48 -10t48 -28q19 -13 28.5 -18t19.5 -5q20 0 32 13.5t14 36.5h93q-2 -71 -36 -114t-91 -43q-27 0 -48.5 10.5z
" />
    <glyph glyph-name="adieresis" unicode="&#xe4;" horiz-adv-x="628" 
d="M498 489.5q71 -61.5 71 -188.5v-301h-177v70q-41 -79 -160 -79q-63 0 -109 22t-69.5 59.5t-23.5 85.5q0 77 59 119.5t182 42.5h108q-5 86 -115 86q-39 0 -79 -12.5t-68 -34.5l-64 129q45 30 109.5 46.5t129.5 16.5q135 0 206 -61.5zM343 127q25 16 36 47v47h-82
q-83 0 -83 -55q0 -25 19 -40t52 -15t58 16zM150.5 627.5q-22.5 21.5 -22.5 56.5t22.5 57t56.5 22t56.5 -22t22.5 -57t-22.5 -56.5t-56.5 -21.5t-56.5 21.5zM362.5 627.5q-22.5 21.5 -22.5 56.5t22.5 57t56.5 22t56.5 -22t22.5 -57t-22.5 -56.5t-56.5 -21.5t-56.5 21.5z" />
    <glyph glyph-name="aring" unicode="&#xe5;" horiz-adv-x="628" 
d="M498 489.5q71 -61.5 71 -188.5v-301h-177v70q-41 -79 -160 -79q-63 0 -109 22t-69.5 59.5t-23.5 85.5q0 77 59 119.5t182 42.5h108q-5 86 -115 86q-39 0 -79 -12.5t-68 -34.5l-64 129q45 30 109.5 46.5t129.5 16.5q135 0 206 -61.5zM343 127q25 16 36 47v47h-82
q-83 0 -83 -55q0 -25 19 -40t52 -15t58 16zM219 628q-38 37 -38 90q0 54 38 91t94 37q36 0 66.5 -17t48 -46.5t17.5 -64.5q0 -53 -38.5 -90t-93.5 -37q-56 0 -94 37zM353.5 677q16.5 16 16.5 41t-16.5 41.5t-40.5 16.5t-40.5 -16.5t-16.5 -41.5t16.5 -41t40.5 -16t40.5 16z
" />
    <glyph glyph-name="ae" unicode="&#xe6;" horiz-adv-x="999" 
d="M969 222h-394q11 -41 45.5 -63.5t85.5 -22.5q36 0 66 11.5t60 35.5l100 -104q-82 -88 -229 -88q-70 0 -130 21.5t-103 66.5q-64 -88 -204 -88q-110 0 -173 47.5t-63 125.5q0 74 59.5 116t181.5 42h108q-3 40 -31.5 62t-82.5 22q-41 0 -80.5 -12.5t-67.5 -34.5l-64 129
q46 30 109 46.5t129 16.5q131 0 198 -68q39 33 89 50.5t106 17.5q78 0 144 -33.5t105 -96.5t39 -147q0 -29 -3 -52zM609.5 391q-30.5 -25 -38.5 -69h219q-7 44 -37 69t-72 25q-41 0 -71.5 -25zM354.5 135q24.5 24 24.5 65v22h-82q-83 0 -83 -54q0 -27 19 -42t54 -15
q43 0 67.5 24z" />
    <glyph glyph-name="ccedilla" unicode="&#xe7;" horiz-adv-x="603" 
d="M177 27q-71 36 -110.5 100t-39.5 145t39.5 144.5t110.5 99t161 35.5q92 0 159 -39.5t95 -109.5l-147 -75q-37 73 -108 73q-51 0 -84.5 -34t-33.5 -94q0 -61 33.5 -95.5t84.5 -34.5q71 0 108 73l147 -75q-28 -70 -95 -109.5t-159 -39.5q-90 0 -161 36zM223.5 -230
q-26.5 6 -43.5 15l26 75q30 -14 62 -14q50 0 50 28q0 25 -45 25h-37l26 110h99l-14 -60q44 -5 65 -27.5t21 -53.5q0 -48 -43 -76t-115 -28q-25 0 -51.5 6z" />
    <glyph glyph-name="egrave" unicode="&#xe8;" horiz-adv-x="642" 
d="M612 223h-394q12 -42 46.5 -64.5t86.5 -22.5q39 0 67.5 11t57.5 36l100 -104q-79 -88 -231 -88q-95 0 -167 36t-111.5 100t-39.5 145q0 80 38.5 143.5t106.5 99.5t153 36q81 0 147 -33.5t104.5 -97t38.5 -150.5q0 -2 -3 -47zM252.5 391q-29.5 -25 -37.5 -68h222
q-8 43 -37.5 68t-73.5 25t-73.5 -25zM95 759h190l134 -152h-136z" />
    <glyph glyph-name="eacute" unicode="&#xe9;" horiz-adv-x="642" 
d="M612 223h-394q12 -42 46.5 -64.5t86.5 -22.5q39 0 67.5 11t57.5 36l100 -104q-79 -88 -231 -88q-95 0 -167 36t-111.5 100t-39.5 145q0 80 38.5 143.5t106.5 99.5t153 36q81 0 147 -33.5t104.5 -97t38.5 -150.5q0 -2 -3 -47zM252.5 391q-29.5 -25 -37.5 -68h222
q-8 43 -37.5 68t-73.5 25t-73.5 -25zM357 759h190l-188 -152h-136z" />
    <glyph glyph-name="ecircumflex" unicode="&#xea;" horiz-adv-x="642" 
d="M612 223h-394q12 -42 46.5 -64.5t86.5 -22.5q39 0 67.5 11t57.5 36l100 -104q-79 -88 -231 -88q-95 0 -167 36t-111.5 100t-39.5 145q0 80 38.5 143.5t106.5 99.5t153 36q81 0 147 -33.5t104.5 -97t38.5 -150.5q0 -2 -3 -47zM252.5 391q-29.5 -25 -37.5 -68h222
q-8 43 -37.5 68t-73.5 25t-73.5 -25zM407 607l-86 76l-86 -76h-126l130 152h164l130 -152h-126z" />
    <glyph glyph-name="edieresis" unicode="&#xeb;" horiz-adv-x="642" 
d="M612 223h-394q12 -42 46.5 -64.5t86.5 -22.5q39 0 67.5 11t57.5 36l100 -104q-79 -88 -231 -88q-95 0 -167 36t-111.5 100t-39.5 145q0 80 38.5 143.5t106.5 99.5t153 36q81 0 147 -33.5t104.5 -97t38.5 -150.5q0 -2 -3 -47zM252.5 391q-29.5 -25 -37.5 -68h222
q-8 43 -37.5 68t-73.5 25t-73.5 -25zM158.5 627.5q-22.5 21.5 -22.5 56.5t22.5 57t56.5 22t56.5 -22t22.5 -57t-22.5 -56.5t-56.5 -21.5t-56.5 21.5zM370.5 627.5q-22.5 21.5 -22.5 56.5t22.5 57t56.5 22t56.5 -22t22.5 -57t-22.5 -56.5t-56.5 -21.5t-56.5 21.5z" />
    <glyph glyph-name="igrave" unicode="&#xec;" horiz-adv-x="313" 
d="M61 542h190v-542h-190v542zM-70 759h190l134 -152h-136z" />
    <glyph glyph-name="iacute" unicode="&#xed;" horiz-adv-x="313" 
d="M61 542h190v-542h-190v542zM192 759h190l-188 -152h-136z" />
    <glyph glyph-name="icircumflex" unicode="&#xee;" horiz-adv-x="313" 
d="M61 542h190v-542h-190v542zM218 607l-62 69l-62 -69h-125l107 152h160l107 -152h-125z" />
    <glyph glyph-name="idieresis" unicode="&#xef;" horiz-adv-x="313" 
d="M61 542h190v-542h-190v542zM16 628q-21 22 -21 56t21 56t53 22q31 0 52 -22t21 -56q0 -35 -21 -56.5t-52 -21.5q-32 0 -53 22zM191 628q-21 22 -21 56t21 56t53 22q31 0 52 -22t21 -56q0 -35 -21 -56.5t-52 -21.5q-32 0 -53 22z" />
    <glyph glyph-name="eth" unicode="&#xf0;" horiz-adv-x="666" 
d="M639 340q0 -110 -41 -189.5t-116 -122t-176 -42.5q-78 0 -142 29.5t-100.5 84t-36.5 125.5q0 66 33.5 117t90.5 79t126 28q103 0 163 -57q-3 102 -49 155l-244 -90l-33 85l168 63q-23 4 -54 4q-68 0 -128 -20l-20 142q80 18 158 18q149 0 250 -67l92 34l33 -86l-51 -19
q77 -103 77 -271zM395 152.5q29 25.5 29 64.5q0 40 -29 65.5t-73 25.5q-45 0 -73.5 -24.5t-28.5 -66.5q0 -41 28.5 -65.5t72.5 -24.5q45 0 74 25.5z" />
    <glyph glyph-name="ntilde" unicode="&#xf1;" horiz-adv-x="696" 
d="M576.5 491q61.5 -60 61.5 -181v-310h-190v279q0 111 -89 111q-49 0 -78.5 -32t-29.5 -96v-262h-190v542h181v-59q32 33 76 50.5t96 17.5q101 0 162.5 -60zM381.5 610.5q-21.5 10.5 -47.5 28.5q-19 13 -28.5 18t-19.5 5q-20 0 -32 -14t-14 -39h-93q2 73 36 116t91 43
q27 0 48 -10t48 -28q19 -13 28.5 -18t19.5 -5q20 0 32 13.5t14 36.5h93q-2 -71 -36 -114t-91 -43q-27 0 -48.5 10.5z" />
    <glyph glyph-name="ograve" unicode="&#xf2;" horiz-adv-x="666" 
d="M176 27q-70 36 -109.5 100t-39.5 145q0 80 39.5 144t109 99.5t157.5 35.5t158 -35.5t109 -99t39 -144.5t-39 -145t-109 -100t-158 -36q-87 0 -157 36zM415 176.5q32 34.5 32 95.5q0 60 -32 94t-82 34t-82 -34t-32 -94q0 -61 32 -95.5t82 -34.5t82 34.5zM105 759h190
l134 -152h-136z" />
    <glyph glyph-name="oacute" unicode="&#xf3;" horiz-adv-x="666" 
d="M176 27q-70 36 -109.5 100t-39.5 145q0 80 39.5 144t109 99.5t157.5 35.5t158 -35.5t109 -99t39 -144.5t-39 -145t-109 -100t-158 -36q-87 0 -157 36zM415 176.5q32 34.5 32 95.5q0 60 -32 94t-82 34t-82 -34t-32 -94q0 -61 32 -95.5t82 -34.5t82 34.5zM367 759h190
l-188 -152h-136z" />
    <glyph glyph-name="ocircumflex" unicode="&#xf4;" horiz-adv-x="666" 
d="M176 27q-70 36 -109.5 100t-39.5 145q0 80 39.5 144t109 99.5t157.5 35.5t158 -35.5t109 -99t39 -144.5t-39 -145t-109 -100t-158 -36q-87 0 -157 36zM415 176.5q32 34.5 32 95.5q0 60 -32 94t-82 34t-82 -34t-32 -94q0 -61 32 -95.5t82 -34.5t82 34.5zM417 607l-86 76
l-86 -76h-126l130 152h164l130 -152h-126z" />
    <glyph glyph-name="otilde" unicode="&#xf5;" horiz-adv-x="666" 
d="M176 27q-70 36 -109.5 100t-39.5 145q0 80 39.5 144t109 99.5t157.5 35.5t158 -35.5t109 -99t39 -144.5t-39 -145t-109 -100t-158 -36q-87 0 -157 36zM415 176.5q32 34.5 32 95.5q0 60 -32 94t-82 34t-82 -34t-32 -94q0 -61 32 -95.5t82 -34.5t82 34.5zM360.5 610.5
q-21.5 10.5 -47.5 28.5q-19 13 -28.5 18t-19.5 5q-20 0 -32 -14t-14 -39h-93q2 73 36 116t91 43q27 0 48 -10t48 -28q19 -13 28.5 -18t19.5 -5q20 0 32 13.5t14 36.5h93q-2 -71 -36 -114t-91 -43q-27 0 -48.5 10.5z" />
    <glyph glyph-name="odieresis" unicode="&#xf6;" horiz-adv-x="666" 
d="M176 27q-70 36 -109.5 100t-39.5 145q0 80 39.5 144t109 99.5t157.5 35.5t158 -35.5t109 -99t39 -144.5t-39 -145t-109 -100t-158 -36q-87 0 -157 36zM415 176.5q32 34.5 32 95.5q0 60 -32 94t-82 34t-82 -34t-32 -94q0 -61 32 -95.5t82 -34.5t82 34.5zM168.5 627.5
q-22.5 21.5 -22.5 56.5t22.5 57t56.5 22t56.5 -22t22.5 -57t-22.5 -56.5t-56.5 -21.5t-56.5 21.5zM380.5 627.5q-22.5 21.5 -22.5 56.5t22.5 57t56.5 22t56.5 -22t22.5 -57t-22.5 -56.5t-56.5 -21.5t-56.5 21.5z" />
    <glyph glyph-name="divide" unicode="&#xf7;" horiz-adv-x="609" 
d="M235.5 496q-27.5 27 -27.5 69t27.5 68.5t69.5 26.5q41 0 69 -26.5t28 -68.5t-28 -69t-69 -27q-42 0 -69.5 27zM58 423h493v-146h-493v146zM235.5 67.5q-27.5 27.5 -27.5 69.5t27.5 68t69.5 26q41 0 69 -26.5t28 -67.5q0 -42 -28 -69.5t-69 -27.5q-42 0 -69.5 27.5z" />
    <glyph glyph-name="oslash" unicode="&#xf8;" horiz-adv-x="666" 
d="M176 27q-70 36 -109.5 100t-39.5 145q0 80 39.5 144t109 99.5t157.5 35.5t158 -35.5t109 -99t39 -144.5t-39 -145t-109 -100t-158 -36q-87 0 -157 36zM415 176.5q32 34.5 32 95.5q0 60 -32 94t-82 34t-82 -34t-32 -94q0 -61 32 -95.5t82 -34.5t82 34.5zM508 607h86
l-441 -677h-86z" />
    <glyph glyph-name="ugrave" unicode="&#xf9;" horiz-adv-x="692" 
d="M631 542v-542h-181v58q-30 -33 -72 -50t-89 -17q-105 0 -167.5 62t-62.5 186v303h190v-272q0 -61 23 -89t67 -28q45 0 73.5 31.5t28.5 96.5v261h190zM119 759h190l134 -152h-136z" />
    <glyph glyph-name="uacute" unicode="&#xfa;" horiz-adv-x="692" 
d="M631 542v-542h-181v58q-30 -33 -72 -50t-89 -17q-105 0 -167.5 62t-62.5 186v303h190v-272q0 -61 23 -89t67 -28q45 0 73.5 31.5t28.5 96.5v261h190zM381 759h190l-188 -152h-136z" />
    <glyph glyph-name="ucircumflex" unicode="&#xfb;" horiz-adv-x="692" 
d="M631 542v-542h-181v58q-30 -33 -72 -50t-89 -17q-105 0 -167.5 62t-62.5 186v303h190v-272q0 -61 23 -89t67 -28q45 0 73.5 31.5t28.5 96.5v261h190zM431 607l-86 76l-86 -76h-126l130 152h164l130 -152h-126z" />
    <glyph glyph-name="udieresis" unicode="&#xfc;" horiz-adv-x="692" 
d="M631 542v-542h-181v58q-30 -33 -72 -50t-89 -17q-105 0 -167.5 62t-62.5 186v303h190v-272q0 -61 23 -89t67 -28q45 0 73.5 31.5t28.5 96.5v261h190zM182.5 627.5q-22.5 21.5 -22.5 56.5t22.5 57t56.5 22t56.5 -22t22.5 -57t-22.5 -56.5t-56.5 -21.5t-56.5 21.5z
M394.5 627.5q-22.5 21.5 -22.5 56.5t22.5 57t56.5 22t56.5 -22t22.5 -57t-22.5 -56.5t-56.5 -21.5t-56.5 21.5z" />
    <glyph glyph-name="yacute" unicode="&#xfd;" horiz-adv-x="620" 
d="M632 542l-234 -564q-41 -100 -100 -140.5t-144 -40.5q-43 0 -86.5 13.5t-70.5 35.5l66 133q16 -15 38.5 -23.5t45.5 -8.5q27 0 44.5 11t29.5 35l-232 549h195l133 -331l134 331h181zM336 759h190l-188 -152h-136z" />
    <glyph glyph-name="thorn" unicode="&#xfe;" horiz-adv-x="695" 
d="M536.5 516.5q60.5 -34.5 96 -98t35.5 -147.5t-35.5 -147.5t-96 -98t-134.5 -34.5q-95 0 -151 57v-242h-190v936h190v-244q53 53 151 53q74 0 134.5 -34.5zM444 176.5q32 34.5 32 94.5t-32 94.5t-82 34.5t-82 -34.5t-32 -94.5t32 -94.5t82 -34.5t82 34.5z" />
    <glyph glyph-name="ydieresis" unicode="&#xff;" horiz-adv-x="620" 
d="M632 542l-234 -564q-41 -100 -100 -140.5t-144 -40.5q-43 0 -86.5 13.5t-70.5 35.5l66 133q16 -15 38.5 -23.5t45.5 -8.5q27 0 44.5 11t29.5 35l-232 549h195l133 -331l134 331h181zM137.5 627.5q-22.5 21.5 -22.5 56.5t22.5 57t56.5 22t56.5 -22t22.5 -57t-22.5 -56.5
t-56.5 -21.5t-56.5 21.5zM349.5 627.5q-22.5 21.5 -22.5 56.5t22.5 57t56.5 22t56.5 -22t22.5 -57t-22.5 -56.5t-56.5 -21.5t-56.5 21.5z" />
    <glyph glyph-name="Amacron" unicode="&#x100;" horiz-adv-x="786" 
d="M539 136h-296l-55 -136h-202l309 700h195l310 -700h-206zM481 282l-90 224l-90 -224h180zM196 884h394v-102h-394v102z" />
    <glyph glyph-name="amacron" unicode="&#x101;" horiz-adv-x="628" 
d="M498 489.5q71 -61.5 71 -188.5v-301h-177v70q-41 -79 -160 -79q-63 0 -109 22t-69.5 59.5t-23.5 85.5q0 77 59 119.5t182 42.5h108q-5 86 -115 86q-39 0 -79 -12.5t-68 -34.5l-64 129q45 30 109.5 46.5t129.5 16.5q135 0 206 -61.5zM343 127q25 16 36 47v47h-82
q-83 0 -83 -55q0 -25 19 -40t52 -15t58 16zM116 734h394v-102h-394v102z" />
    <glyph glyph-name="Abreve" unicode="&#x102;" horiz-adv-x="786" 
d="M539 136h-296l-55 -136h-202l309 700h195l310 -700h-206zM481 282l-90 224l-90 -224h180zM254 791.5q-54 43.5 -57 117.5h116q1 -30 24 -48t56 -18t56 18t24 48h116q-3 -74 -57 -117.5t-139 -43.5t-139 43.5z" />
    <glyph glyph-name="abreve" unicode="&#x103;" horiz-adv-x="628" 
d="M498 489.5q71 -61.5 71 -188.5v-301h-177v70q-41 -79 -160 -79q-63 0 -109 22t-69.5 59.5t-23.5 85.5q0 77 59 119.5t182 42.5h108q-5 86 -115 86q-39 0 -79 -12.5t-68 -34.5l-64 129q45 30 109.5 46.5t129.5 16.5q135 0 206 -61.5zM343 127q25 16 36 47v47h-82
q-83 0 -83 -55q0 -25 19 -40t52 -15t58 16zM174 641.5q-54 43.5 -57 117.5h116q1 -30 24 -48t56 -18t56 18t24 48h116q-3 -74 -57 -117.5t-139 -43.5t-139 43.5z" />
    <glyph glyph-name="Aogonek" unicode="&#x104;" horiz-adv-x="786" 
d="M539 136h-296l-55 -136h-202l309 700h195l310 -700h-206zM481 282l-90 224l-90 -224h180zM609 -204q-39 32 -39 85q0 52 40.5 94.5t119.5 69.5l70 -45q-63 -28 -89 -52t-26 -50q0 -20 14.5 -32t40.5 -12q32 0 60 15l25 -82q-19 -10 -48.5 -16.5t-58.5 -6.5q-70 0 -109 32
z" />
    <glyph glyph-name="aogonek" unicode="&#x105;" horiz-adv-x="628" 
d="M498 489.5q71 -61.5 71 -188.5v-301h-177v70q-41 -79 -160 -79q-63 0 -109 22t-69.5 59.5t-23.5 85.5q0 77 59 119.5t182 42.5h108q-5 86 -115 86q-39 0 -79 -12.5t-68 -34.5l-64 129q45 30 109.5 46.5t129.5 16.5q135 0 206 -61.5zM343 127q25 16 36 47v47h-82
q-83 0 -83 -55q0 -25 19 -40t52 -15t58 16zM378 -204q-39 32 -39 85q0 52 40.5 94.5t119.5 69.5l70 -45q-63 -28 -89 -52t-26 -50q0 -20 14.5 -32t40.5 -12q32 0 60 15l25 -82q-19 -10 -48.5 -16.5t-58.5 -6.5q-70 0 -109 32z" />
    <glyph glyph-name="Cacute" unicode="&#x106;" horiz-adv-x="738" 
d="M221.5 32.5q-87.5 46.5 -137.5 129.5t-50 188t50 188t137.5 129.5t197.5 46.5q96 0 173 -34t128 -98l-126 -114q-68 82 -165 82q-57 0 -101.5 -25t-69 -70.5t-24.5 -104.5t24.5 -104.5t69 -70.5t101.5 -25q97 0 165 82l126 -114q-51 -64 -128 -98t-173 -34
q-110 0 -197.5 46.5zM452 910h190l-188 -152h-136z" />
    <glyph glyph-name="cacute" unicode="&#x107;" horiz-adv-x="603" 
d="M177 27q-71 36 -110.5 100t-39.5 145t39.5 144.5t110.5 99t161 35.5q92 0 159 -39.5t95 -109.5l-147 -75q-37 73 -108 73q-51 0 -84.5 -34t-33.5 -94q0 -61 33.5 -95.5t84.5 -34.5q71 0 108 73l147 -75q-28 -70 -95 -109.5t-159 -39.5q-90 0 -161 36zM354 759h190
l-188 -152h-136z" />
    <glyph glyph-name="Ccircumflex" unicode="&#x108;" horiz-adv-x="738" 
d="M221.5 32.5q-87.5 46.5 -137.5 129.5t-50 188t50 188t137.5 129.5t197.5 46.5q96 0 173 -34t128 -98l-126 -114q-68 82 -165 82q-57 0 -101.5 -25t-69 -70.5t-24.5 -104.5t24.5 -104.5t69 -70.5t101.5 -25q97 0 165 82l126 -114q-51 -64 -128 -98t-173 -34
q-110 0 -197.5 46.5zM502 758l-86 76l-86 -76h-126l130 152h164l130 -152h-126z" />
    <glyph glyph-name="ccircumflex" unicode="&#x109;" horiz-adv-x="603" 
d="M177 27q-71 36 -110.5 100t-39.5 145t39.5 144.5t110.5 99t161 35.5q92 0 159 -39.5t95 -109.5l-147 -75q-37 73 -108 73q-51 0 -84.5 -34t-33.5 -94q0 -61 33.5 -95.5t84.5 -34.5q71 0 108 73l147 -75q-28 -70 -95 -109.5t-159 -39.5q-90 0 -161 36zM404 607l-86 76
l-86 -76h-126l130 152h164l130 -152h-126z" />
    <glyph glyph-name="Cdotaccent" unicode="&#x10a;" horiz-adv-x="738" 
d="M221.5 32.5q-87.5 46.5 -137.5 129.5t-50 188t50 188t137.5 129.5t197.5 46.5q96 0 173 -34t128 -98l-126 -114q-68 82 -165 82q-57 0 -101.5 -25t-69 -70.5t-24.5 -104.5t24.5 -104.5t69 -70.5t101.5 -25q97 0 165 82l126 -114q-51 -64 -128 -98t-173 -34
q-110 0 -197.5 46.5zM344.5 784q-27.5 28 -27.5 71t28 70.5t71 27.5t71 -27.5t28 -70.5t-28 -71t-71 -28q-44 0 -71.5 28z" />
    <glyph glyph-name="cdotaccent" unicode="&#x10b;" horiz-adv-x="603" 
d="M177 27q-71 36 -110.5 100t-39.5 145t39.5 144.5t110.5 99t161 35.5q92 0 159 -39.5t95 -109.5l-147 -75q-37 73 -108 73q-51 0 -84.5 -34t-33.5 -94q0 -61 33.5 -95.5t84.5 -34.5q71 0 108 73l147 -75q-28 -70 -95 -109.5t-159 -39.5q-90 0 -161 36zM246.5 633
q-27.5 28 -27.5 71t28 70.5t71 27.5t71 -27.5t28 -70.5t-28 -71t-71 -28q-44 0 -71.5 28z" />
    <glyph glyph-name="Ccaron" unicode="&#x10c;" horiz-adv-x="738" 
d="M221.5 32.5q-87.5 46.5 -137.5 129.5t-50 188t50 188t137.5 129.5t197.5 46.5q96 0 173 -34t128 -98l-126 -114q-68 82 -165 82q-57 0 -101.5 -25t-69 -70.5t-24.5 -104.5t24.5 -104.5t69 -70.5t101.5 -25q97 0 165 82l126 -114q-51 -64 -128 -98t-173 -34
q-110 0 -197.5 46.5zM628 910l-130 -152h-164l-130 152h126l86 -76l86 76h126z" />
    <glyph glyph-name="ccaron" unicode="&#x10d;" horiz-adv-x="603" 
d="M177 27q-71 36 -110.5 100t-39.5 145t39.5 144.5t110.5 99t161 35.5q92 0 159 -39.5t95 -109.5l-147 -75q-37 73 -108 73q-51 0 -84.5 -34t-33.5 -94q0 -61 33.5 -95.5t84.5 -34.5q71 0 108 73l147 -75q-28 -70 -95 -109.5t-159 -39.5q-90 0 -161 36zM530 759l-130 -152
h-164l-130 152h126l86 -76l86 76h126z" />
    <glyph glyph-name="Dcaron" unicode="&#x10e;" horiz-adv-x="826" 
d="M70 700h331q115 0 204 -43t138 -122t49 -185t-49 -185t-138 -122t-204 -43h-331v700zM393 158q90 0 144.5 51t54.5 141t-54.5 141t-144.5 51h-125v-384h125zM577 909l-130 -152h-164l-130 152h126l86 -76l86 76h126z" />
    <glyph glyph-name="dcaron" unicode="&#x10f;" horiz-adv-x="698" 
d="M637 742v-742h-181v54q-53 -63 -159 -63q-74 0 -135 34.5t-96.5 98.5t-35.5 148t35.5 147.5t96.5 97.5t135 34q97 0 150 -56v247h190zM418 176.5q32 34.5 32 95.5q0 60 -31.5 94t-81.5 34t-82 -34t-32 -94q0 -61 32 -95.5t82 -34.5q49 0 81 34.5zM715 787h137l-25 -205
h-112v205z" />
    <glyph glyph-name="Dcroat" unicode="&#x110;" horiz-adv-x="843" 
d="M87 700h331q115 0 204 -43t138 -122t49 -185t-49 -185t-138 -122t-204 -43h-331v700zM410 158q90 0 144.5 51t54.5 141t-54.5 141t-144.5 51h-125v-384h125zM-3 416h450v-122h-450v122z" />
    <glyph glyph-name="dcroat" unicode="&#x111;" horiz-adv-x="698" 
d="M637 742v-742h-181v54q-53 -63 -159 -63q-74 0 -135 34.5t-96.5 98.5t-35.5 148t35.5 147.5t96.5 97.5t135 34q97 0 150 -56v247h190zM418 176.5q32 34.5 32 95.5q0 60 -31.5 94t-81.5 34t-82 -34t-32 -94q0 -61 32 -95.5t82 -34.5q49 0 81 34.5zM280 688h420v-99h-420
v99z" />
    <glyph glyph-name="Emacron" unicode="&#x112;" horiz-adv-x="672" 
d="M632 153v-153h-562v700h549v-153h-353v-118h311v-148h-311v-128h366zM148 884h394v-102h-394v102z" />
    <glyph glyph-name="emacron" unicode="&#x113;" horiz-adv-x="642" 
d="M612 223h-394q12 -42 46.5 -64.5t86.5 -22.5q39 0 67.5 11t57.5 36l100 -104q-79 -88 -231 -88q-95 0 -167 36t-111.5 100t-39.5 145q0 80 38.5 143.5t106.5 99.5t153 36q81 0 147 -33.5t104.5 -97t38.5 -150.5q0 -2 -3 -47zM252.5 391q-29.5 -25 -37.5 -68h222
q-8 43 -37.5 68t-73.5 25t-73.5 -25zM124 734h394v-102h-394v102z" />
    <glyph glyph-name="Ebreve" unicode="&#x114;" horiz-adv-x="672" 
d="M632 153v-153h-562v700h549v-153h-353v-118h311v-148h-311v-128h366zM206 791.5q-54 43.5 -57 117.5h116q1 -30 24 -48t56 -18t56 18t24 48h116q-3 -74 -57 -117.5t-139 -43.5t-139 43.5z" />
    <glyph glyph-name="ebreve" unicode="&#x115;" horiz-adv-x="642" 
d="M612 223h-394q12 -42 46.5 -64.5t86.5 -22.5q39 0 67.5 11t57.5 36l100 -104q-79 -88 -231 -88q-95 0 -167 36t-111.5 100t-39.5 145q0 80 38.5 143.5t106.5 99.5t153 36q81 0 147 -33.5t104.5 -97t38.5 -150.5q0 -2 -3 -47zM252.5 391q-29.5 -25 -37.5 -68h222
q-8 43 -37.5 68t-73.5 25t-73.5 -25zM182 641.5q-54 43.5 -57 117.5h116q1 -30 24 -48t56 -18t56 18t24 48h116q-3 -74 -57 -117.5t-139 -43.5t-139 43.5z" />
    <glyph glyph-name="Edotaccent" unicode="&#x116;" horiz-adv-x="672" 
d="M632 153v-153h-562v700h549v-153h-353v-118h311v-148h-311v-128h366zM273.5 783q-27.5 28 -27.5 71t28 70.5t71 27.5t71 -27.5t28 -70.5t-28 -71t-71 -28q-44 0 -71.5 28z" />
    <glyph glyph-name="edotaccent" unicode="&#x117;" horiz-adv-x="642" 
d="M612 223h-394q12 -42 46.5 -64.5t86.5 -22.5q39 0 67.5 11t57.5 36l100 -104q-79 -88 -231 -88q-95 0 -167 36t-111.5 100t-39.5 145q0 80 38.5 143.5t106.5 99.5t153 36q81 0 147 -33.5t104.5 -97t38.5 -150.5q0 -2 -3 -47zM252.5 391q-29.5 -25 -37.5 -68h222
q-8 43 -37.5 68t-73.5 25t-73.5 -25zM249.5 633q-27.5 28 -27.5 71t28 70.5t71 27.5t71 -27.5t28 -70.5t-28 -71t-71 -28q-44 0 -71.5 28z" />
    <glyph glyph-name="Eogonek" unicode="&#x118;" horiz-adv-x="672" 
d="M632 153v-153h-562v700h549v-153h-353v-118h311v-148h-311v-128h366zM441 -204q-39 32 -39 85q0 52 40.5 94.5t119.5 69.5l70 -45q-63 -28 -89 -52t-26 -50q0 -20 14.5 -32t40.5 -12q32 0 60 15l25 -82q-19 -10 -48.5 -16.5t-58.5 -6.5q-70 0 -109 32z" />
    <glyph glyph-name="eogonek" unicode="&#x119;" horiz-adv-x="642" 
d="M612 223h-394q12 -42 46.5 -64.5t86.5 -22.5q39 0 67.5 11t57.5 36l100 -104q-16 -19 -41 -37q-65 -43 -88.5 -75t-23.5 -63q0 -23 15.5 -36.5t41.5 -13.5q30 0 58 15l25 -82q-18 -10 -48 -16.5t-59 -6.5q-69 0 -108.5 32.5t-39.5 88.5q0 28 13.5 56t37.5 50h-14
q-95 0 -167 36t-111.5 100t-39.5 145q0 80 38.5 143.5t106.5 99.5t153 36q81 0 147 -33.5t104.5 -97t38.5 -150.5q0 -2 -3 -47zM252.5 391q-29.5 -25 -37.5 -68h222q-8 43 -37.5 68t-73.5 25t-73.5 -25z" />
    <glyph glyph-name="Ecaron" unicode="&#x11a;" horiz-adv-x="672" 
d="M632 153v-153h-562v700h549v-153h-353v-118h311v-148h-311v-128h366zM557 909l-130 -152h-164l-130 152h126l86 -76l86 76h126z" />
    <glyph glyph-name="ecaron" unicode="&#x11b;" horiz-adv-x="642" 
d="M612 223h-394q12 -42 46.5 -64.5t86.5 -22.5q39 0 67.5 11t57.5 36l100 -104q-79 -88 -231 -88q-95 0 -167 36t-111.5 100t-39.5 145q0 80 38.5 143.5t106.5 99.5t153 36q81 0 147 -33.5t104.5 -97t38.5 -150.5q0 -2 -3 -47zM252.5 391q-29.5 -25 -37.5 -68h222
q-8 43 -37.5 68t-73.5 25t-73.5 -25zM533 759l-130 -152h-164l-130 152h126l86 -76l86 76h126z" />
    <glyph glyph-name="Gcircumflex" unicode="&#x11c;" horiz-adv-x="770" 
d="M539 365h175v-290q-60 -43 -138 -66t-156 -23q-110 0 -198 46.5t-138 129.5t-50 188t50 188t139 129.5t201 46.5q98 0 176 -33t130 -95l-126 -114q-71 78 -170 78q-90 0 -145 -54.5t-55 -145.5q0 -58 25 -103.5t70 -71t103 -25.5q57 0 107 23v192zM506 758l-86 76
l-86 -76h-126l130 152h164l130 -152h-126z" />
    <glyph glyph-name="gcircumflex" unicode="&#x11d;" horiz-adv-x="705" 
d="M644 542v-443q0 -151 -82 -226.5t-236 -75.5q-80 0 -150 18t-119 53l69 133q33 -27 83.5 -42.5t99.5 -15.5q75 0 110 33t35 98v18q-55 -64 -161 -64q-72 0 -133 32.5t-97 92t-36 137.5q0 77 36 136.5t97 92t133 32.5q116 0 170 -75v66h181zM422.5 210q33.5 31 33.5 80
t-33 79.5t-85 30.5t-85.5 -30.5t-33.5 -79.5t34 -80t85 -31t84.5 31zM434 607l-86 76l-86 -76h-126l130 152h164l130 -152h-126z" />
    <glyph glyph-name="Gbreve" unicode="&#x11e;" horiz-adv-x="770" 
d="M539 365h175v-290q-60 -43 -138 -66t-156 -23q-110 0 -198 46.5t-138 129.5t-50 188t50 188t139 129.5t201 46.5q98 0 176 -33t130 -95l-126 -114q-71 78 -170 78q-90 0 -145 -54.5t-55 -145.5q0 -58 25 -103.5t70 -71t103 -25.5q57 0 107 23v192zM281 792.5
q-54 43.5 -57 117.5h116q1 -30 24 -48t56 -18t56 18t24 48h116q-3 -74 -57 -117.5t-139 -43.5t-139 43.5z" />
    <glyph glyph-name="gbreve" unicode="&#x11f;" horiz-adv-x="705" 
d="M644 542v-443q0 -151 -82 -226.5t-236 -75.5q-80 0 -150 18t-119 53l69 133q33 -27 83.5 -42.5t99.5 -15.5q75 0 110 33t35 98v18q-55 -64 -161 -64q-72 0 -133 32.5t-97 92t-36 137.5q0 77 36 136.5t97 92t133 32.5q116 0 170 -75v66h181zM422.5 210q33.5 31 33.5 80
t-33 79.5t-85 30.5t-85.5 -30.5t-33.5 -79.5t34 -80t85 -31t84.5 31zM209 641.5q-54 43.5 -57 117.5h116q1 -30 24 -48t56 -18t56 18t24 48h116q-3 -74 -57 -117.5t-139 -43.5t-139 43.5z" />
    <glyph glyph-name="Gdotaccent" unicode="&#x120;" horiz-adv-x="770" 
d="M539 365h175v-290q-60 -43 -138 -66t-156 -23q-110 0 -198 46.5t-138 129.5t-50 188t50 188t139 129.5t201 46.5q98 0 176 -33t130 -95l-126 -114q-71 78 -170 78q-90 0 -145 -54.5t-55 -145.5q0 -58 25 -103.5t70 -71t103 -25.5q57 0 107 23v192zM348.5 784
q-27.5 28 -27.5 71t28 70.5t71 27.5t71 -27.5t28 -70.5t-28 -71t-71 -28q-44 0 -71.5 28z" />
    <glyph glyph-name="gdotaccent" unicode="&#x121;" horiz-adv-x="705" 
d="M644 542v-443q0 -151 -82 -226.5t-236 -75.5q-80 0 -150 18t-119 53l69 133q33 -27 83.5 -42.5t99.5 -15.5q75 0 110 33t35 98v18q-55 -64 -161 -64q-72 0 -133 32.5t-97 92t-36 137.5q0 77 36 136.5t97 92t133 32.5q116 0 170 -75v66h181zM422.5 210q33.5 31 33.5 80
t-33 79.5t-85 30.5t-85.5 -30.5t-33.5 -79.5t34 -80t85 -31t84.5 31zM276.5 633q-27.5 28 -27.5 71t28 70.5t71 27.5t71 -27.5t28 -70.5t-28 -71t-71 -28q-44 0 -71.5 28z" />
    <glyph glyph-name="Gcommaaccent" unicode="&#x122;" horiz-adv-x="770" 
d="M539 365h175v-290q-60 -43 -138 -66t-156 -23q-110 0 -198 46.5t-138 129.5t-50 188t50 188t139 129.5t201 46.5q98 0 176 -33t130 -95l-126 -114q-71 78 -170 78q-90 0 -145 -54.5t-55 -145.5q0 -58 25 -103.5t70 -71t103 -25.5q57 0 107 23v192zM465.5 -80.5
q21.5 -18.5 21.5 -48.5q0 -35 -21 -72l-37 -67h-86l26 79q-40 15 -40 60q0 30 21.5 48.5t57.5 18.5t57.5 -18.5z" />
    <glyph glyph-name="gcommaaccent" unicode="&#x123;" horiz-adv-x="705" 
d="M644 542v-443q0 -151 -82 -226.5t-236 -75.5q-80 0 -150 18t-119 53l69 133q33 -27 83.5 -42.5t99.5 -15.5q75 0 110 33t35 98v18q-55 -64 -161 -64q-72 0 -133 32.5t-97 92t-36 137.5q0 77 36 136.5t97 92t133 32.5q116 0 170 -75v66h181zM422.5 210q33.5 31 33.5 80
t-33 79.5t-85 30.5t-85.5 -30.5t-33.5 -79.5t34 -80t85 -31t84.5 31zM441 665q0 -31 -24 -49t-69 -18t-69 18t-24 49q0 28 26 72l49 88h101l-37 -100q47 -15 47 -60z" />
    <glyph glyph-name="Hcircumflex" unicode="&#x124;" horiz-adv-x="806" 
d="M736 700v-700h-198v273h-270v-273h-198v700h198v-263h270v263h198zM489 757l-86 76l-86 -76h-126l130 152h164l130 -152h-126z" />
    <glyph glyph-name="hcircumflex" unicode="&#x125;" horiz-adv-x="696" 
d="M576.5 491q61.5 -60 61.5 -181v-310h-190v279q0 111 -89 111q-49 0 -78.5 -32t-29.5 -96v-262h-190v742h190v-250q31 29 73 44t90 15q101 0 162.5 -60zM242 799l-86 76l-86 -76h-126l130 152h164l130 -152h-126z" />
    <glyph glyph-name="Hbar" unicode="&#x126;" horiz-adv-x="840" 
d="M753 700v-700h-198v273h-270v-273h-198v700h198v-263h270v263h198zM-4 630h847v-121h-847v121z" />
    <glyph glyph-name="hbar" unicode="&#x127;" horiz-adv-x="696" 
d="M576.5 491q61.5 -60 61.5 -181v-310h-190v279q0 111 -89 111q-49 0 -78.5 -32t-29.5 -96v-262h-190v742h190v-250q31 29 73 44t90 15q101 0 162.5 -60zM0 688h420v-99h-420v99z" />
    <glyph glyph-name="Itilde" unicode="&#x128;" horiz-adv-x="339" 
d="M70 700h198v-700h-198v700zM198.5 760.5q-21.5 10.5 -47.5 28.5q-19 13 -28.5 18t-19.5 5q-20 0 -32 -14t-14 -39h-93q2 73 36 116t91 43q27 0 48 -10t48 -28q19 -13 28.5 -18t19.5 -5q20 0 32 13.5t14 36.5h93q-2 -71 -36 -114t-91 -43q-27 0 -48.5 10.5z" />
    <glyph glyph-name="itilde" unicode="&#x129;" horiz-adv-x="313" 
d="M61 542h190v-542h-190v542zM178 611.5q-20 11.5 -42 31.5q-10 9 -19.5 15.5t-16.5 6.5q-30 0 -30 -56h-91q0 78 27.5 118.5t80.5 40.5q26 0 46 -11t43 -31q10 -9 19.5 -15.5t16.5 -6.5q30 0 30 53h91q0 -76 -27.5 -116.5t-80.5 -40.5q-27 0 -47 11.5z" />
    <glyph glyph-name="Imacron" unicode="&#x12a;" horiz-adv-x="339" 
d="M70 700h198v-700h-198v700zM9 883h320v-102h-320v102z" />
    <glyph glyph-name="imacron" unicode="&#x12b;" horiz-adv-x="313" 
d="M61 542h190v-542h-190v542zM-4 734h320v-102h-320v102z" />
    <glyph glyph-name="Ibreve" unicode="&#x12c;" horiz-adv-x="339" 
d="M70 700h198v-700h-198v700zM30 791.5q-54 43.5 -57 117.5h116q1 -30 24 -48t56 -18t56 18t24 48h116q-3 -74 -57 -117.5t-139 -43.5t-139 43.5z" />
    <glyph glyph-name="ibreve" unicode="&#x12d;" horiz-adv-x="313" 
d="M61 542h190v-542h-190v542zM33.5 642q-47.5 44 -48.5 117h111q0 -31 16 -49.5t44 -18.5t44 18.5t16 49.5h111q-1 -73 -48.5 -117t-122.5 -44t-122.5 44z" />
    <glyph glyph-name="Iogonek" unicode="&#x12e;" horiz-adv-x="339" 
d="M70 700h198v-700h-198v700zM121.5 -203.5q-36.5 32.5 -36.5 85.5q0 51 33.5 93.5t96.5 70.5l53 -46q-37 -27 -52 -51t-15 -50q0 -20 11.5 -32.5t28.5 -12.5q16 0 32 11l23 -79q-15 -10 -35.5 -16t-43.5 -6q-59 0 -95.5 32.5z" />
    <glyph glyph-name="iogonek" unicode="&#x12f;" horiz-adv-x="313" 
d="M61 542h190v-542h-190v542zM72 631q-32 29 -32 72t32 72t84 29t84 -27.5t32 -70.5q0 -45 -32 -74.5t-84 -29.5t-84 29zM104.5 -203.5q-36.5 32.5 -36.5 85.5q0 51 33.5 93.5t96.5 70.5l53 -46q-37 -27 -52 -51t-15 -50q0 -20 11.5 -32.5t28.5 -12.5q16 0 32 11l23 -79
q-15 -10 -35.5 -16t-43.5 -6q-59 0 -95.5 32.5z" />
    <glyph glyph-name="Idotaccent" unicode="&#x130;" horiz-adv-x="339" 
d="M70 700h198v-700h-198v700zM97.5 783q-27.5 28 -27.5 71t28 70.5t71 27.5t71 -27.5t28 -70.5t-28 -71t-71 -28q-44 0 -71.5 28z" />
    <glyph glyph-name="dotlessi" unicode="&#x131;" horiz-adv-x="313" 
d="M61 542h190v-542h-190v542z" />
    <glyph glyph-name="IJ" unicode="&#x132;" horiz-adv-x="727" 
d="M172.5 7.5q-72.5 21.5 -125.5 59.5l72 144q47 -31 100 -47.5t102 -16.5q72 0 107.5 39.5t35.5 122.5v391h198v-380q0 -107 -41 -182t-116.5 -113.5t-176.5 -38.5q-83 0 -155.5 21.5zM64 700h198v-371h-198v371z" />
    <glyph glyph-name="ij" unicode="&#x133;" horiz-adv-x="633" 
d="M61 542h190v-542h-190v542zM72 631q-32 29 -32 72t32 72t84 29t84 -27.5t32 -70.5q0 -45 -32 -74.5t-84 -29.5t-84 29zM219 -175l48 135q26 -16 59 -16q26 0 41 18t15 53v527h190v-528q0 -100 -58.5 -158.5t-162.5 -58.5q-83 0 -132 28zM393 631q-32 29 -32 72t32 72
t84 29t84 -27.5t32 -70.5q0 -45 -32 -74.5t-84 -29.5t-84 29z" />
    <glyph glyph-name="Jcircumflex" unicode="&#x134;" horiz-adv-x="557" 
d="M83 12.5q-63 26.5 -103 76.5l108 128q56 -73 121 -73q43 0 65.5 26t22.5 76v301h-242v153h438v-442q0 -136 -68.5 -204t-201.5 -68q-77 0 -140 26.5zM360 757l-86 76l-86 -76h-126l130 152h164l130 -152h-126z" />
    <glyph glyph-name="jcircumflex" unicode="&#x135;" horiz-adv-x="320" 
d="M-94 -175l48 135q26 -16 59 -16q26 0 41 18t15 53v527h190v-528q0 -100 -58.5 -158.5t-162.5 -58.5q-83 0 -132 28zM226 607l-62 69l-62 -69h-125l107 152h160l107 -152h-125z" />
    <glyph glyph-name="Kcommaaccent" unicode="&#x136;" horiz-adv-x="752" 
d="M340 254l-74 -79v-175h-196v700h196v-291l271 291h218l-286 -310l301 -390h-230zM439.5 -80.5q21.5 -18.5 21.5 -48.5q0 -35 -21 -72l-37 -67h-86l26 79q-40 15 -40 60q0 30 21.5 48.5t57.5 18.5t57.5 -18.5z" />
    <glyph glyph-name="kcommaaccent" unicode="&#x137;" horiz-adv-x="686" 
d="M307 190l-56 -57v-133h-190v742h190v-389l194 189h225l-225 -232l244 -310h-230zM377.5 -80.5q21.5 -18.5 21.5 -48.5q0 -35 -21 -72l-37 -67h-86l26 79q-40 15 -40 60q0 30 21.5 48.5t57.5 18.5t57.5 -18.5z" />
    <glyph glyph-name="kgreenlandic" unicode="&#x138;" horiz-adv-x="667" 
d="M307 190l-56 -57v-133h-190v542h190v-189l194 189h225l-225 -232l244 -310h-230z" />
    <glyph glyph-name="Lacute" unicode="&#x139;" horiz-adv-x="610" 
d="M70 700h198v-543h334v-157h-532v700zM205 909h190l-188 -152h-136z" />
    <glyph glyph-name="lacute" unicode="&#x13a;" horiz-adv-x="313" 
d="M61 742h190v-742h-190v742zM192 959h190l-188 -152h-136z" />
    <glyph glyph-name="Lcommaaccent" unicode="&#x13b;" horiz-adv-x="610" 
d="M70 700h198v-543h334v-157h-532v700zM405.5 -80.5q21.5 -18.5 21.5 -48.5q0 -35 -21 -72l-37 -67h-86l26 79q-40 15 -40 60q0 30 21.5 48.5t57.5 18.5t57.5 -18.5z" />
    <glyph glyph-name="lcommaaccent" unicode="&#x13c;" horiz-adv-x="313" 
d="M61 742h190v-742h-190v742zM213.5 -80.5q21.5 -18.5 21.5 -48.5q0 -35 -21 -72l-37 -67h-86l26 79q-40 15 -40 60q0 30 21.5 48.5t57.5 18.5t57.5 -18.5z" />
    <glyph glyph-name="Lcaron" unicode="&#x13d;" horiz-adv-x="610" 
d="M70 700h198v-543h334v-157h-532v700zM427 745h137l-25 -205h-112v205z" />
    <glyph glyph-name="lcaron" unicode="&#x13e;" horiz-adv-x="313" 
d="M61 742h190v-742h-190v742zM326 787h137l-25 -205h-112v205z" />
    <glyph glyph-name="Ldot" unicode="&#x13f;" horiz-adv-x="610" 
d="M70 700h198v-543h334v-157h-532v700zM403.5 356q-27.5 28 -27.5 72t28 72t71 28t71 -28t28 -72t-27.5 -72t-71.5 -28t-71.5 28z" />
    <glyph glyph-name="ldot" unicode="&#x140;" horiz-adv-x="462" 
d="M61 742h190v-742h-190v742zM322 301q-25 25 -25 65t25 65t65 25t65.5 -25t25.5 -65t-25.5 -65t-65.5 -25t-65 25z" />
    <glyph glyph-name="Lslash" unicode="&#x141;" horiz-adv-x="627" 
d="M87 700h198v-543h334v-157h-532v700zM-24 303l409 306l64 -89l-409 -305z" />
    <glyph glyph-name="lslash" unicode="&#x142;" horiz-adv-x="347" 
d="M78 742h190v-742h-190v742zM-37 278l357 266l63 -90l-356 -265z" />
    <glyph glyph-name="Nacute" unicode="&#x143;" horiz-adv-x="806" 
d="M736 700v-700h-163l-309 373v-373h-194v700h163l309 -373v373h194zM439 909h190l-188 -152h-136z" />
    <glyph glyph-name="nacute" unicode="&#x144;" horiz-adv-x="696" 
d="M576.5 491q61.5 -60 61.5 -181v-310h-190v279q0 111 -89 111q-49 0 -78.5 -32t-29.5 -96v-262h-190v542h181v-59q32 33 76 50.5t96 17.5q101 0 162.5 -60zM388 759h190l-188 -152h-136z" />
    <glyph glyph-name="Ncommaaccent" unicode="&#x145;" horiz-adv-x="806" 
d="M736 700v-700h-163l-309 373v-373h-194v700h163l309 -373v373h194zM460.5 -80.5q21.5 -18.5 21.5 -48.5q0 -35 -21 -72l-37 -67h-86l26 79q-40 15 -40 60q0 30 21.5 48.5t57.5 18.5t57.5 -18.5z" />
    <glyph glyph-name="ncommaaccent" unicode="&#x146;" horiz-adv-x="696" 
d="M576.5 491q61.5 -60 61.5 -181v-310h-190v279q0 111 -89 111q-49 0 -78.5 -32t-29.5 -96v-262h-190v542h181v-59q32 33 76 50.5t96 17.5q101 0 162.5 -60zM409.5 -80.5q21.5 -18.5 21.5 -48.5q0 -35 -21 -72l-37 -67h-86l26 79q-40 15 -40 60q0 30 21.5 48.5t57.5 18.5
t57.5 -18.5z" />
    <glyph glyph-name="Ncaron" unicode="&#x147;" horiz-adv-x="806" 
d="M736 700v-700h-163l-309 373v-373h-194v700h163l309 -373v373h194zM615 909l-130 -152h-164l-130 152h126l86 -76l86 76h126z" />
    <glyph glyph-name="ncaron" unicode="&#x148;" horiz-adv-x="696" 
d="M576.5 491q61.5 -60 61.5 -181v-310h-190v279q0 111 -89 111q-49 0 -78.5 -32t-29.5 -96v-262h-190v542h181v-59q32 33 76 50.5t96 17.5q101 0 162.5 -60zM564 759l-130 -152h-164l-130 152h126l86 -76l86 76h126z" />
    <glyph glyph-name="napostrophe" unicode="&#x149;" horiz-adv-x="849" 
d="M36 700h123l-26 -263h-98zM729.5 491q61.5 -60 61.5 -181v-310h-190v279q0 111 -89 111q-49 0 -78.5 -32t-29.5 -96v-262h-190v542h181v-59q32 33 76 50.5t96 17.5q101 0 162.5 -60z" />
    <glyph glyph-name="Eng" unicode="&#x14a;" horiz-adv-x="806" 
d="M736 700v-614q0 -147 -67 -218t-200 -71q-117 0 -192 59l91 134q41 -35 87 -35q78 0 86 83l-277 335v-373h-194v700h163l309 -373v373h194z" />
    <glyph glyph-name="eng" unicode="&#x14b;" horiz-adv-x="696" 
d="M576.5 491q61.5 -60 61.5 -181v-296q0 -100 -58.5 -158.5t-162.5 -58.5q-83 0 -132 28l48 135q26 -16 59 -16q26 0 41 18t15 53v264q0 111 -89 111q-49 0 -78.5 -32t-29.5 -96v-262h-190v542h181v-59q32 33 76 50.5t96 17.5q101 0 162.5 -60z" />
    <glyph glyph-name="Omacron" unicode="&#x14c;" horiz-adv-x="846" 
d="M223.5 33q-88.5 47 -139 130t-50.5 187t50.5 187t139 130t199.5 47t199.5 -47t139 -130t50.5 -187t-50.5 -187t-139 -130t-199.5 -47t-199.5 47zM519 175q43 25 68 70.5t25 104.5t-25 104.5t-68 70.5t-96 25t-96 -25t-68 -70.5t-25 -104.5t25 -104.5t68 -70.5t96 -25
t96 25zM226 884h394v-102h-394v102z" />
    <glyph glyph-name="omacron" unicode="&#x14d;" horiz-adv-x="666" 
d="M176 27q-70 36 -109.5 100t-39.5 145q0 80 39.5 144t109 99.5t157.5 35.5t158 -35.5t109 -99t39 -144.5t-39 -145t-109 -100t-158 -36q-87 0 -157 36zM415 176.5q32 34.5 32 95.5q0 60 -32 94t-82 34t-82 -34t-32 -94q0 -61 32 -95.5t82 -34.5t82 34.5zM134 734h394v-102
h-394v102z" />
    <glyph glyph-name="Obreve" unicode="&#x14e;" horiz-adv-x="846" 
d="M223.5 33q-88.5 47 -139 130t-50.5 187t50.5 187t139 130t199.5 47t199.5 -47t139 -130t50.5 -187t-50.5 -187t-139 -130t-199.5 -47t-199.5 47zM519 175q43 25 68 70.5t25 104.5t-25 104.5t-68 70.5t-96 25t-96 -25t-68 -70.5t-25 -104.5t25 -104.5t68 -70.5t96 -25
t96 25zM284 791.5q-54 43.5 -57 117.5h116q1 -30 24 -48t56 -18t56 18t24 48h116q-3 -74 -57 -117.5t-139 -43.5t-139 43.5z" />
    <glyph glyph-name="obreve" unicode="&#x14f;" horiz-adv-x="666" 
d="M176 27q-70 36 -109.5 100t-39.5 145q0 80 39.5 144t109 99.5t157.5 35.5t158 -35.5t109 -99t39 -144.5t-39 -145t-109 -100t-158 -36q-87 0 -157 36zM415 176.5q32 34.5 32 95.5q0 60 -32 94t-82 34t-82 -34t-32 -94q0 -61 32 -95.5t82 -34.5t82 34.5zM192 641.5
q-54 43.5 -57 117.5h116q1 -30 24 -48t56 -18t56 18t24 48h116q-3 -74 -57 -117.5t-139 -43.5t-139 43.5z" />
    <glyph glyph-name="Ohungarumlaut" unicode="&#x150;" horiz-adv-x="846" 
d="M223.5 33q-88.5 47 -139 130t-50.5 187t50.5 187t139 130t199.5 47t199.5 -47t139 -130t50.5 -187t-50.5 -187t-139 -130t-199.5 -47t-199.5 47zM519 175q43 25 68 70.5t25 104.5t-25 104.5t-68 70.5t-96 25t-96 -25t-68 -70.5t-25 -104.5t25 -104.5t68 -70.5t96 -25
t96 25zM311 909h170l-101 -152h-132zM528 909h170l-100 -152h-132z" />
    <glyph glyph-name="ohungarumlaut" unicode="&#x151;" horiz-adv-x="666" 
d="M176 27q-70 36 -109.5 100t-39.5 145q0 80 39.5 144t109 99.5t157.5 35.5t158 -35.5t109 -99t39 -144.5t-39 -145t-109 -100t-158 -36q-87 0 -157 36zM415 176.5q32 34.5 32 95.5q0 60 -32 94t-82 34t-82 -34t-32 -94q0 -61 32 -95.5t82 -34.5t82 34.5zM219 759h170
l-101 -152h-132zM436 759h170l-100 -152h-132z" />
    <glyph glyph-name="OE" unicode="&#x152;" horiz-adv-x="1142" 
d="M1102 153v-153h-677q-115 0 -204 43t-138 122t-49 185t49 185t138 122t204 43h664v-153h-353v-118h311v-148h-311v-128h366zM541 158v384h-108q-90 0 -144.5 -51t-54.5 -141t54.5 -141t144.5 -51h108z" />
    <glyph glyph-name="oe" unicode="&#x153;" horiz-adv-x="1063" 
d="M1033 223h-397q12 -41 47 -64t88 -23q36 0 65.5 11.5t57.5 35.5l103 -104q-39 -43 -99 -65.5t-132 -22.5q-71 0 -128 21.5t-97 60.5q-38 -39 -91.5 -60.5t-119.5 -21.5q-86 0 -155 36t-108.5 100t-39.5 145q0 80 39.5 143.5t108.5 99.5t155 36q65 0 118.5 -21t91.5 -59
q37 38 90 59t116 21q80 0 146 -33.5t105 -96.5t39 -149q0 -26 -3 -49zM671.5 391q-29.5 -25 -37.5 -68h222q-8 43 -36.5 68t-73.5 25t-74.5 -25zM415 176.5q32 34.5 32 95.5q0 60 -32 94t-82 34t-82 -34t-32 -94q0 -61 32 -95.5t82 -34.5t82 34.5z" />
    <glyph glyph-name="Racute" unicode="&#x154;" horiz-adv-x="740" 
d="M376 186h-108v-186h-198v700h320q95 0 165 -31.5t108 -90t38 -137.5q0 -76 -35.5 -132.5t-101.5 -88.5l151 -220h-212zM470 517q-31 27 -92 27h-110v-205h110q61 0 92 26.5t31 75.5t-31 76zM413 909h190l-188 -152h-136z" />
    <glyph glyph-name="racute" unicode="&#x155;" horiz-adv-x="443" 
d="M317.5 532.5q46.5 18.5 106.5 18.5v-171q-26 3 -43 3q-61 0 -95.5 -33t-34.5 -101v-249h-190v542h181v-65q29 37 75.5 55.5zM278 759h190l-188 -152h-136z" />
    <glyph glyph-name="Rcommaaccent" unicode="&#x156;" horiz-adv-x="740" 
d="M376 186h-108v-186h-198v700h320q95 0 165 -31.5t108 -90t38 -137.5q0 -76 -35.5 -132.5t-101.5 -88.5l151 -220h-212zM470 517q-31 27 -92 27h-110v-205h110q61 0 92 26.5t31 75.5t-31 76zM434.5 -80.5q21.5 -18.5 21.5 -48.5q0 -35 -21 -72l-37 -67h-86l26 79
q-40 15 -40 60q0 30 21.5 48.5t57.5 18.5t57.5 -18.5z" />
    <glyph glyph-name="rcommaaccent" unicode="&#x157;" horiz-adv-x="443" 
d="M317.5 532.5q46.5 18.5 106.5 18.5v-171q-26 3 -43 3q-61 0 -95.5 -33t-34.5 -101v-249h-190v542h181v-65q29 37 75.5 55.5zM213.5 -80.5q21.5 -18.5 21.5 -48.5q0 -35 -21 -72l-37 -67h-86l26 79q-40 15 -40 60q0 30 21.5 48.5t57.5 18.5t57.5 -18.5z" />
    <glyph glyph-name="Rcaron" unicode="&#x158;" horiz-adv-x="740" 
d="M376 186h-108v-186h-198v700h320q95 0 165 -31.5t108 -90t38 -137.5q0 -76 -35.5 -132.5t-101.5 -88.5l151 -220h-212zM470 517q-31 27 -92 27h-110v-205h110q61 0 92 26.5t31 75.5t-31 76zM589 909l-130 -152h-164l-130 152h126l86 -76l86 76h126z" />
    <glyph glyph-name="rcaron" unicode="&#x159;" horiz-adv-x="443" 
d="M317.5 532.5q46.5 18.5 106.5 18.5v-171q-26 3 -43 3q-61 0 -95.5 -33t-34.5 -101v-249h-190v542h181v-65q29 37 75.5 55.5zM454 759l-130 -152h-164l-130 152h126l86 -76l86 76h126z" />
    <glyph glyph-name="Sacute" unicode="&#x15a;" horiz-adv-x="647" 
d="M151 7q-80 21 -130 56l65 146q47 -31 109 -50t122 -19q114 0 114 57q0 30 -32.5 44.5t-104.5 30.5q-79 17 -132 36.5t-91 62.5t-38 116q0 64 35 115.5t104.5 81.5t170.5 30q69 0 136 -15.5t118 -45.5l-61 -147q-100 54 -194 54q-59 0 -86 -17.5t-27 -45.5t32 -42t103 -29
q80 -17 132.5 -36.5t91 -62t38.5 -115.5q0 -63 -35 -114t-105 -81.5t-170 -30.5q-85 0 -165 21zM363 909h190l-188 -152h-136z" />
    <glyph glyph-name="sacute" unicode="&#x15b;" horiz-adv-x="547" 
d="M124 6.5q-66 15.5 -106 40.5l57 130q37 -23 88 -36.5t101 -13.5q46 0 65.5 9.5t19.5 27.5t-23.5 25.5t-74.5 14.5q-65 8 -110.5 21t-78.5 48t-33 98q0 52 31 92.5t90.5 64t142.5 23.5q59 0 117 -12t97 -34l-57 -129q-72 40 -156 40q-45 0 -66 -10.5t-21 -27.5
q0 -19 23 -26.5t76 -15.5q67 -10 111 -23t76.5 -47.5t32.5 -96.5q0 -51 -31 -91.5t-91.5 -63.5t-145.5 -23q-68 0 -134 15.5zM304 759h190l-188 -152h-136z" />
    <glyph glyph-name="Scircumflex" unicode="&#x15c;" horiz-adv-x="647" 
d="M151 7q-80 21 -130 56l65 146q47 -31 109 -50t122 -19q114 0 114 57q0 30 -32.5 44.5t-104.5 30.5q-79 17 -132 36.5t-91 62.5t-38 116q0 64 35 115.5t104.5 81.5t170.5 30q69 0 136 -15.5t118 -45.5l-61 -147q-100 54 -194 54q-59 0 -86 -17.5t-27 -45.5t32 -42t103 -29
q80 -17 132.5 -36.5t91 -62t38.5 -115.5q0 -63 -35 -114t-105 -81.5t-170 -30.5q-85 0 -165 21zM413 757l-86 76l-86 -76h-126l130 152h164l130 -152h-126z" />
    <glyph glyph-name="scircumflex" unicode="&#x15d;" horiz-adv-x="547" 
d="M124 6.5q-66 15.5 -106 40.5l57 130q37 -23 88 -36.5t101 -13.5q46 0 65.5 9.5t19.5 27.5t-23.5 25.5t-74.5 14.5q-65 8 -110.5 21t-78.5 48t-33 98q0 52 31 92.5t90.5 64t142.5 23.5q59 0 117 -12t97 -34l-57 -129q-72 40 -156 40q-45 0 -66 -10.5t-21 -27.5
q0 -19 23 -26.5t76 -15.5q67 -10 111 -23t76.5 -47.5t32.5 -96.5q0 -51 -31 -91.5t-91.5 -63.5t-145.5 -23q-68 0 -134 15.5zM354 607l-86 76l-86 -76h-126l130 152h164l130 -152h-126z" />
    <glyph glyph-name="Scedilla" unicode="&#x15e;" horiz-adv-x="647" 
d="M151 7q-80 21 -130 56l65 146q47 -31 109 -50t122 -19q114 0 114 57q0 30 -32.5 44.5t-104.5 30.5q-79 17 -132 36.5t-91 62.5t-38 116q0 64 35 115.5t104.5 81.5t170.5 30q69 0 136 -15.5t118 -45.5l-61 -147q-100 54 -194 54q-59 0 -86 -17.5t-27 -45.5t32 -42t103 -29
q80 -17 132.5 -36.5t91 -62t38.5 -115.5q0 -63 -35 -114t-105 -81.5t-170 -30.5q-85 0 -165 21zM238.5 -230q-26.5 6 -43.5 15l26 75q30 -14 62 -14q50 0 50 28q0 25 -45 25h-37l26 110h99l-14 -60q44 -5 65 -27.5t21 -53.5q0 -48 -43 -76t-115 -28q-25 0 -51.5 6z" />
    <glyph glyph-name="scedilla" unicode="&#x15f;" horiz-adv-x="547" 
d="M124 6.5q-66 15.5 -106 40.5l57 130q37 -23 88 -36.5t101 -13.5q46 0 65.5 9.5t19.5 27.5t-23.5 25.5t-74.5 14.5q-65 8 -110.5 21t-78.5 48t-33 98q0 52 31 92.5t90.5 64t142.5 23.5q59 0 117 -12t97 -34l-57 -129q-72 40 -156 40q-45 0 -66 -10.5t-21 -27.5
q0 -19 23 -26.5t76 -15.5q67 -10 111 -23t76.5 -47.5t32.5 -96.5q0 -51 -31 -91.5t-91.5 -63.5t-145.5 -23q-68 0 -134 15.5zM179.5 -230q-26.5 6 -43.5 15l26 75q30 -14 62 -14q50 0 50 28q0 25 -45 25h-37l26 110h99l-14 -60q44 -5 65 -27.5t21 -53.5q0 -48 -43 -76
t-115 -28q-25 0 -51.5 6z" />
    <glyph glyph-name="Scaron" unicode="&#x160;" horiz-adv-x="647" 
d="M151 7q-80 21 -130 56l65 146q47 -31 109 -50t122 -19q114 0 114 57q0 30 -32.5 44.5t-104.5 30.5q-79 17 -132 36.5t-91 62.5t-38 116q0 64 35 115.5t104.5 81.5t170.5 30q69 0 136 -15.5t118 -45.5l-61 -147q-100 54 -194 54q-59 0 -86 -17.5t-27 -45.5t32 -42t103 -29
q80 -17 132.5 -36.5t91 -62t38.5 -115.5q0 -63 -35 -114t-105 -81.5t-170 -30.5q-85 0 -165 21zM539 909l-130 -152h-164l-130 152h126l86 -76l86 76h126z" />
    <glyph glyph-name="scaron" unicode="&#x161;" horiz-adv-x="547" 
d="M124 6.5q-66 15.5 -106 40.5l57 130q37 -23 88 -36.5t101 -13.5q46 0 65.5 9.5t19.5 27.5t-23.5 25.5t-74.5 14.5q-65 8 -110.5 21t-78.5 48t-33 98q0 52 31 92.5t90.5 64t142.5 23.5q59 0 117 -12t97 -34l-57 -129q-72 40 -156 40q-45 0 -66 -10.5t-21 -27.5
q0 -19 23 -26.5t76 -15.5q67 -10 111 -23t76.5 -47.5t32.5 -96.5q0 -51 -31 -91.5t-91.5 -63.5t-145.5 -23q-68 0 -134 15.5zM480 759l-130 -152h-164l-130 152h126l86 -76l86 76h126z" />
    <glyph glyph-name="uni0162" unicode="&#x162;" horiz-adv-x="635" 
d="M219 543h-215v157h627v-157h-214v-543h-198v543zM229.5 -230q-26.5 6 -43.5 15l26 75q30 -14 62 -14q50 0 50 28q0 25 -45 25h-37l26 110h99l-14 -60q44 -5 65 -27.5t21 -53.5q0 -48 -43 -76t-115 -28q-25 0 -51.5 6z" />
    <glyph glyph-name="uni0163" unicode="&#x163;" horiz-adv-x="447" 
d="M435 22q-24 -15 -58.5 -23t-73.5 -8q-106 0 -163 52t-57 155v182h-79v142h79v141h190v-141h124v-142h-124v-180q0 -29 15.5 -45.5t41.5 -16.5q33 0 58 17zM179.5 -230q-26.5 6 -43.5 15l26 75q30 -14 62 -14q50 0 50 28q0 25 -45 25h-37l26 110h99l-14 -60
q44 -5 65 -27.5t21 -53.5q0 -48 -43 -76t-115 -28q-25 0 -51.5 6z" />
    <glyph glyph-name="Tcaron" unicode="&#x164;" horiz-adv-x="635" 
d="M219 543h-215v157h627v-157h-214v-543h-198v543zM530 909l-130 -152h-164l-130 152h126l86 -76l86 76h126z" />
    <glyph glyph-name="tcaron" unicode="&#x165;" horiz-adv-x="447" 
d="M435 22q-24 -15 -58.5 -23t-73.5 -8q-106 0 -163 52t-57 155v182h-79v142h79v141h190v-141h124v-142h-124v-180q0 -29 15.5 -45.5t41.5 -16.5q33 0 58 17zM331 769h129l-18 -197h-111v197z" />
    <glyph glyph-name="Tbar" unicode="&#x166;" horiz-adv-x="635" 
d="M219 543h-215v157h627v-157h-214v-543h-198v543zM93 383h450v-122h-450v122z" />
    <glyph glyph-name="tbar" unicode="&#x167;" horiz-adv-x="457" 
d="M440 22q-24 -15 -58.5 -23t-73.5 -8q-106 0 -163 52t-57 155v182h-79v142h79v141h190v-141h124v-142h-124v-180q0 -29 15.5 -45.5t41.5 -16.5q33 0 58 17zM22 318h367v-100h-367v100z" />
    <glyph glyph-name="Utilde" unicode="&#x168;" horiz-adv-x="786" 
d="M150.5 71q-86.5 85 -86.5 241v388h198v-382q0 -168 133 -168q132 0 132 168v382h195v-388q0 -156 -86.5 -241t-242.5 -85t-242.5 85zM424.5 760.5q-21.5 10.5 -47.5 28.5q-19 13 -28.5 18t-19.5 5q-20 0 -32 -14t-14 -39h-93q2 73 36 116t91 43q27 0 48 -10t48 -28
q19 -13 28.5 -18t19.5 -5q20 0 32 13.5t14 36.5h93q-2 -71 -36 -114t-91 -43q-27 0 -48.5 10.5z" />
    <glyph glyph-name="utilde" unicode="&#x169;" horiz-adv-x="692" 
d="M631 542v-542h-181v58q-30 -33 -72 -50t-89 -17q-105 0 -167.5 62t-62.5 186v303h190v-272q0 -61 23 -89t67 -28q45 0 73.5 31.5t28.5 96.5v261h190zM374.5 610.5q-21.5 10.5 -47.5 28.5q-19 13 -28.5 18t-19.5 5q-20 0 -32 -14t-14 -39h-93q2 73 36 116t91 43
q27 0 48 -10t48 -28q19 -13 28.5 -18t19.5 -5q20 0 32 13.5t14 36.5h93q-2 -71 -36 -114t-91 -43q-27 0 -48.5 10.5z" />
    <glyph glyph-name="Umacron" unicode="&#x16a;" horiz-adv-x="786" 
d="M150.5 71q-86.5 85 -86.5 241v388h198v-382q0 -168 133 -168q132 0 132 168v382h195v-388q0 -156 -86.5 -241t-242.5 -85t-242.5 85zM198 884h394v-102h-394v102z" />
    <glyph glyph-name="umacron" unicode="&#x16b;" horiz-adv-x="692" 
d="M631 542v-542h-181v58q-30 -33 -72 -50t-89 -17q-105 0 -167.5 62t-62.5 186v303h190v-272q0 -61 23 -89t67 -28q45 0 73.5 31.5t28.5 96.5v261h190zM148 734h394v-102h-394v102z" />
    <glyph glyph-name="Ubreve" unicode="&#x16c;" horiz-adv-x="786" 
d="M150.5 71q-86.5 85 -86.5 241v388h198v-382q0 -168 133 -168q132 0 132 168v382h195v-388q0 -156 -86.5 -241t-242.5 -85t-242.5 85zM256 791.5q-54 43.5 -57 117.5h116q1 -30 24 -48t56 -18t56 18t24 48h116q-3 -74 -57 -117.5t-139 -43.5t-139 43.5z" />
    <glyph glyph-name="ubreve" unicode="&#x16d;" horiz-adv-x="692" 
d="M631 542v-542h-181v58q-30 -33 -72 -50t-89 -17q-105 0 -167.5 62t-62.5 186v303h190v-272q0 -61 23 -89t67 -28q45 0 73.5 31.5t28.5 96.5v261h190zM206 641.5q-54 43.5 -57 117.5h116q1 -30 24 -48t56 -18t56 18t24 48h116q-3 -74 -57 -117.5t-139 -43.5t-139 43.5z
" />
    <glyph glyph-name="Uring" unicode="&#x16e;" horiz-adv-x="786" 
d="M150.5 71q-86.5 85 -86.5 241v388h198v-382q0 -168 133 -168q132 0 132 168v382h195v-388q0 -156 -86.5 -241t-242.5 -85t-242.5 85zM301 786q-38 37 -38 90q0 54 38 91t94 37q36 0 66.5 -17t48 -46.5t17.5 -64.5q0 -53 -38.5 -90t-93.5 -37q-56 0 -94 37zM435.5 835
q16.5 16 16.5 41t-16.5 41.5t-40.5 16.5t-40.5 -16.5t-16.5 -41.5t16.5 -41t40.5 -16t40.5 16z" />
    <glyph glyph-name="uring" unicode="&#x16f;" horiz-adv-x="692" 
d="M631 542v-542h-181v58q-30 -33 -72 -50t-89 -17q-105 0 -167.5 62t-62.5 186v303h190v-272q0 -61 23 -89t67 -28q45 0 73.5 31.5t28.5 96.5v261h190zM251 628q-38 37 -38 90q0 54 38 91t94 37q36 0 66.5 -17t48 -46.5t17.5 -64.5q0 -53 -38.5 -90t-93.5 -37q-56 0 -94 37
zM385.5 677q16.5 16 16.5 41t-16.5 41.5t-40.5 16.5t-40.5 -16.5t-16.5 -41.5t16.5 -41t40.5 -16t40.5 16z" />
    <glyph glyph-name="Uhungarumlaut" unicode="&#x170;" horiz-adv-x="786" 
d="M150.5 71q-86.5 85 -86.5 241v388h198v-382q0 -168 133 -168q132 0 132 168v382h195v-388q0 -156 -86.5 -241t-242.5 -85t-242.5 85zM283 909h170l-101 -152h-132zM500 909h170l-100 -152h-132z" />
    <glyph glyph-name="uhungarumlaut" unicode="&#x171;" horiz-adv-x="692" 
d="M631 542v-542h-181v58q-30 -33 -72 -50t-89 -17q-105 0 -167.5 62t-62.5 186v303h190v-272q0 -61 23 -89t67 -28q45 0 73.5 31.5t28.5 96.5v261h190zM233 759h170l-101 -152h-132zM450 759h170l-100 -152h-132z" />
    <glyph glyph-name="Uogonek" unicode="&#x172;" horiz-adv-x="786" 
d="M722 700v-388q0 -120 -50 -195t-140 -110q-77 -29 -108 -55.5t-31 -53.5q0 -20 14 -32t41 -12q31 0 59 15l25 -82q-18 -10 -47.5 -16.5t-58.5 -6.5q-70 0 -109 32t-39 85q0 62 55 109q-128 15 -198.5 98.5t-70.5 223.5v388h198v-382q0 -168 133 -168q132 0 132 168v382
h195z" />
    <glyph glyph-name="uogonek" unicode="&#x173;" horiz-adv-x="692" 
d="M631 542v-542h-181v58q-30 -33 -72 -50t-89 -17q-105 0 -167.5 62t-62.5 186v303h190v-272q0 -61 23 -89t67 -28q45 0 73.5 31.5t28.5 96.5v261h190zM440 -204q-39 32 -39 85q0 52 40.5 94.5t119.5 69.5l70 -45q-63 -28 -89 -52t-26 -50q0 -20 14.5 -32t40.5 -12
q32 0 60 15l25 -82q-19 -10 -48.5 -16.5t-58.5 -6.5q-70 0 -109 32z" />
    <glyph glyph-name="Wcircumflex" unicode="&#x174;" horiz-adv-x="1184" 
d="M1168 700l-227 -700h-212l-134 426l-140 -426h-212l-227 700h204l141 -447l148 447h182l141 -451l147 451h189zM678 757l-86 76l-86 -76h-126l130 152h164l130 -152h-126z" />
    <glyph glyph-name="wcircumflex" unicode="&#x175;" horiz-adv-x="956" 
d="M959 542l-193 -542h-184l-102 295l-106 -295h-184l-193 542h180l111 -328l115 328h162l112 -331l115 331h167zM564 607l-86 76l-86 -76h-126l130 152h164l130 -152h-126z" />
    <glyph glyph-name="Ycircumflex" unicode="&#x176;" horiz-adv-x="693" 
d="M445 251v-251h-198v254l-267 446h209l166 -278l166 278h192zM432 757l-86 76l-86 -76h-126l130 152h164l130 -152h-126z" />
    <glyph glyph-name="ycircumflex" unicode="&#x177;" horiz-adv-x="620" 
d="M632 542l-234 -564q-41 -100 -100 -140.5t-144 -40.5q-43 0 -86.5 13.5t-70.5 35.5l66 133q16 -15 38.5 -23.5t45.5 -8.5q27 0 44.5 11t29.5 35l-232 549h195l133 -331l134 331h181zM386 607l-86 76l-86 -76h-126l130 152h164l130 -152h-126z" />
    <glyph glyph-name="Ydieresis" unicode="&#x178;" horiz-adv-x="693" 
d="M445 251v-251h-198v254l-267 446h209l166 -278l166 278h192zM183.5 777.5q-22.5 21.5 -22.5 56.5t22.5 57t56.5 22t56.5 -22t22.5 -57t-22.5 -56.5t-56.5 -21.5t-56.5 21.5zM395.5 777.5q-22.5 21.5 -22.5 56.5t22.5 57t56.5 22t56.5 -22t22.5 -57t-22.5 -56.5
t-56.5 -21.5t-56.5 21.5z" />
    <glyph glyph-name="Zacute" unicode="&#x179;" horiz-adv-x="679" 
d="M662 157v-157h-627v124l353 419h-344v157h603v-124l-353 -419h368zM385 909h190l-188 -152h-136z" />
    <glyph glyph-name="zacute" unicode="&#x17a;" horiz-adv-x="556" 
d="M533 142v-142h-500v112l251 289h-244v141h483v-111l-251 -289h261zM318 759h190l-188 -152h-136z" />
    <glyph glyph-name="Zdotaccent" unicode="&#x17b;" horiz-adv-x="679" 
d="M662 157v-157h-627v124l353 419h-344v157h603v-124l-353 -419h368zM277.5 783q-27.5 28 -27.5 71t28 70.5t71 27.5t71 -27.5t28 -70.5t-28 -71t-71 -28q-44 0 -71.5 28z" />
    <glyph glyph-name="zdotaccent" unicode="&#x17c;" horiz-adv-x="556" 
d="M533 142v-142h-500v112l251 289h-244v141h483v-111l-251 -289h261zM210.5 633q-27.5 28 -27.5 71t28 70.5t71 27.5t71 -27.5t28 -70.5t-28 -71t-71 -28q-44 0 -71.5 28z" />
    <glyph glyph-name="Zcaron" unicode="&#x17d;" horiz-adv-x="679" 
d="M662 157v-157h-627v124l353 419h-344v157h603v-124l-353 -419h368zM561 909l-130 -152h-164l-130 152h126l86 -76l86 76h126z" />
    <glyph glyph-name="zcaron" unicode="&#x17e;" horiz-adv-x="556" 
d="M533 142v-142h-500v112l251 289h-244v141h483v-111l-251 -289h261zM494 759l-130 -152h-164l-130 152h126l86 -76l86 76h126z" />
    <glyph glyph-name="longs" unicode="&#x17f;" horiz-adv-x="349" 
d="M391 744q34 -7 56 -21l-47 -134q-28 16 -57 16q-58 0 -58 -71v-534h-190v380h-79v142h79v14q0 99 59.5 157t166.5 58q36 0 70 -7z" />
    <glyph glyph-name="uni018F" unicode="&#x18f;" horiz-adv-x="818" 
d="M595.5 667.5q88.5 -46.5 138 -129.5t49.5 -188t-48.5 -188t-133.5 -129.5t-192 -46.5q-109 0 -194.5 46.5t-133 131.5t-47.5 194v36h547q-11 70 -63 113t-126 43q-50 0 -103.5 -22t-87.5 -60l-117 124q51 54 135 88t175 34q113 0 201.5 -46.5zM524 173q45 37 56 102h-342
q12 -65 56.5 -102t114.5 -37t115 37z" />
    <glyph glyph-name="florin" unicode="&#x192;" horiz-adv-x="500" 
d="M361.5 586.5q-19.5 -17.5 -23.5 -53.5l-2 -16h129l-17 -142h-123l-45 -363q-12 -99 -76.5 -157t-167.5 -58q-39 0 -73 7.5t-57 21.5l63 134q26 -16 56 -16q27 0 44.5 17.5t21.5 53.5l44 360h-79l17 142h80l2 19q12 99 78 157t171 58q36 0 70 -7.5t55 -21.5l-63 -134
q-28 16 -55 16q-30 0 -49.5 -17.5z" />
    <glyph glyph-name="Ohorn" unicode="&#x1a0;" horiz-adv-x="846" 
d="M783 492.5q29 -65.5 29 -142.5q0 -104 -50.5 -187t-139 -130t-199.5 -47t-199.5 47t-139 130t-50.5 187t51 187t141.5 130t204.5 47q47 0 111 -8q43 -5 68 -5q35 0 55 16t20 46q0 31 -20 58l109 39q35 -47 35 -105q0 -56 -28 -94t-78 -56q51 -47 80 -112.5zM519 175
q43 25 68 70.5t25 104.5t-25 104.5t-68 70.5t-96 25t-96 -25t-68 -70.5t-25 -104.5t25 -104.5t68 -70.5t96 -25t96 25z" />
    <glyph glyph-name="ohorn" unicode="&#x1a1;" horiz-adv-x="666" 
d="M619 378q20 -49 20 -106q0 -81 -39.5 -145t-109 -100t-157.5 -36t-157.5 36t-109 100t-39.5 145t39.5 144.5t109.5 99t159 35.5q21 0 73 -5q32 -4 45 -4q28 0 43 17t15 46q0 32 -22 58l109 40q36 -48 36 -106q0 -43 -19 -77.5t-53 -55.5q37 -37 57 -86zM415 176.5
q32 34.5 32 95.5q0 60 -32 94t-82 34t-82 -34t-32 -94q0 -61 32 -95.5t82 -34.5t82 34.5z" />
    <glyph glyph-name="Uhorn" unicode="&#x1af;" horiz-adv-x="803" 
d="M150.5 71q-86.5 85 -86.5 241v388h198v-382q0 -168 133 -168q132 0 132 168v382h195v-388q0 -156 -86.5 -241t-242.5 -85t-242.5 85zM619 700h34q24 0 40.5 18t16.5 45q0 16 -5.5 31.5t-14.5 26.5l110 39q35 -43 35 -105q0 -83 -50 -129t-139 -46h-27v120z" />
    <glyph glyph-name="uhorn" unicode="&#x1b0;" horiz-adv-x="709" 
d="M631 542v-542h-181v58q-30 -33 -72 -50t-89 -17q-105 0 -167.5 62t-62.5 186v303h190v-272q0 -61 23 -89t67 -28q45 0 73.5 31.5t28.5 96.5v261h190zM509 542h34q24 0 40.5 18t16.5 45q0 16 -5.5 31.5t-14.5 26.5l110 39q35 -43 35 -105q0 -83 -50 -129t-139 -46h-27v120
z" />
    <glyph glyph-name="uni01B7" unicode="&#x1b7;" horiz-adv-x="646" 
d="M566.5 350q49.5 -53 49.5 -130q0 -63 -34.5 -116.5t-105.5 -85.5t-176 -32q-78 0 -153 18t-126 51l65 148q44 -27 99 -42.5t108 -15.5q57 0 90 19.5t33 54.5q0 33 -29 50.5t-89 17.5h-84v125l133 135h-295v153h526v-124l-154 -156q93 -17 142.5 -70z" />
    <glyph glyph-name="uni01C4" unicode="&#x1c4;" horiz-adv-x="1445" 
d="M70 700h331q115 0 204 -43t138 -122t49 -185t-49 -185t-138 -122t-204 -43h-331v700zM393 158q90 0 144.5 51t54.5 141t-54.5 141t-144.5 51h-125v-384h125zM1430 157v-157h-627v124l353 419h-344v157h603v-124l-353 -419h368zM1329 909l-130 -152h-164l-130 152h126
l86 -76l86 76h126z" />
    <glyph glyph-name="uni01C5" unicode="&#x1c5;" horiz-adv-x="1382" 
d="M70 700h331q115 0 204 -43t138 -122t49 -185t-49 -185t-138 -122t-204 -43h-331v700zM393 158q90 0 144.5 51t54.5 141t-54.5 141t-144.5 51h-125v-384h125zM1359 142v-142h-500v112l251 289h-244v141h483v-111l-251 -289h261zM1320 759l-130 -152h-164l-130 152h126
l86 -76l86 76h126z" />
    <glyph glyph-name="uni01C6" unicode="&#x1c6;" horiz-adv-x="1245" 
d="M637 742v-742h-181v54q-53 -63 -159 -63q-74 0 -135 34.5t-96.5 98.5t-35.5 148t35.5 147.5t96.5 97.5t135 34q97 0 150 -56v247h190zM418 176.5q32 34.5 32 95.5q0 60 -31.5 94t-81.5 34t-82 -34t-32 -94q0 -61 32 -95.5t82 -34.5q49 0 81 34.5zM1220 142v-142h-500v112
l251 289h-244v141h483v-111l-251 -289h261zM1181 759l-130 -152h-164l-130 152h126l86 -76l86 76h126z" />
    <glyph glyph-name="uni01C7" unicode="&#x1c7;" horiz-adv-x="1167" 
d="M70 700h198v-543h334v-157h-532v700zM693 12.5q-63 26.5 -103 76.5l108 128q56 -73 121 -73q43 0 65.5 26t22.5 76v301h-242v153h438v-442q0 -136 -68.5 -204t-201.5 -68q-77 0 -140 26.5z" />
    <glyph glyph-name="uni01C8" unicode="&#x1c8;" horiz-adv-x="930" 
d="M70 700h198v-543h334v-157h-532v700zM516 -175l48 135q26 -16 59 -16q26 0 41 18t15 53v527h190v-528q0 -100 -58.5 -158.5t-162.5 -58.5q-83 0 -132 28zM690 631q-32 29 -32 72t32 72t84 29t84 -27.5t32 -70.5q0 -45 -32 -74.5t-84 -29.5t-84 29z" />
    <glyph glyph-name="uni01C9" unicode="&#x1c9;" horiz-adv-x="633" 
d="M61 742h190v-742h-190v742zM219 -175l48 135q26 -16 59 -16q26 0 41 18t15 53v527h190v-528q0 -100 -58.5 -158.5t-162.5 -58.5q-83 0 -132 28zM393 631q-32 29 -32 72t32 72t84 29t84 -27.5t32 -70.5q0 -45 -32 -74.5t-84 -29.5t-84 29z" />
    <glyph glyph-name="uni01CA" unicode="&#x1ca;" horiz-adv-x="1363" 
d="M736 700v-700h-163l-309 373v-373h-194v700h163l309 -373v373h194zM889 12.5q-63 26.5 -103 76.5l108 128q56 -73 121 -73q43 0 65.5 26t22.5 76v301h-242v153h438v-442q0 -136 -68.5 -204t-201.5 -68q-77 0 -140 26.5z" />
    <glyph glyph-name="uni01CB" unicode="&#x1cb;" horiz-adv-x="1126" 
d="M736 700v-700h-163l-309 373v-373h-194v700h163l309 -373v373h194zM712 -175l48 135q26 -16 59 -16q26 0 41 18t15 53v527h190v-528q0 -100 -58.5 -158.5t-162.5 -58.5q-83 0 -132 28zM886 631q-32 29 -32 72t32 72t84 29t84 -27.5t32 -70.5q0 -45 -32 -74.5t-84 -29.5
t-84 29z" />
    <glyph glyph-name="uni01CC" unicode="&#x1cc;" horiz-adv-x="1016" 
d="M576.5 491q61.5 -60 61.5 -181v-310h-190v279q0 111 -89 111q-49 0 -78.5 -32t-29.5 -96v-262h-190v542h181v-59q32 33 76 50.5t96 17.5q101 0 162.5 -60zM602 -175l48 135q26 -16 59 -16q26 0 41 18t15 53v527h190v-528q0 -100 -58.5 -158.5t-162.5 -58.5q-83 0 -132 28
zM776 631q-32 29 -32 72t32 72t84 29t84 -27.5t32 -70.5q0 -45 -32 -74.5t-84 -29.5t-84 29z" />
    <glyph glyph-name="uni01CD" unicode="&#x1cd;" horiz-adv-x="786" 
d="M539 136h-296l-55 -136h-202l309 700h195l310 -700h-206zM481 282l-90 224l-90 -224h180zM605 909l-130 -152h-164l-130 152h126l86 -76l86 76h126z" />
    <glyph glyph-name="uni01CE" unicode="&#x1ce;" horiz-adv-x="628" 
d="M498 489.5q71 -61.5 71 -188.5v-301h-177v70q-41 -79 -160 -79q-63 0 -109 22t-69.5 59.5t-23.5 85.5q0 77 59 119.5t182 42.5h108q-5 86 -115 86q-39 0 -79 -12.5t-68 -34.5l-64 129q45 30 109.5 46.5t129.5 16.5q135 0 206 -61.5zM343 127q25 16 36 47v47h-82
q-83 0 -83 -55q0 -25 19 -40t52 -15t58 16zM525 759l-130 -152h-164l-130 152h126l86 -76l86 76h126z" />
    <glyph glyph-name="uni01D3" unicode="&#x1d3;" horiz-adv-x="786" 
d="M150.5 71q-86.5 85 -86.5 241v388h198v-382q0 -168 133 -168q132 0 132 168v382h195v-388q0 -156 -86.5 -241t-242.5 -85t-242.5 85zM607 909l-130 -152h-164l-130 152h126l86 -76l86 76h126z" />
    <glyph glyph-name="uni01D4" unicode="&#x1d4;" horiz-adv-x="692" 
d="M631 542v-542h-181v58q-30 -33 -72 -50t-89 -17q-105 0 -167.5 62t-62.5 186v303h190v-272q0 -61 23 -89t67 -28q45 0 73.5 31.5t28.5 96.5v261h190zM557 759l-130 -152h-164l-130 152h126l86 -76l86 76h126z" />
    <glyph glyph-name="uni01E4" unicode="&#x1e4;" horiz-adv-x="814" 
d="M539 365h175v-290q-60 -43 -138 -66t-156 -23q-110 0 -198 46.5t-138 129.5t-50 188t50 188t139 129.5t201 46.5q98 0 176 -33t130 -95l-126 -114q-71 78 -170 78q-90 0 -145 -54.5t-55 -145.5q0 -58 25 -103.5t70 -71t103 -25.5q57 0 107 23v192zM390.622 321.248
h405.753v-120.317h-405.753v120.317z" />
    <glyph glyph-name="uni01E5" unicode="&#x1e5;" horiz-adv-x="718" 
d="M707 -24h-81q-28 -89 -104.5 -134t-197.5 -45q-78 0 -148.5 18.5t-118.5 52.5l69 126q32 -26 82.5 -42t102.5 -16q80 0 114 39h-157v78h186v14v64l1 11q-60 -64 -169 -64q-76 0 -135 30.5t-91.5 84.5t-32.5 122t32.5 121.5t91 83.5t134.5 30q119 0 178 -74v66h181v-443
q0 -17 -2 -45h65v-78zM424 239q32 28 32 76q0 47 -32.5 75t-85.5 28q-54 0 -86.5 -28t-32.5 -75q0 -48 32.5 -76t86.5 -28t86 28z" />
    <glyph glyph-name="Gcaron" unicode="&#x1e6;" horiz-adv-x="770" 
d="M539 365h175v-290q-60 -43 -138 -66t-156 -23q-110 0 -198 46.5t-138 129.5t-50 188t50 188t139 129.5t201 46.5q98 0 176 -33t130 -95l-126 -114q-71 78 -170 78q-90 0 -145 -54.5t-55 -145.5q0 -58 25 -103.5t70 -71t103 -25.5q57 0 107 23v192zM632 910l-130 -152
h-164l-130 152h126l86 -76l86 76h126z" />
    <glyph glyph-name="gcaron" unicode="&#x1e7;" horiz-adv-x="705" 
d="M644 542v-443q0 -151 -82 -226.5t-236 -75.5q-80 0 -150 18t-119 53l69 133q33 -27 83.5 -42.5t99.5 -15.5q75 0 110 33t35 98v18q-55 -64 -161 -64q-72 0 -133 32.5t-97 92t-36 137.5q0 77 36 136.5t97 92t133 32.5q116 0 170 -75v66h181zM422.5 210q33.5 31 33.5 80
t-33 79.5t-85 30.5t-85.5 -30.5t-33.5 -79.5t34 -80t85 -31t84.5 31zM560 759l-130 -152h-164l-130 152h126l86 -76l86 76h126z" />
    <glyph glyph-name="uni01E8" unicode="&#x1e8;" horiz-adv-x="752" 
d="M340 254l-74 -79v-175h-196v700h196v-291l271 291h218l-286 -310l301 -390h-230zM594 909l-130 -152h-164l-130 152h126l86 -76l86 76h126z" />
    <glyph glyph-name="uni01E9" unicode="&#x1e9;" horiz-adv-x="686" 
d="M307 190l-56 -57v-133h-190v742h190v-389l194 189h225l-225 -232l244 -310h-230zM368 959l-130 -152h-164l-130 152h126l86 -76l86 76h126z" />
    <glyph glyph-name="uni01EA" unicode="&#x1ea;" horiz-adv-x="846" 
d="M418 -102q0 -20 14.5 -32t40.5 -12q30 0 60 15l24 -82q-18 -10 -47.5 -16.5t-58.5 -6.5q-70 0 -109 32t-39 85q0 62 56 109q-95 13 -168.5 63t-115 127t-41.5 170q0 104 50.5 187t139 130t199.5 47t199.5 -47t139 -130t50.5 -187q0 -85 -33.5 -155t-92 -118.5
t-133.5 -71.5q-135 -43 -135 -107zM259 245.5q25 -45.5 68 -70.5t96 -25t96 25t68 70.5t25 104.5t-25 104.5t-68 70.5t-96 25t-96 -25t-68 -70.5t-25 -104.5t25 -104.5z" />
    <glyph glyph-name="uni01EB" unicode="&#x1eb;" horiz-adv-x="666" 
d="M358.5 -43.5q-27.5 -27.5 -27.5 -57.5q0 -20 14.5 -32.5t41.5 -12.5q31 0 59 15l25 -82q-18 -10 -48 -16.5t-59 -6.5q-69 0 -108.5 32t-39.5 85q0 67 64 114q-74 10 -131.5 48t-89.5 97.5t-32 131.5q0 80 39.5 144t109 99.5t157.5 35.5t158 -35.5t109 -99t39 -144.5
q0 -90 -48.5 -158t-133.5 -102q-71 -28 -98.5 -55.5zM251 176.5q32 -34.5 82 -34.5t82 34.5t32 95.5q0 60 -32 94t-82 34t-82 -34t-32 -94q0 -61 32 -95.5z" />
    <glyph glyph-name="uni01EE" unicode="&#x1ee;" horiz-adv-x="646" 
d="M566.5 350q49.5 -53 49.5 -130q0 -63 -34.5 -116.5t-105.5 -85.5t-176 -32q-78 0 -153 18t-126 51l65 148q44 -27 99 -42.5t108 -15.5q57 0 90 19.5t33 54.5q0 33 -29 50.5t-89 17.5h-84v125l133 135h-295v153h526v-124l-154 -156q93 -17 142.5 -70zM525 909l-130 -152
h-164l-130 152h126l86 -76l86 76h126z" />
    <glyph glyph-name="uni01EF" unicode="&#x1ef;" horiz-adv-x="569" 
d="M503 174.5q47 -55.5 47 -136.5q0 -65 -33 -120t-100.5 -88t-167.5 -33q-74 0 -145 19t-122 54l66 149q41 -30 92 -46t102 -16q52 0 82 21.5t30 59.5q0 77 -107 77h-83v124l128 150h-279v153h501v-124l-146 -170q88 -18 135 -73.5zM470 759l-130 -152h-164l-130 152h126
l86 -76l86 76h126z" />
    <glyph glyph-name="Aringacute" unicode="&#x1fa;" horiz-adv-x="786" 
d="M539 136h-296l-55 -136h-202l309 700h195l310 -700h-206zM481 282l-90 224l-90 -224h180zM508 939q17 -29 17 -63q0 -53 -38.5 -90t-93.5 -37q-56 0 -94 37t-38 90q0 54 38 91t94 37q27 0 49 -9l89 93l93 -70zM433.5 835q16.5 16 16.5 41t-16.5 41.5t-40.5 16.5
t-40.5 -16.5t-16.5 -41.5t16.5 -41t40.5 -16t40.5 16z" />
    <glyph glyph-name="aringacute" unicode="&#x1fb;" horiz-adv-x="628" 
d="M498 489.5q71 -61.5 71 -188.5v-301h-177v70q-41 -79 -160 -79q-63 0 -109 22t-69.5 59.5t-23.5 85.5q0 77 59 119.5t182 42.5h108q-5 86 -115 86q-39 0 -79 -12.5t-68 -34.5l-64 129q45 30 109.5 46.5t129.5 16.5q135 0 206 -61.5zM343 127q25 16 36 47v47h-82
q-83 0 -83 -55q0 -25 19 -40t52 -15t58 16zM428 781q17 -29 17 -63q0 -53 -38.5 -90t-93.5 -37q-56 0 -94 37t-38 90q0 54 38 91t94 37q27 0 49 -9l89 93l93 -70zM353.5 677q16.5 16 16.5 41t-16.5 41.5t-40.5 16.5t-40.5 -16.5t-16.5 -41.5t16.5 -41t40.5 -16t40.5 16z" />
    <glyph glyph-name="AEacute" unicode="&#x1fc;" horiz-adv-x="1099" 
d="M1059 153v-153h-562v136h-238l-71 -136h-202l382 700h678v-153h-353v-118h311v-148h-311v-128h366zM497 282v265h-23l-138 -265h161zM631 909h190l-188 -152h-136z" />
    <glyph glyph-name="aeacute" unicode="&#x1fd;" horiz-adv-x="999" 
d="M969 222h-394q11 -41 45.5 -63.5t85.5 -22.5q36 0 66 11.5t60 35.5l100 -104q-82 -88 -229 -88q-70 0 -130 21.5t-103 66.5q-64 -88 -204 -88q-110 0 -173 47.5t-63 125.5q0 74 59.5 116t181.5 42h108q-3 40 -31.5 62t-82.5 22q-41 0 -80.5 -12.5t-67.5 -34.5l-64 129
q46 30 109 46.5t129 16.5q131 0 198 -68q39 33 89 50.5t106 17.5q78 0 144 -33.5t105 -96.5t39 -147q0 -29 -3 -52zM609.5 391q-30.5 -25 -38.5 -69h219q-7 44 -37 69t-72 25q-41 0 -71.5 -25zM354.5 135q24.5 24 24.5 65v22h-82q-83 0 -83 -54q0 -27 19 -42t54 -15
q43 0 67.5 24zM510 759h190l-188 -152h-136z" />
    <glyph glyph-name="Oslashacute" unicode="&#x1fe;" horiz-adv-x="846" 
d="M223.5 33q-88.5 47 -139 130t-50.5 187t50.5 187t139 130t199.5 47t199.5 -47t139 -130t50.5 -187t-50.5 -187t-139 -130t-199.5 -47t-199.5 47zM519 175q43 25 68 70.5t25 104.5t-25 104.5t-68 70.5t-96 25t-96 -25t-68 -70.5t-25 -104.5t25 -104.5t68 -70.5t96 -25
t96 25zM663 770h117l-597 -840h-117zM459 909h190l-188 -152h-136z" />
    <glyph glyph-name="oslashacute" unicode="&#x1ff;" horiz-adv-x="666" 
d="M176 27q-70 36 -109.5 100t-39.5 145q0 80 39.5 144t109 99.5t157.5 35.5t158 -35.5t109 -99t39 -144.5t-39 -145t-109 -100t-158 -36q-87 0 -157 36zM415 176.5q32 34.5 32 95.5q0 60 -32 94t-82 34t-82 -34t-32 -94q0 -61 32 -95.5t82 -34.5t82 34.5zM508 607h86
l-441 -677h-86zM364 759h190l-188 -152h-136z" />
    <glyph glyph-name="uni0200" unicode="&#x200;" horiz-adv-x="786" 
d="M539 136h-296l-55 -136h-202l309 700h195l310 -700h-206zM481 282l-90 224l-90 -224h180zM118 909h170l62 -152h-132zM335 909h170l63 -152h-132z" />
    <glyph glyph-name="uni0201" unicode="&#x201;" horiz-adv-x="628" 
d="M498 489.5q71 -61.5 71 -188.5v-301h-177v70q-41 -79 -160 -79q-63 0 -109 22t-69.5 59.5t-23.5 85.5q0 77 59 119.5t182 42.5h108q-5 86 -115 86q-39 0 -79 -12.5t-68 -34.5l-64 129q45 30 109.5 46.5t129.5 16.5q135 0 206 -61.5zM343 127q25 16 36 47v47h-82
q-83 0 -83 -55q0 -25 19 -40t52 -15t58 16zM38 759h170l62 -152h-132zM255 759h170l63 -152h-132z" />
    <glyph glyph-name="uni0202" unicode="&#x202;" horiz-adv-x="786" 
d="M539 136h-296l-55 -136h-202l309 700h195l310 -700h-206zM481 282l-90 224l-90 -224h180zM254 874.5q54 43.5 139 43.5t139 -43.5t57 -117.5h-116q-1 30 -24 48t-56 18t-56 -18t-24 -48h-116q3 74 57 117.5z" />
    <glyph glyph-name="uni0203" unicode="&#x203;" horiz-adv-x="628" 
d="M498 489.5q71 -61.5 71 -188.5v-301h-177v70q-41 -79 -160 -79q-63 0 -109 22t-69.5 59.5t-23.5 85.5q0 77 59 119.5t182 42.5h108q-5 86 -115 86q-39 0 -79 -12.5t-68 -34.5l-64 129q45 30 109.5 46.5t129.5 16.5q135 0 206 -61.5zM343 127q25 16 36 47v47h-82
q-83 0 -83 -55q0 -25 19 -40t52 -15t58 16zM174 724.5q54 43.5 139 43.5t139 -43.5t57 -117.5h-116q-1 30 -24 48t-56 18t-56 -18t-24 -48h-116q3 74 57 117.5z" />
    <glyph glyph-name="uni0204" unicode="&#x204;" horiz-adv-x="672" 
d="M632 153v-153h-562v700h549v-153h-353v-118h311v-148h-311v-128h366zM70 909h170l62 -152h-132zM287 909h170l63 -152h-132z" />
    <glyph glyph-name="uni0205" unicode="&#x205;" horiz-adv-x="642" 
d="M612 223h-394q12 -42 46.5 -64.5t86.5 -22.5q39 0 67.5 11t57.5 36l100 -104q-79 -88 -231 -88q-95 0 -167 36t-111.5 100t-39.5 145q0 80 38.5 143.5t106.5 99.5t153 36q81 0 147 -33.5t104.5 -97t38.5 -150.5q0 -2 -3 -47zM252.5 391q-29.5 -25 -37.5 -68h222
q-8 43 -37.5 68t-73.5 25t-73.5 -25zM46 759h170l62 -152h-132zM263 759h170l63 -152h-132z" />
    <glyph glyph-name="uni0206" unicode="&#x206;" horiz-adv-x="672" 
d="M632 153v-153h-562v700h549v-153h-353v-118h311v-148h-311v-128h366zM206 874.5q54 43.5 139 43.5t139 -43.5t57 -117.5h-116q-1 30 -24 48t-56 18t-56 -18t-24 -48h-116q3 74 57 117.5z" />
    <glyph glyph-name="uni0207" unicode="&#x207;" horiz-adv-x="642" 
d="M612 223h-394q12 -42 46.5 -64.5t86.5 -22.5q39 0 67.5 11t57.5 36l100 -104q-79 -88 -231 -88q-95 0 -167 36t-111.5 100t-39.5 145q0 80 38.5 143.5t106.5 99.5t153 36q81 0 147 -33.5t104.5 -97t38.5 -150.5q0 -2 -3 -47zM252.5 391q-29.5 -25 -37.5 -68h222
q-8 43 -37.5 68t-73.5 25t-73.5 -25zM182 724.5q54 43.5 139 43.5t139 -43.5t57 -117.5h-116q-1 30 -24 48t-56 18t-56 -18t-24 -48h-116q3 74 57 117.5z" />
    <glyph glyph-name="uni0208" unicode="&#x208;" horiz-adv-x="339" 
d="M70 700h198v-700h-198v700zM-106 909h170l62 -152h-132zM111 909h170l63 -152h-132z" />
    <glyph glyph-name="uni0209" unicode="&#x209;" horiz-adv-x="313" 
d="M61 542h190v-542h-190v542zM-119 759h170l62 -152h-132zM98 759h170l63 -152h-132z" />
    <glyph glyph-name="uni020A" unicode="&#x20a;" horiz-adv-x="339" 
d="M70 700h198v-700h-198v700zM30 874.5q54 43.5 139 43.5t139 -43.5t57 -117.5h-116q-1 30 -24 48t-56 18t-56 -18t-24 -48h-116q3 74 57 117.5z" />
    <glyph glyph-name="uni020B" unicode="&#x20b;" horiz-adv-x="313" 
d="M61 542h190v-542h-190v542zM33.5 724q47.5 44 122.5 44t122.5 -44t48.5 -117h-111q0 31 -16 49.5t-44 18.5t-44 -18.5t-16 -49.5h-111q1 73 48.5 117z" />
    <glyph glyph-name="uni020C" unicode="&#x20c;" horiz-adv-x="846" 
d="M223.5 33q-88.5 47 -139 130t-50.5 187t50.5 187t139 130t199.5 47t199.5 -47t139 -130t50.5 -187t-50.5 -187t-139 -130t-199.5 -47t-199.5 47zM519 175q43 25 68 70.5t25 104.5t-25 104.5t-68 70.5t-96 25t-96 -25t-68 -70.5t-25 -104.5t25 -104.5t68 -70.5t96 -25
t96 25zM148 909h170l62 -152h-132zM365 909h170l63 -152h-132z" />
    <glyph glyph-name="uni020D" unicode="&#x20d;" horiz-adv-x="666" 
d="M176 27q-70 36 -109.5 100t-39.5 145q0 80 39.5 144t109 99.5t157.5 35.5t158 -35.5t109 -99t39 -144.5t-39 -145t-109 -100t-158 -36q-87 0 -157 36zM415 176.5q32 34.5 32 95.5q0 60 -32 94t-82 34t-82 -34t-32 -94q0 -61 32 -95.5t82 -34.5t82 34.5zM56 759h170
l62 -152h-132zM273 759h170l63 -152h-132z" />
    <glyph glyph-name="uni020E" unicode="&#x20e;" horiz-adv-x="846" 
d="M223.5 33q-88.5 47 -139 130t-50.5 187t50.5 187t139 130t199.5 47t199.5 -47t139 -130t50.5 -187t-50.5 -187t-139 -130t-199.5 -47t-199.5 47zM519 175q43 25 68 70.5t25 104.5t-25 104.5t-68 70.5t-96 25t-96 -25t-68 -70.5t-25 -104.5t25 -104.5t68 -70.5t96 -25
t96 25zM284 874.5q54 43.5 139 43.5t139 -43.5t57 -117.5h-116q-1 30 -24 48t-56 18t-56 -18t-24 -48h-116q3 74 57 117.5z" />
    <glyph glyph-name="uni020F" unicode="&#x20f;" horiz-adv-x="666" 
d="M176 27q-70 36 -109.5 100t-39.5 145q0 80 39.5 144t109 99.5t157.5 35.5t158 -35.5t109 -99t39 -144.5t-39 -145t-109 -100t-158 -36q-87 0 -157 36zM415 176.5q32 34.5 32 95.5q0 60 -32 94t-82 34t-82 -34t-32 -94q0 -61 32 -95.5t82 -34.5t82 34.5zM192 724.5
q54 43.5 139 43.5t139 -43.5t57 -117.5h-116q-1 30 -24 48t-56 18t-56 -18t-24 -48h-116q3 74 57 117.5z" />
    <glyph glyph-name="uni0210" unicode="&#x210;" horiz-adv-x="740" 
d="M376 186h-108v-186h-198v700h320q95 0 165 -31.5t108 -90t38 -137.5q0 -76 -35.5 -132.5t-101.5 -88.5l151 -220h-212zM470 517q-31 27 -92 27h-110v-205h110q61 0 92 26.5t31 75.5t-31 76zM102 909h170l62 -152h-132zM319 909h170l63 -152h-132z" />
    <glyph glyph-name="uni0211" unicode="&#x211;" horiz-adv-x="443" 
d="M317.5 532.5q46.5 18.5 106.5 18.5v-171q-26 3 -43 3q-61 0 -95.5 -33t-34.5 -101v-249h-190v542h181v-65q29 37 75.5 55.5zM-33 759h170l62 -152h-132zM184 759h170l63 -152h-132z" />
    <glyph glyph-name="uni0212" unicode="&#x212;" horiz-adv-x="740" 
d="M376 186h-108v-186h-198v700h320q95 0 165 -31.5t108 -90t38 -137.5q0 -76 -35.5 -132.5t-101.5 -88.5l151 -220h-212zM470 517q-31 27 -92 27h-110v-205h110q61 0 92 26.5t31 75.5t-31 76zM238 874.5q54 43.5 139 43.5t139 -43.5t57 -117.5h-116q-1 30 -24 48t-56 18
t-56 -18t-24 -48h-116q3 74 57 117.5z" />
    <glyph glyph-name="uni0213" unicode="&#x213;" horiz-adv-x="443" 
d="M317.5 532.5q46.5 18.5 106.5 18.5v-171q-26 3 -43 3q-61 0 -95.5 -33t-34.5 -101v-249h-190v542h181v-65q29 37 75.5 55.5zM103 724.5q54 43.5 139 43.5t139 -43.5t57 -117.5h-116q-1 30 -24 48t-56 18t-56 -18t-24 -48h-116q3 74 57 117.5z" />
    <glyph glyph-name="uni0214" unicode="&#x214;" horiz-adv-x="786" 
d="M150.5 71q-86.5 85 -86.5 241v388h198v-382q0 -168 133 -168q132 0 132 168v382h195v-388q0 -156 -86.5 -241t-242.5 -85t-242.5 85zM120 909h170l62 -152h-132zM337 909h170l63 -152h-132z" />
    <glyph glyph-name="uni0215" unicode="&#x215;" horiz-adv-x="692" 
d="M631 542v-542h-181v58q-30 -33 -72 -50t-89 -17q-105 0 -167.5 62t-62.5 186v303h190v-272q0 -61 23 -89t67 -28q45 0 73.5 31.5t28.5 96.5v261h190zM70 759h170l62 -152h-132zM287 759h170l63 -152h-132z" />
    <glyph glyph-name="uni0216" unicode="&#x216;" horiz-adv-x="786" 
d="M150.5 71q-86.5 85 -86.5 241v388h198v-382q0 -168 133 -168q132 0 132 168v382h195v-388q0 -156 -86.5 -241t-242.5 -85t-242.5 85zM256 874.5q54 43.5 139 43.5t139 -43.5t57 -117.5h-116q-1 30 -24 48t-56 18t-56 -18t-24 -48h-116q3 74 57 117.5z" />
    <glyph glyph-name="uni0217" unicode="&#x217;" horiz-adv-x="692" 
d="M631 542v-542h-181v58q-30 -33 -72 -50t-89 -17q-105 0 -167.5 62t-62.5 186v303h190v-272q0 -61 23 -89t67 -28q45 0 73.5 31.5t28.5 96.5v261h190zM206 724.5q54 43.5 139 43.5t139 -43.5t57 -117.5h-116q-1 30 -24 48t-56 18t-56 -18t-24 -48h-116q3 74 57 117.5z" />
    <glyph glyph-name="Scommaaccent" unicode="&#x218;" horiz-adv-x="647" 
d="M151 7q-80 21 -130 56l65 146q47 -31 109 -50t122 -19q114 0 114 57q0 30 -32.5 44.5t-104.5 30.5q-79 17 -132 36.5t-91 62.5t-38 116q0 64 35 115.5t104.5 81.5t170.5 30q69 0 136 -15.5t118 -45.5l-61 -147q-100 54 -194 54q-59 0 -86 -17.5t-27 -45.5t32 -42t103 -29
q80 -17 132.5 -36.5t91 -62t38.5 -115.5q0 -63 -35 -114t-105 -81.5t-170 -30.5q-85 0 -165 21zM384.5 -80.5q21.5 -18.5 21.5 -48.5q0 -35 -21 -72l-37 -67h-86l26 79q-40 15 -40 60q0 30 21.5 48.5t57.5 18.5t57.5 -18.5z" />
    <glyph glyph-name="scommaaccent" unicode="&#x219;" horiz-adv-x="547" 
d="M124 6.5q-66 15.5 -106 40.5l57 130q37 -23 88 -36.5t101 -13.5q46 0 65.5 9.5t19.5 27.5t-23.5 25.5t-74.5 14.5q-65 8 -110.5 21t-78.5 48t-33 98q0 52 31 92.5t90.5 64t142.5 23.5q59 0 117 -12t97 -34l-57 -129q-72 40 -156 40q-45 0 -66 -10.5t-21 -27.5
q0 -19 23 -26.5t76 -15.5q67 -10 111 -23t76.5 -47.5t32.5 -96.5q0 -51 -31 -91.5t-91.5 -63.5t-145.5 -23q-68 0 -134 15.5zM325.5 -80.5q21.5 -18.5 21.5 -48.5q0 -35 -21 -72l-37 -67h-86l26 79q-40 15 -40 60q0 30 21.5 48.5t57.5 18.5t57.5 -18.5z" />
    <glyph glyph-name="uni021A" unicode="&#x21a;" horiz-adv-x="635" 
d="M219 543h-215v157h627v-157h-214v-543h-198v543zM375.5 -80.5q21.5 -18.5 21.5 -48.5q0 -35 -21 -72l-37 -67h-86l26 79q-40 15 -40 60q0 30 21.5 48.5t57.5 18.5t57.5 -18.5z" />
    <glyph glyph-name="uni021B" unicode="&#x21b;" horiz-adv-x="447" 
d="M435 22q-24 -15 -58.5 -23t-73.5 -8q-106 0 -163 52t-57 155v182h-79v142h79v141h190v-141h124v-142h-124v-180q0 -29 15.5 -45.5t41.5 -16.5q33 0 58 17zM325.5 -80.5q21.5 -18.5 21.5 -48.5q0 -35 -21 -72l-37 -67h-86l26 79q-40 15 -40 60q0 30 21.5 48.5t57.5 18.5
t57.5 -18.5z" />
    <glyph glyph-name="uni021E" unicode="&#x21e;" horiz-adv-x="806" 
d="M736 700v-700h-198v273h-270v-273h-198v700h198v-263h270v263h198zM615 909l-130 -152h-164l-130 152h126l86 -76l86 76h126z" />
    <glyph glyph-name="uni021F" unicode="&#x21f;" horiz-adv-x="696" 
d="M576.5 491q61.5 -60 61.5 -181v-310h-190v279q0 111 -89 111q-49 0 -78.5 -32t-29.5 -96v-262h-190v742h190v-250q31 29 73 44t90 15q101 0 162.5 -60zM368 959l-130 -152h-164l-130 152h126l86 -76l86 76h126z" />
    <glyph glyph-name="uni022A" unicode="&#x22a;" horiz-adv-x="846" 
d="M223.5 33q-88.5 47 -139 130t-50.5 187t50.5 187t139 130t199.5 47t199.5 -47t139 -130t50.5 -187t-50.5 -187t-139 -130t-199.5 -47t-199.5 47zM519 175q43 25 68 70.5t25 104.5t-25 104.5t-68 70.5t-96 25t-96 -25t-68 -70.5t-25 -104.5t25 -104.5t68 -70.5t96 -25
t96 25zM267.5 776.5q-21.5 20.5 -21.5 53.5t21.5 54t53.5 21q33 0 54.5 -21t21.5 -54t-21.5 -53.5t-54.5 -20.5q-32 0 -53.5 20.5zM471.5 776.5q-21.5 20.5 -21.5 53.5t21.5 54t53.5 21t53.5 -21t21.5 -54t-21.5 -53.5t-53.5 -20.5t-53.5 20.5zM226 1039h394v-98h-394v98z
" />
    <glyph glyph-name="uni022B" unicode="&#x22b;" horiz-adv-x="666" 
d="M176 27q-70 36 -109.5 100t-39.5 145q0 80 39.5 144t109 99.5t157.5 35.5t158 -35.5t109 -99t39 -144.5t-39 -145t-109 -100t-158 -36q-87 0 -157 36zM415 176.5q32 34.5 32 95.5q0 60 -32 94t-82 34t-82 -34t-32 -94q0 -61 32 -95.5t82 -34.5t82 34.5zM175.5 626.5
q-21.5 20.5 -21.5 53.5t21.5 54t53.5 21q33 0 54.5 -21t21.5 -54t-21.5 -53.5t-54.5 -20.5q-32 0 -53.5 20.5zM379.5 626.5q-21.5 20.5 -21.5 53.5t21.5 54t53.5 21t53.5 -21t21.5 -54t-21.5 -53.5t-53.5 -20.5t-53.5 20.5zM134 889h394v-98h-394v98z" />
    <glyph glyph-name="uni022C" unicode="&#x22c;" horiz-adv-x="846" 
d="M223.5 33q-88.5 47 -139 130t-50.5 187t50.5 187t139 130t199.5 47t199.5 -47t139 -130t50.5 -187t-50.5 -187t-139 -130t-199.5 -47t-199.5 47zM519 175q43 25 68 70.5t25 104.5t-25 104.5t-68 70.5t-96 25t-96 -25t-68 -70.5t-25 -104.5t25 -104.5t68 -70.5t96 -25
t96 25zM447.5 760q-21.5 9 -46.5 24q-11 7 -22 12.5t-19 5.5q-19 0 -30 -11.5t-13 -31.5h-95q1 65 34.5 100.5t92.5 35.5q27 0 48.5 -9t46.5 -24q16 -9 25.5 -13.5t18.5 -4.5q19 0 30.5 12t13.5 31h92q-1 -64 -34 -100t-92 -36q-29 0 -50.5 9zM226 1039h394v-98h-394v98z
" />
    <glyph glyph-name="uni022D" unicode="&#x22d;" horiz-adv-x="666" 
d="M176 27q-70 36 -109.5 100t-39.5 145q0 80 39.5 144t109 99.5t157.5 35.5t158 -35.5t109 -99t39 -144.5t-39 -145t-109 -100t-158 -36q-87 0 -157 36zM415 176.5q32 34.5 32 95.5q0 60 -32 94t-82 34t-82 -34t-32 -94q0 -61 32 -95.5t82 -34.5t82 34.5zM355.5 610
q-21.5 9 -46.5 24q-11 7 -22 12.5t-19 5.5q-19 0 -30 -11.5t-13 -31.5h-95q1 65 34.5 100.5t92.5 35.5q27 0 48.5 -9t46.5 -24q16 -9 25.5 -13.5t18.5 -4.5q19 0 30.5 12t13.5 31h92q-1 -64 -34 -100t-92 -36q-29 0 -50.5 9zM134 889h394v-98h-394v98z" />
    <glyph glyph-name="uni0230" unicode="&#x230;" horiz-adv-x="846" 
d="M223.5 33q-88.5 47 -139 130t-50.5 187t50.5 187t139 130t199.5 47t199.5 -47t139 -130t50.5 -187t-50.5 -187t-139 -130t-199.5 -47t-199.5 47zM519 175q43 25 68 70.5t25 104.5t-25 104.5t-68 70.5t-96 25t-96 -25t-68 -70.5t-25 -104.5t25 -104.5t68 -70.5t96 -25
t96 25zM366.5 775.5q-22.5 21.5 -22.5 56.5q0 34 22.5 56t56.5 22t56.5 -22t22.5 -56q0 -35 -22.5 -56.5t-56.5 -21.5t-56.5 21.5zM226 1047h394v-98h-394v98z" />
    <glyph glyph-name="uni0231" unicode="&#x231;" horiz-adv-x="666" 
d="M176 27q-70 36 -109.5 100t-39.5 145q0 80 39.5 144t109 99.5t157.5 35.5t158 -35.5t109 -99t39 -144.5t-39 -145t-109 -100t-158 -36q-87 0 -157 36zM415 176.5q32 34.5 32 95.5q0 60 -32 94t-82 34t-82 -34t-32 -94q0 -61 32 -95.5t82 -34.5t82 34.5zM274.5 625.5
q-22.5 21.5 -22.5 56.5q0 34 22.5 56t56.5 22t56.5 -22t22.5 -56q0 -35 -22.5 -56.5t-56.5 -21.5t-56.5 21.5zM134 897h394v-98h-394v98z" />
    <glyph glyph-name="uni0232" unicode="&#x232;" horiz-adv-x="693" 
d="M445 251v-251h-198v254l-267 446h209l166 -278l166 278h192zM149 884h394v-102h-394v102z" />
    <glyph glyph-name="uni0233" unicode="&#x233;" horiz-adv-x="620" 
d="M632 542l-234 -564q-41 -100 -100 -140.5t-144 -40.5q-43 0 -86.5 13.5t-70.5 35.5l66 133q16 -15 38.5 -23.5t45.5 -8.5q27 0 44.5 11t29.5 35l-232 549h195l133 -331l134 331h181zM103 734h394v-102h-394v102z" />
    <glyph glyph-name="uni0237" unicode="&#x237;" horiz-adv-x="320" 
d="M-94 -175l48 135q26 -16 59 -16q26 0 41 18t15 53v527h190v-528q0 -100 -58.5 -158.5t-162.5 -58.5q-83 0 -132 28z" />
    <glyph glyph-name="uni0259" unicode="&#x259;" horiz-adv-x="642" 
d="M30 319h394q-12 42 -46.5 64.5t-86.5 22.5q-39 0 -67.5 -11t-57.5 -36l-100 104q79 88 231 88q95 0 167 -36t111.5 -100t39.5 -145q0 -80 -38.5 -143.5t-106.5 -99.5t-153 -36q-81 0 -147 33.5t-104.5 97t-38.5 150.5q0 2 3 47zM389.5 151q29.5 25 37.5 68h-222
q8 -43 37.5 -68t73.5 -25t73.5 25z" />
    <glyph glyph-name="uni0292" unicode="&#x292;" horiz-adv-x="569" 
d="M503 174.5q47 -55.5 47 -136.5q0 -65 -33 -120t-100.5 -88t-167.5 -33q-74 0 -145 19t-122 54l66 149q41 -30 92 -46t102 -16q52 0 82 21.5t30 59.5q0 77 -107 77h-83v124l128 150h-279v153h501v-124l-146 -170q88 -18 135 -73.5z" />
    <glyph glyph-name="uni02B9" unicode="&#x2b9;" horiz-adv-x="242" 
d="M41 700h160l-13 -292h-135z" />
    <glyph glyph-name="uni02BA" unicode="&#x2ba;" horiz-adv-x="462" 
d="M41 700h160l-13 -292h-135zM261 700h160l-13 -292h-135z" />
    <glyph glyph-name="uni02BB" unicode="&#x2bb;" horiz-adv-x="295" 
d="M244.5 739.5q15.5 -25.5 15.5 -59.5q0 -50 -32 -81t-82 -31t-82 31t-32 81q0 23 6 46t27 68l64 147h119l-47 -163q28 -13 43.5 -38.5z" />
    <glyph glyph-name="uni02BC" unicode="&#x2bc;" horiz-adv-x="194" 
d="M36 700h123l-26 -263h-98z" />
    <glyph glyph-name="uni02BE" unicode="&#x2be;" horiz-adv-x="600" 
d="M300 661q24 0 40.5 16t16.5 41t-16.5 41t-40.5 16v71q56 0 94 -37t38 -91q0 -53 -38 -90t-94 -37v70z" />
    <glyph glyph-name="uni02BF" unicode="&#x2bf;" horiz-adv-x="600" 
d="M205 627.5q-38 36.5 -38 90.5t38 91t95 37v-71q-24 0 -40.5 -16t-16.5 -41t16.5 -41t40.5 -16v-70q-57 0 -95 36.5z" />
    <glyph glyph-name="circumflex" unicode="&#x2c6;" horiz-adv-x="600" 
d="M386 607l-86 76l-86 -76h-126l130 152h164l130 -152h-126z" />
    <glyph glyph-name="caron" unicode="&#x2c7;" horiz-adv-x="600" 
d="M512 759l-130 -152h-164l-130 152h126l86 -76l86 76h126z" />
    <glyph glyph-name="uni02C8" unicode="&#x2c8;" horiz-adv-x="194" 
d="M36 701h122v-201h-122v201z" />
    <glyph glyph-name="uni02C9" unicode="&#x2c9;" horiz-adv-x="600" 
d="M103 734h394v-102h-394v102z" />
    <glyph glyph-name="uni02CA" unicode="&#x2ca;" horiz-adv-x="600" 
d="M336 759h190l-188 -152h-136z" />
    <glyph glyph-name="uni02CB" unicode="&#x2cb;" horiz-adv-x="600" 
d="M74 759h190l134 -152h-136z" />
    <glyph glyph-name="uni02CC" unicode="&#x2cc;" horiz-adv-x="197" 
d="M36 -30h125v-200h-125v200z" />
    <glyph glyph-name="breve" unicode="&#x2d8;" horiz-adv-x="600" 
d="M161 641.5q-54 43.5 -57 117.5h116q1 -30 24 -48t56 -18t56 18t24 48h116q-3 -74 -57 -117.5t-139 -43.5t-139 43.5z" />
    <glyph glyph-name="dotaccent" unicode="&#x2d9;" horiz-adv-x="600" 
d="M228.5 633q-27.5 28 -27.5 71t28 70.5t71 27.5t71 -27.5t28 -70.5t-28 -71t-71 -28q-44 0 -71.5 28z" />
    <glyph glyph-name="ring" unicode="&#x2da;" horiz-adv-x="600" 
d="M206 628q-38 37 -38 90q0 54 38 91t94 37q36 0 66.5 -17t48 -46.5t17.5 -64.5q0 -53 -38.5 -90t-93.5 -37q-56 0 -94 37zM340.5 677q16.5 16 16.5 41t-16.5 41.5t-40.5 16.5t-40.5 -16.5t-16.5 -41.5t16.5 -41t40.5 -16t40.5 16z" />
    <glyph glyph-name="ogonek" unicode="&#x2db;" horiz-adv-x="600" 
d="M109 -204q-39 32 -39 85q0 52 40.5 94.5t119.5 69.5l70 -45q-63 -28 -89 -52t-26 -50q0 -20 14.5 -32t40.5 -12q32 0 60 15l25 -82q-19 -10 -48.5 -16.5t-58.5 -6.5q-70 0 -109 32z" />
    <glyph glyph-name="tilde" unicode="&#x2dc;" horiz-adv-x="600" 
d="M329.5 610.5q-21.5 10.5 -47.5 28.5q-19 13 -28.5 18t-19.5 5q-20 0 -32 -14t-14 -39h-93q2 73 36 116t91 43q27 0 48 -10t48 -28q19 -13 28.5 -18t19.5 -5q20 0 32 13.5t14 36.5h93q-2 -71 -36 -114t-91 -43q-27 0 -48.5 10.5z" />
    <glyph glyph-name="hungarumlaut" unicode="&#x2dd;" horiz-adv-x="600" 
d="M188 759h170l-101 -152h-132zM405 759h170l-100 -152h-132z" />
    <glyph glyph-name="gravecomb" unicode="&#x300;" 
d="M-526 759h190l134 -152h-136z" />
    <glyph glyph-name="acutecomb" unicode="&#x301;" 
d="M-264 759h190l-188 -152h-136z" />
    <glyph glyph-name="uni0302" unicode="&#x302;" 
d="M-214 607l-86 76l-86 -76h-126l130 152h164l130 -152h-126z" />
    <glyph glyph-name="tildecomb" unicode="&#x303;" 
d="M-270.5 610.5q-21.5 10.5 -47.5 28.5q-19 13 -28.5 18t-19.5 5q-20 0 -32 -14t-14 -39h-93q2 73 36 116t91 43q27 0 48 -10t48 -28q19 -13 28.5 -18t19.5 -5q20 0 32 13.5t14 36.5h93q-2 -71 -36 -114t-91 -43q-27 0 -48.5 10.5z" />
    <glyph glyph-name="uni0304" unicode="&#x304;" 
d="M-497 734h394v-102h-394v102z" />
    <glyph glyph-name="uni0306" unicode="&#x306;" 
d="M-439 641.5q-54 43.5 -57 117.5h116q1 -30 24 -48t56 -18t56 18t24 48h116q-3 -74 -57 -117.5t-139 -43.5t-139 43.5z" />
    <glyph glyph-name="uni0307" unicode="&#x307;" 
d="M-371.5 633q-27.5 28 -27.5 71t28 70.5t71 27.5t71 -27.5t28 -70.5t-28 -71t-71 -28q-44 0 -71.5 28z" />
    <glyph glyph-name="uni0308" unicode="&#x308;" 
d="M-462.5 627.5q-22.5 21.5 -22.5 56.5t22.5 57t56.5 22t56.5 -22t22.5 -57t-22.5 -56.5t-56.5 -21.5t-56.5 21.5zM-250.5 627.5q-22.5 21.5 -22.5 56.5t22.5 57t56.5 22t56.5 -22t22.5 -57t-22.5 -56.5t-56.5 -21.5t-56.5 21.5z" />
    <glyph glyph-name="hookabovecomb" unicode="&#x309;" 
d="M-322 655q27 13 38 27t11 31q0 19 -12.5 29.5t-32.5 10.5q-29 0 -58 -20l-39 74q23 18 54 27.5t64 9.5q58 0 94.5 -32t36.5 -83q0 -88 -98 -132z" />
    <glyph glyph-name="uni030A" unicode="&#x30a;" 
d="M-394 628q-38 37 -38 90q0 54 38 91t94 37q36 0 66.5 -17t48 -46.5t17.5 -64.5q0 -53 -38.5 -90t-93.5 -37q-56 0 -94 37zM-259.5 677q16.5 16 16.5 41t-16.5 41.5t-40.5 16.5t-40.5 -16.5t-16.5 -41.5t16.5 -41t40.5 -16t40.5 16z" />
    <glyph glyph-name="uni030B" unicode="&#x30b;" 
d="M-412 759h170l-101 -152h-132zM-195 759h170l-100 -152h-132z" />
    <glyph glyph-name="uni030C" unicode="&#x30c;" 
d="M-88 759l-130 -152h-164l-130 152h126l86 -76l86 76h126z" />
    <glyph glyph-name="uni030F" unicode="&#x30f;" 
d="M-575 759h170l62 -152h-132zM-358 759h170l63 -152h-132z" />
    <glyph glyph-name="uni0311" unicode="&#x311;" 
d="M-439 724.5q54 43.5 139 43.5t139 -43.5t57 -117.5h-116q-1 30 -24 48t-56 18t-56 -18t-24 -48h-116q3 74 57 117.5z" />
    <glyph glyph-name="uni0312" unicode="&#x312;" 
d="M-207 665q0 -31 -24 -49t-69 -18t-69 18t-24 49q0 28 26 72l49 88h101l-37 -100q47 -15 47 -60z" />
    <glyph glyph-name="uni031B" unicode="&#x31b;" 
d="M-327 542h34q24 0 40.5 18t16.5 45q0 16 -5.5 31.5t-14.5 26.5l110 39q35 -43 35 -105q0 -83 -50 -129t-139 -46h-27v120z" />
    <glyph glyph-name="dotbelowcomb" unicode="&#x323;" 
d="M-356.5 -197q-22.5 21 -22.5 56t22.5 57t56.5 22t56.5 -22t22.5 -57t-22.5 -56t-56.5 -21t-56.5 21z" />
    <glyph glyph-name="uni0324" unicode="&#x324;" 
d="M-454.5 -189.5q-21.5 20.5 -21.5 53.5t21.5 53.5t53.5 20.5q33 0 54.5 -20.5t21.5 -53.5t-21.5 -53.5t-54.5 -20.5q-32 0 -53.5 20.5zM-253.5 -189.5q-21.5 20.5 -21.5 53.5t21.5 53.5t54.5 20.5q32 0 53.5 -20.5t21.5 -53.5t-21.5 -53.5t-53.5 -20.5q-33 0 -54.5 20.5z
" />
    <glyph glyph-name="uni0326" unicode="&#x326;" 
d="M-242.5 -80.5q21.5 -18.5 21.5 -48.5q0 -35 -21 -72l-37 -67h-86l26 79q-40 15 -40 60q0 30 21.5 48.5t57.5 18.5t57.5 -18.5z" />
    <glyph glyph-name="uni0327" unicode="&#x327;" 
d="M-388.5 -230q-26.5 6 -43.5 15l26 75q30 -14 62 -14q50 0 50 28q0 25 -45 25h-37l26 110h99l-14 -60q44 -5 65 -27.5t21 -53.5q0 -48 -43 -76t-115 -28q-25 0 -51.5 6z" />
    <glyph glyph-name="uni0328" unicode="&#x328;" 
d="M-491 -204q-39 32 -39 85q0 52 40.5 94.5t119.5 69.5l70 -45q-63 -28 -89 -52t-26 -50q0 -20 14.5 -32t40.5 -12q32 0 60 15l25 -82q-19 -10 -48.5 -16.5t-58.5 -6.5q-70 0 -109 32z" />
    <glyph glyph-name="uni032E" unicode="&#x32e;" 
d="M-438 -179.5q-54 41.5 -58 108.5h109q2 -28 26 -45t61 -17t61 17t26 45h109q-4 -67 -58 -108.5t-138 -41.5t-138 41.5z" />
    <glyph glyph-name="uni0331" unicode="&#x331;" 
d="M-497 -85h394v-102h-394v102z" />
    <glyph glyph-name="uni0335" unicode="&#x335;" 
d="M-510 484h420v-99h-420v99z" />
    <glyph glyph-name="uni0336" unicode="&#x336;" 
d="M-906 494h847v-121h-847v121z" />
    <glyph glyph-name="uni0337" unicode="&#x337;" 
d="M-487 308l357 266l63 -90l-356 -265z" />
    <glyph glyph-name="uni0338" unicode="&#x338;" 
d="M-141 607h86l-441 -677h-86z" />
    <glyph glyph-name="uni0394" unicode="&#x394;" horiz-adv-x="786" 
d="M800 0h-814l309 700h195zM241 157h299l-149 359z" />
    <glyph glyph-name="uni03A9" unicode="&#x3a9;" horiz-adv-x="884" 
d="M8 157h139q-43 42 -67 100t-24 127q0 95 50.5 170.5t138.5 117.5t197 42t196.5 -42t138 -117.5t50.5 -171.5q0 -68 -24 -126t-67 -100h139v-157h-378v146q63 32 98 88.5t35 124.5q0 59 -24.5 102t-67 66t-96.5 23t-97 -23t-67.5 -66t-24.5 -102q0 -69 35.5 -125t97.5 -88
v-146h-378v157z" />
    <glyph glyph-name="uni03BC" unicode="&#x3bc;" horiz-adv-x="695" 
d="M634 542v-542h-168v60q-23 -36 -56.5 -52.5t-71.5 -16.5q-51 0 -87 24v-209h-190v736h190v-272q0 -117 91 -117q45 0 73.5 31.5t28.5 96.5v261h190z" />
    <glyph glyph-name="pi" unicode="&#x3c0;" horiz-adv-x="731" 
d="M718 407h-116v-407h-162v407h-67l-43 -407h-162l44 407h-20q-28 0 -44 -14t-16 -40q0 -13 6 -31t15 -35l-132 -44q-18 31 -28.5 70t-10.5 72q0 45 23.5 81t65.5 56t96 20h551v-135z" />
    <glyph glyph-name="uni0400" unicode="&#x400;" horiz-adv-x="675" 
d="M637 153v-153h-562v700h549v-153h-353v-118h311v-148h-311v-128h366zM124 909h190l134 -152h-136z" />
    <glyph glyph-name="uni0401" unicode="&#x401;" horiz-adv-x="675" 
d="M637 153v-153h-562v700h549v-153h-353v-118h311v-148h-311v-128h366zM187.5 777.5q-22.5 21.5 -22.5 56.5t22.5 57t56.5 22t56.5 -22t22.5 -57t-22.5 -56.5t-56.5 -21.5t-56.5 21.5zM399.5 777.5q-22.5 21.5 -22.5 56.5t22.5 57t56.5 22t56.5 -22t22.5 -57t-22.5 -56.5
t-56.5 -21.5t-56.5 21.5z" />
    <glyph glyph-name="uni0402" unicode="&#x402;" horiz-adv-x="858" 
d="M579 441q122 0 188.5 -60t66.5 -168q0 -111 -69 -166t-178 -55q-40 0 -86 8l20 150q17 -5 37 -5q33 0 57 15.5t24 49.5q0 35 -29 55t-76 20q-49 0 -109 -24v-261h-195v543h-214v157h656v-157h-247v-123q86 21 154 21z" />
    <glyph glyph-name="uni0403" unicode="&#x403;" horiz-adv-x="602" 
d="M587 543h-317v-543h-195v700h513zM357 909h190l-188 -152h-136z" />
    <glyph glyph-name="uni0404" unicode="&#x404;" horiz-adv-x="719" 
d="M211 32.5q-84 46.5 -131.5 129.5t-47.5 188t47.5 188t131.5 129.5t190 46.5q97 0 174.5 -34t128.5 -98l-125 -114q-70 82 -168 82q-63 0 -107.5 -34.5t-61.5 -95.5h253v-146h-251q17 -58 61 -91t106 -33q98 0 168 82l125 -114q-51 -64 -128.5 -98t-174.5 -34
q-106 0 -190 46.5z" />
    <glyph glyph-name="uni0405" unicode="&#x405;" horiz-adv-x="662" 
d="M160 7q-80 21 -130 56l65 146q47 -31 109 -50t122 -19q114 0 114 57q0 30 -32.5 44.5t-104.5 30.5q-79 17 -132 36.5t-91 62.5t-38 116q0 64 35 115.5t104.5 81.5t170.5 30q69 0 136 -15.5t118 -45.5l-61 -147q-100 54 -194 54q-59 0 -86 -17.5t-27 -45.5t32 -42t103 -29
q80 -17 132.5 -36.5t91 -62t38.5 -115.5q0 -63 -35 -114t-105 -81.5t-170 -30.5q-85 0 -165 21z" />
    <glyph glyph-name="uni0406" unicode="&#x406;" horiz-adv-x="345" 
d="M75 700h195v-700h-195v700z" />
    <glyph glyph-name="uni0407" unicode="&#x407;" horiz-adv-x="339" 
d="M6.5 777.5q-22.5 21.5 -22.5 56.5t22.5 57t56.5 22t57 -22t23 -57t-23 -56.5t-57 -21.5t-56.5 21.5zM218.5 777.5q-22.5 21.5 -22.5 56.5t22.5 57t56.5 22t57 -22t23 -57t-23 -56.5t-57 -21.5t-56.5 21.5zM70 700h198v-700h-198v700z" />
    <glyph glyph-name="uni0408" unicode="&#x408;" horiz-adv-x="584" 
d="M110 12.5q-63 26.5 -103 76.5l108 128q56 -73 121 -73q43 0 65.5 26t22.5 76v301h-242v153h438v-442q0 -136 -68.5 -204t-201.5 -68q-77 0 -140 26.5z" />
    <glyph glyph-name="uni0409" unicode="&#x409;" horiz-adv-x="1184" 
d="M728 700v-700h-195v543h-201l-4 -114q-5 -150 -24.5 -244t-66.5 -145.5t-133 -51.5q-40 0 -90 12l11 162q13 -3 27 -3q39 0 60 31t30 86.5t12 144.5l10 279h564zM1089 419.5q70 -57.5 70 -170.5q0 -121 -78 -185t-217 -64h-331v700h195v-223h162q129 0 199 -57.5z
M930.5 169q29.5 27 29.5 76q0 91 -109 91h-123v-194h123q50 0 79.5 27z" />
    <glyph glyph-name="uni040A" unicode="&#x40a;" horiz-adv-x="1166" 
d="M1076 395q67 -57 67 -162q0 -110 -73 -171.5t-201 -61.5h-337v289h-262v-289h-195v700h195v-254h262v254h195v-248h160q122 0 189 -57zM917 164q26 22 26 63t-25.5 62t-72.5 21h-118v-168h118q46 0 72 22z" />
    <glyph glyph-name="uni040B" unicode="&#x40b;" horiz-adv-x="865" 
d="M765.5 363.5q68.5 -65.5 68.5 -196.5v-167h-195v142q0 62 -29.5 93t-80.5 31q-46 0 -104 -26v-240h-195v543h-215v157h648v-157h-238v-137q83 23 151 23q121 0 189.5 -65.5z" />
    <glyph glyph-name="uni040C" unicode="&#x40c;" horiz-adv-x="750" 
d="M358 268h-90v-268h-197v700h197v-272h95l167 272h208l-219 -338l221 -362h-223zM420 909h190l-188 -152h-136z" />
    <glyph glyph-name="uni040D" unicode="&#x40d;" horiz-adv-x="820" 
d="M75 700h195v-411l289 411h186v-700h-195v410l-288 -410h-187v700zM184 909h190l134 -152h-136z" />
    <glyph glyph-name="uni040E" unicode="&#x40e;" horiz-adv-x="743" 
d="M740 700l-290 -541q-46 -87 -112.5 -132t-145.5 -45q-58 0 -124 26l47 146q41 -12 70 -12t51.5 13t41.5 41l-272 504h209l163 -338l169 338h193zM213.5 783q-49.5 41 -49.5 122h133q1 -35 18 -52t54 -17t55 17t19 52h133q0 -81 -50 -122t-157 -41q-106 0 -155.5 41z" />
    <glyph glyph-name="uni040F" unicode="&#x40f;" horiz-adv-x="809" 
d="M734 0h-239v-143h-182v143h-238v700h195v-543h269v543h195v-700z" />
    <glyph glyph-name="uni0410" unicode="&#x410;" horiz-adv-x="824" 
d="M558 136h-296l-55 -136h-202l309 700h195l310 -700h-206zM500 282l-90 224l-90 -224h180z" />
    <glyph glyph-name="uni0411" unicode="&#x411;" horiz-adv-x="741" 
d="M75 700h585v-153h-390v-113h181q127 0 195 -54t68 -155q0 -106 -76 -165.5t-213 -59.5h-350v700zM412 142q50 0 76 20t26 57q0 74 -102 74h-142v-151h142z" />
    <glyph glyph-name="uni0412" unicode="&#x412;" horiz-adv-x="744" 
d="M679.5 304q32.5 -42 32.5 -104q0 -93 -72.5 -146.5t-205.5 -53.5h-359v700h340q126 0 195.5 -47.5t69.5 -134.5q0 -51 -24.5 -90t-70.5 -62q62 -20 94.5 -62zM270 420h126q84 0 84 69t-84 69h-126v-138zM512 215q0 71 -86 71h-156v-144h156q86 0 86 73z" />
    <glyph glyph-name="uni0413" unicode="&#x413;" horiz-adv-x="602" 
d="M587 543h-317v-543h-195v700h513z" />
    <glyph glyph-name="uni0414" unicode="&#x414;" horiz-adv-x="847" 
d="M827 157v-298h-181v141h-448v-141h-182v298h25q62 1 87.5 85t31.5 242l8 216h564v-543h95zM315 277q-14 -78 -43 -120h265v386h-201l-3 -76q-4 -112 -18 -190z" />
    <glyph glyph-name="uni0415" unicode="&#x415;" horiz-adv-x="675" 
d="M637 153v-153h-562v700h549v-153h-353v-118h311v-148h-311v-128h366z" />
    <glyph glyph-name="uni0416" unicode="&#x416;" horiz-adv-x="1109" 
d="M735 268h-83v-268h-194v268h-83l-137 -268h-229l199 367l-187 333h208l140 -272h89v272h194v-272h85l143 272h207l-187 -333l199 -367h-228z" />
    <glyph glyph-name="uni0417" unicode="&#x417;" horiz-adv-x="664" 
d="M599 298q33 -44 33 -101q0 -65 -44 -113t-119 -73.5t-165 -25.5q-71 0 -144.5 17t-140.5 51l59 138q47 -24 100.5 -36.5t103.5 -12.5q66 0 108 21.5t42 60.5q0 31 -26 46t-70 15h-179v145h163q40 0 62 16t22 43q0 34 -34 52.5t-88 18.5q-44 0 -93 -12.5t-93 -35.5
l-58 150q112 54 246 54q86 0 159.5 -24.5t117 -70.5t43.5 -109q0 -49 -25.5 -87.5t-70.5 -60.5q58 -22 91 -66z" />
    <glyph glyph-name="uni0418" unicode="&#x418;" horiz-adv-x="820" 
d="M75 700h195v-411l289 411h186v-700h-195v410l-288 -410h-187v700z" />
    <glyph glyph-name="uni0419" unicode="&#x419;" horiz-adv-x="820" 
d="M75 700h195v-411l289 411h186v-700h-195v410l-288 -410h-187v700zM253.5 783q-49.5 41 -49.5 122h133q1 -35 18 -52t54 -17t55 17t19 52h133q0 -81 -50 -122t-157 -41q-106 0 -155.5 41z" />
    <glyph glyph-name="uni041A" unicode="&#x41a;" horiz-adv-x="750" 
d="M358 268h-90v-268h-197v700h197v-272h95l167 272h208l-219 -338l221 -362h-223z" />
    <glyph glyph-name="uni041B" unicode="&#x41b;" horiz-adv-x="803" 
d="M728 700v-700h-195v543h-201l-4 -114q-5 -150 -24.5 -244t-66.5 -145.5t-133 -51.5q-40 0 -90 12l11 162q13 -3 27 -3q39 0 60 31t30 86.5t12 144.5l10 279h564z" />
    <glyph glyph-name="uni041C" unicode="&#x41c;" horiz-adv-x="963" 
d="M706 0l-1 371l-180 -302h-88l-180 294v-363h-182v700h163l246 -404l240 404h163l2 -700h-183z" />
    <glyph glyph-name="uni041D" unicode="&#x41d;" horiz-adv-x="816" 
d="M741 700v-700h-198v273h-270v-273h-198v700h198v-263h270v263h198z" />
    <glyph glyph-name="uni041E" unicode="&#x41e;" horiz-adv-x="839" 
d="M219.5 33q-88.5 47 -139 130t-50.5 187t50.5 187t139 130t199.5 47t199.5 -47t139 -130t50.5 -187t-50.5 -187t-139 -130t-199.5 -47t-199.5 47zM515 175q43 25 68 70.5t25 104.5t-25 104.5t-68 70.5t-96 25t-96 -25t-68 -70.5t-25 -104.5t25 -104.5t68 -70.5t96 -25
t96 25z" />
    <glyph glyph-name="uni041F" unicode="&#x41f;" horiz-adv-x="807" 
d="M732 700v-700h-196v543h-266v-543h-195v700h657z" />
    <glyph glyph-name="uni0420" unicode="&#x420;" horiz-adv-x="730" 
d="M560 668.5q70 -31.5 108 -90t38 -137.5t-38 -137t-108 -89.5t-165 -31.5h-122v-183h-198v700h320q95 0 165 -31.5zM475 365.5q31 26.5 31 75.5t-31 76t-92 27h-110v-205h110q61 0 92 26.5z" />
    <glyph glyph-name="uni0421" unicode="&#x421;" horiz-adv-x="731" 
d="M218.5 32.5q-87.5 46.5 -137.5 129.5t-50 188t50 188t137.5 129.5t197.5 46.5q96 0 173 -34t128 -98l-126 -114q-68 82 -165 82q-57 0 -101.5 -25t-69 -70.5t-24.5 -104.5t24.5 -104.5t69 -70.5t101.5 -25q97 0 165 82l126 -114q-51 -64 -128 -98t-173 -34
q-110 0 -197.5 46.5z" />
    <glyph glyph-name="uni0422" unicode="&#x422;" horiz-adv-x="655" 
d="M639 543h-214v-543h-195v543h-215v157h624v-157z" />
    <glyph glyph-name="uni0423" unicode="&#x423;" horiz-adv-x="743" 
d="M740 700l-290 -541q-46 -87 -112.5 -132t-145.5 -45q-58 0 -124 26l47 146q41 -12 70 -12t51.5 13t41.5 41l-272 504h209l163 -338l169 338h193z" />
    <glyph glyph-name="uni0424" unicode="&#x424;" horiz-adv-x="965" 
d="M843.5 134.5q-93.5 -80.5 -270.5 -90.5v-77h-181v77q-177 13 -270.5 92t-93.5 216t93 216.5t271 92.5v72h181v-72q177 -12 270.5 -91.5t93.5 -217.5q0 -137 -93.5 -217.5zM703.5 246q41.5 38 41.5 107t-42.5 106t-129.5 47v-308q89 10 130.5 48zM263 247q43 -37 129 -48
v307q-90 -10 -131 -47t-41 -107q0 -68 43 -105z" />
    <glyph glyph-name="uni0425" unicode="&#x425;" horiz-adv-x="755" 
d="M249 701l125 -190l124 190h230l-230 -335l250 -366h-233l-141 207l-140 -207h-228l249 357l-233 344h227z" />
    <glyph glyph-name="uni0426" unicode="&#x426;" horiz-adv-x="849" 
d="M830 157v-300h-181v143h-574v700h195v-543h269v543h195v-543h96z" />
    <glyph glyph-name="uni0427" unicode="&#x427;" horiz-adv-x="757" 
d="M682 700v-700h-195v238q-81 -27 -149 -27q-147 0 -224.5 70.5t-77.5 203.5v215h195v-193q0 -135 132 -135q72 0 124 24v304h195z" />
    <glyph glyph-name="uni0428" unicode="&#x428;" horiz-adv-x="1099" 
d="M1024 700v-700h-949v700h195v-543h183v543h195v-543h181v543h195z" />
    <glyph glyph-name="uni0429" unicode="&#x429;" horiz-adv-x="1135" 
d="M1024 700v-700h-949v700h195v-543h183v543h195v-543h181v543h195zM1115 157v-298h-182v141h-108v157h290z" />
    <glyph glyph-name="uni042A" unicode="&#x42a;" horiz-adv-x="855" 
d="M760.5 419.5q69.5 -57.5 69.5 -170.5q0 -121 -78 -185t-217 -64h-331v543h-189v157h384v-223h163q129 0 198.5 -57.5zM601.5 169q29.5 27 29.5 76q0 91 -109 91h-123v-194h123q50 0 79.5 27z" />
    <glyph glyph-name="uni042B" unicode="&#x42b;" horiz-adv-x="1049" 
d="M631 419.5q70 -57.5 70 -170.5q0 -121 -78 -185t-217 -64h-331v700h195v-223h162q129 0 199 -57.5zM472.5 169q29.5 27 29.5 76q0 91 -109 91h-123v-194h123q50 0 79.5 27zM778 700h195v-700h-195v700z" />
    <glyph glyph-name="uni042C" unicode="&#x42c;" horiz-adv-x="726" 
d="M631 419.5q70 -57.5 70 -170.5q0 -121 -78 -185t-217 -64h-331v700h195v-223h162q129 0 199 -57.5zM472.5 169q29.5 27 29.5 76q0 91 -109 91h-123v-194h123q50 0 79.5 27z" />
    <glyph glyph-name="uni042D" unicode="&#x42d;" horiz-adv-x="718" 
d="M507 667.5q84 -46.5 131.5 -129.5t47.5 -188t-47.5 -188t-131.5 -129.5t-190 -46.5q-97 0 -174.5 34t-128.5 98l125 114q70 -82 168 -82q63 0 107.5 34.5t61.5 95.5h-253v146h251q-17 58 -61 91t-106 33q-98 0 -168 -82l-125 114q51 64 128.5 98t174.5 34
q106 0 190 -46.5z" />
    <glyph glyph-name="uni042E" unicode="&#x42e;" horiz-adv-x="1123" 
d="M907 667q86 -47 135 -130t49 -187t-49 -187t-135 -130t-193 -47q-94 0 -172.5 36t-130 101t-68.5 149h-73v-272h-195v700h195v-262h75q19 82 71 144.5t129 97t169 34.5q107 0 193 -47zM804 175q40 25 63.5 70t23.5 105t-23.5 105t-63.5 70t-90 25t-90.5 -24.5t-64 -70
t-23.5 -105.5t23.5 -105.5t64 -70t90.5 -24.5t90 25z" />
    <glyph glyph-name="uni042F" unicode="&#x42f;" horiz-adv-x="736" 
d="M661 700v-700h-195v176h-108l-115 -176h-208l142 205q-70 31 -107 89.5t-37 139.5q0 82 38 142t109 92t166 32h315zM233 437q0 -53 29.5 -80.5t85.5 -27.5h118v215h-116q-117 0 -117 -107z" />
    <glyph glyph-name="uni0430" unicode="&#x430;" horiz-adv-x="612" 
d="M491 489.5q71 -61.5 71 -188.5v-301h-177v70q-41 -79 -160 -79q-63 0 -109 22t-69.5 59.5t-23.5 85.5q0 77 59 119.5t182 42.5h108q-5 86 -115 86q-39 0 -79 -12.5t-68 -34.5l-64 129q45 30 109.5 46.5t129.5 16.5q135 0 206 -61.5zM336 127q25 16 36 47v47h-82
q-83 0 -83 -55q0 -25 19 -40t52 -15t58 16z" />
    <glyph glyph-name="uni0431" unicode="&#x431;" horiz-adv-x="679" 
d="M536 463.5q58 -30.5 88.5 -87t30.5 -131.5q0 -77 -39.5 -135.5t-109 -91t-156.5 -32.5q-143 0 -228 89t-85 267q0 334 296 390l263 50l26 -159l-228 -43q-87 -16 -127.5 -51.5t-48.5 -102.5q73 68 181 68q79 0 137 -30.5zM431.5 163q29.5 33 29.5 82q0 52 -30 81.5
t-80 29.5q-51 0 -81.5 -30t-30.5 -82q0 -50 31 -82t81 -32q51 0 80.5 33z" />
    <glyph glyph-name="uni0432" unicode="&#x432;" horiz-adv-x="626" 
d="M594 156q0 -73 -57 -114.5t-168 -41.5h-305v542h291q106 0 164.5 -37t58.5 -104q0 -39 -20 -69t-57 -48q93 -31 93 -128zM234 324h104q66 0 66 49q0 47 -66 47h-104v-96zM421 173q0 50 -67 50h-120v-100h118q69 0 69 50z" />
    <glyph glyph-name="uni0433" unicode="&#x433;" horiz-adv-x="528" 
d="M518 391h-265v-391h-189v542h454v-151z" />
    <glyph glyph-name="uni0434" unicode="&#x434;" horiz-adv-x="723" 
d="M705 152v-264h-176v112h-341v-112h-177v264h20q49 1 68 53.5t23 147.5l7 189h501v-390h75zM282 222q-8 -44 -30 -70h188v239h-145l-2 -52q-3 -73 -11 -117z" />
    <glyph glyph-name="uni0435" unicode="&#x435;" horiz-adv-x="649" 
d="M610 223h-394q12 -42 46.5 -64.5t86.5 -22.5q39 0 67.5 11t57.5 36l100 -104q-79 -88 -231 -88q-95 0 -167 36t-111.5 100t-39.5 145q0 80 38.5 143.5t106.5 99.5t153 36q81 0 147 -33.5t104.5 -97t38.5 -150.5q0 -2 -3 -47zM250.5 391q-29.5 -25 -37.5 -68h222
q-8 43 -37.5 68t-73.5 25t-73.5 -25z" />
    <glyph glyph-name="uni0436" unicode="&#x436;" horiz-adv-x="950" 
d="M625 193h-56v-193h-187v193h-57l-98 -193h-225l163 280l-151 262h201l106 -200h61v200h187v-200h59l107 200h201l-152 -262l164 -280h-225z" />
    <glyph glyph-name="uni0437" unicode="&#x437;" horiz-adv-x="573" 
d="M518.5 235.5q25.5 -30.5 25.5 -72.5q0 -54 -37.5 -93.5t-102 -60t-144.5 -20.5q-138 0 -246 47l49 128q86 -36 191 -36q45 0 71.5 13t26.5 37q0 22 -16 32t-49 10h-117v111h100q67 0 67 41q0 43 -89 43q-77 0 -172 -36l-45 125q118 49 233 49t190 -40.5t75 -113.5
q0 -37 -22 -68t-61 -50q47 -15 72.5 -45.5z" />
    <glyph glyph-name="uni0438" unicode="&#x438;" horiz-adv-x="719" 
d="M64 542h189v-284l227 284h175v-542h-190v285l-225 -285h-176v542z" />
    <glyph glyph-name="uni0439" unicode="&#x439;" horiz-adv-x="719" 
d="M64 542h189v-284l227 284h175v-542h-190v285l-225 -285h-176v542zM205.5 634.5q-45.5 40.5 -46.5 124.5h123q1 -35 16 -52.5t48 -17.5t49.5 18t16.5 52h125q0 -84 -46.5 -124.5t-143.5 -40.5q-96 0 -141.5 40.5z" />
    <glyph glyph-name="uni043A" unicode="&#x43a;" horiz-adv-x="667" 
d="M318 193h-64v-193h-190v542h190v-200h68l133 200h201l-182 -260l194 -282h-224z" />
    <glyph glyph-name="uni043B" unicode="&#x43b;" horiz-adv-x="680" 
d="M616 542v-542h-190v391h-137l-4 -83q-4 -106 -21 -175t-56 -107.5t-107 -38.5q-35 0 -92 13l8 155q18 -2 24 -2q31 0 47 20t22 53.5t8 89.5l8 226h490z" />
    <glyph glyph-name="uni043C" unicode="&#x43c;" horiz-adv-x="825" 
d="M590 0v285l-139 -237h-81l-135 241v-289h-171v542h200l151 -283l166 283h179l1 -542h-171z" />
    <glyph glyph-name="uni043D" unicode="&#x43d;" horiz-adv-x="702" 
d="M64 542h189v-201h195v201h190v-542h-190v190h-195v-190h-189v542z" />
    <glyph glyph-name="uni043E" unicode="&#x43e;" horiz-adv-x="662" 
d="M174 27q-70 36 -109.5 100t-39.5 145q0 80 39.5 144t109 99.5t157.5 35.5t158 -35.5t109 -99t39 -144.5t-39 -145t-109 -100t-158 -36q-87 0 -157 36zM413 176.5q32 34.5 32 95.5q0 60 -32 94t-82 34t-82 -34t-32 -94q0 -61 32 -95.5t82 -34.5t82 34.5z" />
    <glyph glyph-name="uni043F" unicode="&#x43f;" horiz-adv-x="689" 
d="M624 542v-542h-189v391h-182v-391h-189v542h560z" />
    <glyph glyph-name="uni0440" unicode="&#x440;" horiz-adv-x="698" 
d="M539.5 516.5q60.5 -34.5 96 -98t35.5 -147.5t-35.5 -147.5t-96 -98t-134.5 -34.5q-95 0 -151 57v-242h-190v736h181v-54q53 63 160 63q74 0 134.5 -34.5zM447 176.5q32 34.5 32 94.5t-32 94.5t-82 34.5t-82 -34.5t-32 -94.5t32 -94.5t82 -34.5t82 34.5z" />
    <glyph glyph-name="uni0441" unicode="&#x441;" horiz-adv-x="605" 
d="M175 27q-71 36 -110.5 100t-39.5 145t39.5 144.5t110.5 99t161 35.5q92 0 159 -39.5t95 -109.5l-147 -75q-37 73 -108 73q-51 0 -84.5 -34t-33.5 -94q0 -61 33.5 -95.5t84.5 -34.5q71 0 108 73l147 -75q-28 -70 -95 -109.5t-159 -39.5q-90 0 -161 36z" />
    <glyph glyph-name="uni0442" unicode="&#x442;" horiz-adv-x="558" 
d="M548 391h-174v-391h-189v391h-175v151h538v-151z" />
    <glyph glyph-name="uni0443" unicode="&#x443;" horiz-adv-x="640" 
d="M642 542l-234 -564q-41 -100 -100 -140.5t-144 -40.5q-43 0 -86.5 13.5t-70.5 35.5l66 133q16 -15 38.5 -23.5t45.5 -8.5q27 0 44.5 11t29.5 35l-232 549h195l133 -331l134 331h181z" />
    <glyph glyph-name="uni0444" unicode="&#x444;" horiz-adv-x="874" 
d="M764 73.5q-85 -72.5 -243 -84.5v-183h-168v182q-159 13 -243.5 85.5t-84.5 199.5q0 126 83.5 196t244.5 82v191h168v-191q159 -13 243.5 -83t84.5 -195q0 -127 -85 -199.5zM240.5 172.5q34.5 -34.5 112.5 -44.5v284q-79 -10 -113 -43t-34 -96q0 -66 34.5 -100.5z
M634.5 172.5q34.5 34.5 34.5 100.5q0 63 -34.5 96t-113.5 42v-283q79 10 113.5 44.5z" />
    <glyph glyph-name="uni0445" unicode="&#x445;" horiz-adv-x="624" 
d="M407 0l-97 142l-104 -142h-206l206 271l-200 271h214l96 -137l100 137h201l-200 -264l207 -278h-217z" />
    <glyph glyph-name="uni0446" unicode="&#x446;" horiz-adv-x="712" 
d="M694 152v-265h-176v113h-454v542h189v-390h176v390h190v-390h75z" />
    <glyph glyph-name="uni0447" unicode="&#x447;" horiz-adv-x="647" 
d="M583 542v-542h-189v193q-60 -31 -138 -31q-114 0 -171 51t-57 161v168h190v-155q0 -45 20.5 -64.5t61.5 -19.5q52 0 94 22v217h189z" />
    <glyph glyph-name="uni0448" unicode="&#x448;" horiz-adv-x="987" 
d="M923 542v-542h-859v542h189v-390h147v390h189v-390h146v390h188z" />
    <glyph glyph-name="uni0449" unicode="&#x449;" horiz-adv-x="987" 
d="M923 542v-542h-859v542h189v-390h147v390h189v-390h146v390h188zM996 152v-256h-176v104h-89v152h265z" />
    <glyph glyph-name="uni044A" unicode="&#x44a;" horiz-adv-x="705" 
d="M631 326.5q57 -47.5 57 -133.5q0 -91 -65 -142t-181 -51h-281v391h-151v151h340v-168h117q107 0 164 -47.5zM478.5 148q16.5 17 16.5 49q0 61 -65 61h-80v-127h80q32 0 48.5 17z" />
    <glyph glyph-name="uni044B" unicode="&#x44b;" horiz-adv-x="889" 
d="M535 326q54 -47 54 -134q0 -91 -62.5 -142t-176.5 -50h-286v542h189v-168h121q107 -1 161 -48zM635 542h189v-542h-189v542zM403 195q0 32 -18 47t-54 16h-78v-127l78 -1q72 0 72 65z" />
    <glyph glyph-name="uni044C" unicode="&#x44c;" horiz-adv-x="621" 
d="M547 326q57 -47 57 -134q0 -90 -65.5 -141.5t-180.5 -50.5h-294v542h189v-168h129q108 -1 165 -48zM411 195q0 32 -18 47t-54 16h-86v-127l86 -1q72 0 72 65z" />
    <glyph glyph-name="uni044D" unicode="&#x44d;" horiz-adv-x="600" 
d="M425 518q71 -36 110.5 -100t39.5 -146t-39.5 -147t-110.5 -101t-161 -36q-82 0 -147 27.5t-108 78.5l109 100q58 -64 138 -64q48 0 82.5 21t50.5 59h-202v126h201q-16 36 -50.5 56.5t-81.5 20.5q-80 0 -138 -64l-109 99q43 51 108 78.5t147 27.5q90 0 161 -36z" />
    <glyph glyph-name="uni044E" unicode="&#x44e;" horiz-adv-x="918" 
d="M748.5 515.5q67.5 -35.5 105.5 -99t38 -144.5t-38 -145t-105.5 -100t-152.5 -36q-107 0 -184.5 56t-101.5 148h-57v-195h-189v542h189v-187h58q27 89 103 142.5t182 53.5q85 0 152.5 -35.5zM674 177q31 35 31 95t-31 94t-78 34t-78 -34t-31 -94t31 -95t78 -35t78 35z" />
    <glyph glyph-name="uni044F" unicode="&#x44f;" horiz-adv-x="638" 
d="M574 542v-542h-169v147h-86l-96 -147h-201l120 173q-54 24 -82.5 65.5t-28.5 99.5q0 97 72 150.5t198 53.5h273zM225 331q0 -32 19.5 -47t59.5 -15h101v123h-100q-80 0 -80 -61z" />
    <glyph glyph-name="uni0450" unicode="&#x450;" horiz-adv-x="649" 
d="M610 223h-394q12 -42 46.5 -64.5t86.5 -22.5q39 0 67.5 11t57.5 36l100 -104q-79 -88 -231 -88q-95 0 -167 36t-111.5 100t-39.5 145q0 80 38.5 143.5t106.5 99.5t153 36q81 0 147 -33.5t104.5 -97t38.5 -150.5q0 -2 -3 -47zM250.5 391q-29.5 -25 -37.5 -68h222
q-8 43 -37.5 68t-73.5 25t-73.5 -25zM93 759h190l134 -152h-136z" />
    <glyph glyph-name="uni0451" unicode="&#x451;" horiz-adv-x="649" 
d="M610 223h-394q12 -42 46.5 -64.5t86.5 -22.5q39 0 67.5 11t57.5 36l100 -104q-79 -88 -231 -88q-95 0 -167 36t-111.5 100t-39.5 145q0 80 38.5 143.5t106.5 99.5t153 36q81 0 147 -33.5t104.5 -97t38.5 -150.5q0 -2 -3 -47zM250.5 391q-29.5 -25 -37.5 -68h222
q-8 43 -37.5 68t-73.5 25t-73.5 -25zM156.5 627.5q-22.5 21.5 -22.5 56.5t22.5 57t56.5 22t56.5 -22t22.5 -57t-22.5 -56.5t-56.5 -21.5t-56.5 21.5zM368.5 627.5q-22.5 21.5 -22.5 56.5t22.5 57t56.5 22t56.5 -22t22.5 -57t-22.5 -56.5t-56.5 -21.5t-56.5 21.5z" />
    <glyph glyph-name="uni0452" unicode="&#x452;" horiz-adv-x="691" 
d="M578.5 490.5q61.5 -60.5 61.5 -180.5v-296q0 -100 -58 -158.5t-162 -58.5q-83 0 -132 28l48 135q26 -16 59 -16q26 0 40.5 17.5t14.5 53.5v264q0 111 -88 111q-49 0 -78.5 -32t-29.5 -96v-262h-190v587h-93v100h93v55h181v-55h221v-100h-221v-104q32 34 76 51t96 17
q100 0 161.5 -60.5z" />
    <glyph glyph-name="uni0453" unicode="&#x453;" horiz-adv-x="528" 
d="M518 391h-265v-391h-189v542h454v-151zM329 759h190l-188 -152h-136z" />
    <glyph glyph-name="uni0454" unicode="&#x454;" horiz-adv-x="601" 
d="M175 24q-71 36 -110.5 100t-39.5 146t39.5 147t110.5 101t161 36q82 0 147 -27.5t108 -78.5l-109 -100q-58 64 -138 64q-48 0 -82.5 -21t-50.5 -59h202v-126h-201q16 -36 50.5 -56.5t81.5 -20.5q80 0 138 64l109 -99q-43 -51 -108 -78.5t-147 -27.5q-90 0 -161 36z" />
    <glyph glyph-name="uni0455" unicode="&#x455;" horiz-adv-x="558" 
d="M132 6.5q-66 15.5 -106 40.5l57 130q37 -23 88 -36.5t101 -13.5q46 0 65.5 9.5t19.5 27.5t-23.5 25.5t-74.5 14.5q-65 8 -110.5 21t-78.5 48t-33 98q0 52 31 92.5t90.5 64t142.5 23.5q59 0 117 -12t97 -34l-57 -129q-72 40 -156 40q-45 0 -66 -10.5t-21 -27.5
q0 -19 23 -26.5t76 -15.5q67 -10 111 -23t76.5 -47.5t32.5 -96.5q0 -51 -31 -91.5t-91.5 -63.5t-145.5 -23q-68 0 -134 15.5z" />
    <glyph glyph-name="uni0456" unicode="&#x456;" horiz-adv-x="318" 
d="M64 542h190v-542h-190v542zM75 631q-32 29 -32 72t32 72t84 29t84 -27.5t32 -70.5q0 -45 -32 -74.5t-84 -29.5t-84 29z" />
    <glyph glyph-name="uni0457" unicode="&#x457;" horiz-adv-x="313" 
d="M61 542h190v-542h-190v542zM16 628q-21 22 -21 56t21 56t53 22q31 0 52 -22t21 -56q0 -35 -21 -56.5t-52 -21.5q-32 0 -53 22zM191 628q-21 22 -21 56t21 56t53 22q31 0 52 -22t21 -56q0 -35 -21 -56.5t-52 -21.5q-32 0 -53 22z" />
    <glyph glyph-name="uni0458" unicode="&#x458;" horiz-adv-x="319" 
d="M-98 -175l48 135q26 -16 59 -16q26 0 41 18t15 53v527h190v-528q0 -100 -58.5 -158.5t-162.5 -58.5q-83 0 -132 28zM76 631q-32 29 -32 72t32 72t84 29t84 -27.5t32 -70.5q0 -45 -32 -74.5t-84 -29.5t-84 29z" />
    <glyph glyph-name="uni0459" unicode="&#x459;" horiz-adv-x="983" 
d="M616 542v-542h-190v391h-137l-4 -83q-4 -106 -21 -175t-56 -107.5t-107 -38.5q-35 0 -92 13l8 155q18 -2 24 -2q31 0 47 20t22 53.5t8 89.5l8 226h490zM909 326q57 -47 57 -134q0 -90 -65.5 -141.5t-180.5 -50.5h-294v542h189v-168h129q108 -1 165 -48zM773 195
q0 32 -18 47t-54 16h-86v-127l86 -1q72 0 72 65z" />
    <glyph glyph-name="uni045A" unicode="&#x45a;" horiz-adv-x="983" 
d="M911.5 312q56.5 -44 56.5 -127q0 -86 -65 -135.5t-179 -49.5h-285v205h-186v-205h-189v542h189v-186h186v186h189v-186h121q106 0 162.5 -44zM757.5 142q16.5 15 16.5 40q0 50 -63 50h-83v-105h83q30 0 46.5 15z" />
    <glyph glyph-name="uni045B" unicode="&#x45b;" horiz-adv-x="691" 
d="M578.5 490.5q61.5 -60.5 61.5 -180.5v-310h-190v279q0 111 -88 111q-49 0 -78.5 -32t-29.5 -96v-262h-190v589h-115v96h115v57h190v-57h191v-96h-191v-97q31 29 73 44t90 15q100 0 161.5 -60.5z" />
    <glyph glyph-name="uni045C" unicode="&#x45c;" horiz-adv-x="667" 
d="M318 193h-64v-193h-190v542h190v-200h68l133 200h201l-182 -260l194 -282h-224zM378 759h190l-188 -152h-136z" />
    <glyph glyph-name="uni045D" unicode="&#x45d;" horiz-adv-x="719" 
d="M64 542h189v-284l227 284h175v-542h-190v285l-225 -285h-176v542zM121 759h190l134 -152h-136z" />
    <glyph glyph-name="uni045E" unicode="&#x45e;" horiz-adv-x="640" 
d="M642 542l-234 -564q-41 -100 -100 -140.5t-144 -40.5q-43 0 -86.5 13.5t-70.5 35.5l66 133q16 -15 38.5 -23.5t45.5 -8.5q27 0 44.5 11t29.5 35l-232 549h195l133 -331l134 331h181zM168.5 634.5q-45.5 40.5 -46.5 124.5h123q1 -35 16 -52.5t48 -17.5t49.5 18t16.5 52
h125q0 -84 -46.5 -124.5t-143.5 -40.5q-96 0 -141.5 40.5z" />
    <glyph glyph-name="uni045F" unicode="&#x45f;" horiz-adv-x="669" 
d="M605 0h-182v-113h-177v113h-182v542h189v-390h163v390h189v-542z" />
    <glyph glyph-name="uni0462" unicode="&#x462;" horiz-adv-x="839" 
d="M746.5 410.5q67.5 -58.5 67.5 -168.5q0 -114 -76 -178t-213 -64h-339v540h-171v116h171v86h195v-86h217v-116h-217v-71h171q127 0 194.5 -58.5zM589 166.5q26 24.5 26 70.5q0 90 -102 90h-132v-185h132q50 0 76 24.5z" />
    <glyph glyph-name="uni0463" unicode="&#x463;" horiz-adv-x="667" 
d="M592.5 326q57.5 -47 57.5 -133q0 -92 -65.5 -143t-181.5 -50h-293v471h-110v115h110v156h189v-156h188v-115h-188v-97h129q107 -1 164.5 -48zM437.5 146.5q18.5 16.5 18.5 48.5q0 61 -71 63h-86v-127l86 -1q34 0 52.5 16.5z" />
    <glyph glyph-name="uni046A" unicode="&#x46a;" horiz-adv-x="971" 
d="M962 0h-204l-27 96q-20 86 -52 123.5t-76 37.5h-29v-257h-178v257h-26q-46 0 -78 -36.5t-53 -124.5l-27 -96h-203l50 138q41 126 96 183t133 66l-180 195v118h755v-117l-183 -196q80 -7 136.5 -64.5t97.5 -184.5zM321 565l163 -177h2l165 177h-330z" />
    <glyph glyph-name="uni046B" unicode="&#x46b;" horiz-adv-x="811" 
d="M808 0h-185l-18 64q-15 68 -37.5 95.5t-57.5 27.5h-25v-187h-162v187h-22q-35 0 -58 -27.5t-38 -95.5l-18 -64h-184l37 102q35 101 78 147t104 54l-135 134v105h635v-105l-136 -134q63 -7 107 -53t78 -148zM280 426l124 -120l126 120h-250z" />
    <glyph glyph-name="uni0472" unicode="&#x472;" horiz-adv-x="839" 
d="M619.5 667q88.5 -47 138.5 -130t50 -187t-50 -187t-138.5 -130t-199.5 -47t-199.5 47t-139 130t-50.5 187t50.5 187t139 130t199.5 47t199.5 -47zM304.5 512q-49.5 -38 -66.5 -102h363q-17 64 -66.5 102t-114.5 38q-66 0 -115.5 -38zM534 187q49 37 66 101h-361
q17 -63 66 -100.5t115 -37.5q65 0 114 37z" />
    <glyph glyph-name="uni0473" unicode="&#x473;" horiz-adv-x="668" 
d="M493.5 515.5q70.5 -35.5 110 -99t39.5 -144.5t-39.5 -145t-110 -100t-159.5 -36t-160 36t-110.5 100t-39.5 145t39.5 144.5t110.5 99t160 35.5t159.5 -35.5zM257.5 395.5q-31.5 -23.5 -44.5 -65.5h242q-14 42 -45.5 65.5t-75.5 23.5q-45 0 -76.5 -23.5zM409 147
q31 23 45 65h-240q14 -42 45 -65t75 -23t75 23z" />
    <glyph glyph-name="uni0474" unicode="&#x474;" horiz-adv-x="811" 
d="M6 700h214l169 -435l102 294q27 80 76 118.5t125 38.5q44 0 105 -14l-19 -179q-30 7 -46 7q-32 0 -51.5 -20.5t-36.5 -68.5l-160 -441h-195z" />
    <glyph glyph-name="uni0475" unicode="&#x475;" horiz-adv-x="678" 
d="M468.5 529q40.5 29 103.5 29q46 0 98 -13l-18 -174q-30 7 -42 7q-21 0 -33.5 -13.5t-27.5 -50.5l-125 -314h-189l-236 542h207l125 -303l74 200q23 61 63.5 90z" />
    <glyph glyph-name="uni048A" unicode="&#x48a;" horiz-adv-x="865" 
d="M253.5 783q-49.5 41 -49.5 122h133q1 -35 18 -52t54 -17t55 17t19 52h133q0 -81 -50 -122t-157 -41q-106 0 -155.5 41zM848 157l-85 -298h-155l25 141h-83v410l-288 -410h-187v700h195v-411l289 411h186v-543h103z" />
    <glyph glyph-name="uni048B" unicode="&#x48b;" horiz-adv-x="750" 
d="M208 641.5q-54 43.5 -57 117.5h116q1 -30 24 -48t56 -18t56 18t24 48h116q-3 -74 -57 -117.5t-139 -43.5t-139 43.5zM737 152l-74 -256h-150l20 104h-68v285l-225 -285h-176v542h189v-284l227 284h175v-390h82z" />
    <glyph glyph-name="uni048C" unicode="&#x48c;" horiz-adv-x="760" 
d="M668.5 410.5q67.5 -58.5 67.5 -168.5q0 -114 -76.5 -178t-212.5 -64h-339v540h-90v116h90v86h195v-86h210v-116h-210v-71h171q127 0 194.5 -58.5zM510 166.5q26 24.5 26 70.5q0 90 -102 90h-131v-185h131q50 0 76 24.5z" />
    <glyph glyph-name="uni048D" unicode="&#x48d;" horiz-adv-x="661" 
d="M588.5 305q57.5 -44 57.5 -124q0 -87 -65 -134.5t-182 -46.5h-293v390h-93v108h93v44h189v-44h188v-108h-188v-41h129q107 0 164.5 -44zM453 183q0 30 -18.5 43.5t-53.5 13.5h-86v-118h86q72 0 72 61z" />
    <glyph glyph-name="uni048E" unicode="&#x48e;" horiz-adv-x="736" 
d="M676.5 304.5q-29.5 -55.5 -84.5 -89.5l65 -83l-67 -54l-80 102q-54 -14 -115 -14h-122v-166h-198v700h320q95 0 165 -32t108 -92t38 -143q0 -73 -29.5 -128.5zM398 322l-65 84l66 54l82 -104q25 26 25 77q0 111 -123 111h-110v-222h110h15z" />
    <glyph glyph-name="uni048F" unicode="&#x48f;" horiz-adv-x="704" 
d="M651 146.5q-24 -55.5 -66 -92.5l51 -67l-64 -49l-58 73q-48 -20 -103 -20q-103 0 -157 62v-247h-190v736h181v-60q53 69 166 69q73 0 133.5 -34.5t95.5 -98t35 -147.5q0 -69 -24 -124.5zM406 147l-55 69l68 53l53 -68q15 32 15 70q0 60 -33 94.5t-85 34.5t-85 -34.5
t-33 -94.5q0 -61 33 -95t85 -34q17 0 37 5z" />
    <glyph glyph-name="uni0490" unicode="&#x490;" horiz-adv-x="603" 
d="M75 700h331v143h182v-300h-318v-543h-195v700z" />
    <glyph glyph-name="uni0491" unicode="&#x491;" horiz-adv-x="522" 
d="M64 542h271v111h176v-262h-258v-391h-189v542z" />
    <glyph glyph-name="uni0492" unicode="&#x492;" horiz-adv-x="653" 
d="M315 543v-166h261v-116h-261v-261h-195v261h-102v116h102v323h513l-1 -157h-317z" />
    <glyph glyph-name="uni0493" unicode="&#x493;" horiz-adv-x="569" 
d="M290 391v-109h181v-107h-181v-175h-189v175h-82v107h82v260h454v-151h-265z" />
    <glyph glyph-name="uni0494" unicode="&#x494;" horiz-adv-x="708" 
d="M406 397q81 0 143.5 -31.5t97 -90.5t34.5 -140q0 -86 -37.5 -152.5t-104 -103t-149.5 -36.5q-38 0 -73 7l31 149q15 -3 30 -3q48 0 78 34t30 91q0 60 -32.5 93t-87.5 33q-44 0 -96 -23v-224h-195v700h533v-157h-338v-167q72 21 136 21z" />
    <glyph glyph-name="uni0495" unicode="&#x495;" horiz-adv-x="643" 
d="M366 302q78 0 138 -29.5t93 -84t33 -126.5q0 -76 -35.5 -136.5t-100.5 -94.5t-150 -34q-45 0 -91 10l39 151q20 -4 41 -4q50 0 76 27.5t26 71.5q0 51 -29 75t-76 24q-38 0 -77 -14v-138h-189v542h451v-151h-262v-104q60 15 113 15z" />
    <glyph glyph-name="uni0496" unicode="&#x496;" horiz-adv-x="1138" 
d="M735 268h-83v-268h-194v268h-83l-137 -268h-229l199 367l-187 333h208l140 -272h89v272h194v-272h85l143 272h207l-187 -333l199 -367h-228zM1120 157v-298h-182v141h-67v157h249z" />
    <glyph glyph-name="uni0497" unicode="&#x497;" horiz-adv-x="974" 
d="M625 193h-56v-193h-187v193h-57l-98 -193h-225l163 280l-151 262h201l106 -200h61v200h187v-200h59l107 200h201l-152 -262l164 -280h-225zM961 148v-253h-171v105h-67v148h238z" />
    <glyph glyph-name="uni0498" unicode="&#x498;" horiz-adv-x="664" 
d="M599 298q33 -44 33 -101q0 -65 -44 -113t-119 -73.5t-165 -25.5q-71 0 -144.5 17t-140.5 51l59 138q47 -24 100.5 -36.5t103.5 -12.5q66 0 108 21.5t42 60.5q0 31 -26 46t-70 15h-179v145h163q40 0 62 16t22 43q0 34 -34 52.5t-88 18.5q-44 0 -93 -12.5t-93 -35.5
l-58 150q112 54 246 54q86 0 159.5 -24.5t117 -70.5t43.5 -109q0 -49 -25.5 -87.5t-70.5 -60.5q58 -22 91 -66zM398 -141h-182v176h182v-176z" />
    <glyph glyph-name="uni0499" unicode="&#x499;" horiz-adv-x="573" 
d="M493 56.5q-51 -43.5 -136 -58.5v-102h-177v97q-91 11 -166 43l49 128q86 -36 191 -36q45 0 71.5 13t26.5 37q0 22 -16 32t-49 10h-117v111h100q67 0 67 41q0 43 -89 43q-77 0 -172 -36l-45 125q118 49 233 49t190 -40.5t75 -113.5q0 -37 -22 -68t-61 -50
q47 -15 72.5 -45.5t25.5 -72.5q0 -63 -51 -106.5z" />
    <glyph glyph-name="uni049A" unicode="&#x49a;" horiz-adv-x="783" 
d="M358 268h-90v-268h-197v700h197v-272h95l167 272h208l-219 -338l221 -362h-223zM766 157v-298h-182v141h-67v157h249z" />
    <glyph glyph-name="uni049B" unicode="&#x49b;" horiz-adv-x="667" 
d="M318 193h-64v-193h-190v542h190v-200h68l133 200h201l-182 -260l194 -282h-224zM682 148v-253h-171v105h-67v148h238z" />
    <glyph glyph-name="uni049C" unicode="&#x49c;" horiz-adv-x="796" 
d="M421 268h-21v-107h-89v107h-43v-268h-197v700h197v-272h43v109h89v-109h24l140 272h208l-188 -339l203 -361h-231z" />
    <glyph glyph-name="uni049D" unicode="&#x49d;" horiz-adv-x="682" 
d="M364 193h-11v-67h-77v67h-28v-193h-190v542h190v-200h29l1 77h75v-77h13l105 200h196l-148 -261l161 -281h-221z" />
    <glyph glyph-name="uni049E" unicode="&#x49e;" horiz-adv-x="773" 
d="M381 268h-90v-268h-197v540h-76v94h76v66h197v-66h121v-94h-121v-112h95l167 272h208l-219 -338l221 -362h-223z" />
    <glyph glyph-name="uni049F" unicode="&#x49f;" horiz-adv-x="665" 
d="M315 193h-63v-193h-190v587h-83v101h83v54h190v-55h123v-100h-123v-245h67l134 200h201l-182 -260l193 -282h-224z" />
    <glyph glyph-name="uni04A0" unicode="&#x4a0;" horiz-adv-x="881" 
d="M489 268h-90v-268h-197v543h-187v157h384v-272h95l167 272h207l-219 -338l222 -362h-224z" />
    <glyph glyph-name="uni04A1" unicode="&#x4a1;" horiz-adv-x="761" 
d="M411 193h-63v-193h-190v395h-148v147h338v-200h67l133 200h201l-182 -259l194 -283h-224z" />
    <glyph glyph-name="uni04A2" unicode="&#x4a2;" horiz-adv-x="856" 
d="M741 700v-700h-198v273h-270v-273h-198v700h198v-263h270v263h198zM834 157v-298h-182v141h-108v157h290z" />
    <glyph glyph-name="uni04A3" unicode="&#x4a3;" horiz-adv-x="732" 
d="M64 542h189v-201h195v201h190v-542h-190v190h-195v-190h-189v542zM713 152v-256h-176v104h-89v152h265z" />
    <glyph glyph-name="uni04A4" unicode="&#x4a4;" horiz-adv-x="1072" 
d="M741 700v-700h-198v273h-270v-273h-198v700h198v-263h270v263h198zM1056 543h-317v-543h-195v700h513z" />
    <glyph glyph-name="uni04A5" unicode="&#x4a5;" horiz-adv-x="912" 
d="M64 542h189v-201h195v201h190v-542h-190v190h-195v-190h-189v542zM902 391h-265v-391h-189v542h454v-151z" />
    <glyph glyph-name="uni04A6" unicode="&#x4a6;" horiz-adv-x="1168" 
d="M868 397q81 0 143.5 -31.5t97 -90.5t34.5 -140q0 -86 -37.5 -152.5t-104 -103t-149.5 -36.5q-38 0 -73 7l31 149q15 -3 30 -3q49 0 78.5 34t29.5 91q0 59 -31 91.5t-86 32.5q-45 0 -99 -22v-223h-196v543h-266v-543h-195v700h657v-324q72 21 136 21z" />
    <glyph glyph-name="uni04A7" unicode="&#x4a7;" horiz-adv-x="1007" 
d="M731 301q79 0 138.5 -29.5t92.5 -83.5t33 -126q0 -76 -36 -136.5t-101 -94.5t-150 -34q-45 0 -91 10l39 151q20 -4 41 -4q51 0 77 27.5t26 71.5q0 51 -29.5 75t-76.5 24q-36 0 -75 -13v-139h-189v391h-177v-391h-189v542h555v-255q56 14 112 14z" />
    <glyph glyph-name="uni04A8" unicode="&#x4a8;" horiz-adv-x="978" 
d="M795 -27q-99 0 -185 37q-80 -26 -162 -26q-113 0 -207 46.5t-150 136.5t-56 215q0 100 38 188t110 148l161 -75q-52 -53 -81 -124t-29 -145q0 -76 29.5 -132t80.5 -87.5t114 -36.5q-49 56 -76 128t-27 154q0 96 36 168t102.5 111t155.5 39q85 0 148 -35.5t97 -102
t34 -156.5q0 -96 -39 -177t-108 -140q22 -2 34 -2q51 0 108 17l13 -130q-70 -19 -141 -19zM559.5 529q-30.5 -44 -30.5 -124q0 -78 28.5 -140.5t79.5 -102.5q55 37 86 101t31 150q0 77 -28 118.5t-81 41.5q-55 0 -85.5 -44z" />
    <glyph glyph-name="uni04A9" unicode="&#x4a9;" horiz-adv-x="848" 
d="M689 -26q-87 0 -165 32q-68 -19 -140 -19q-106 0 -186 38t-124.5 109t-44.5 166q0 77 30.5 145t88.5 114l153 -71q-40 -42 -61.5 -91.5t-21.5 -102.5q0 -73 41 -119t115 -57q-65 84 -65 194q0 75 30.5 130.5t87.5 85.5t135 30q111 0 176.5 -60t65.5 -165
q0 -67 -27 -125.5t-76 -104.5q45 -1 98 11l8 -125q-58 -15 -118 -15zM496.5 393.5q-21.5 -26.5 -21.5 -77.5q0 -54 20 -96t57 -70q42 26 64 70t22 101q0 99 -79 99q-41 0 -62.5 -26.5z" />
    <glyph glyph-name="uni04AA" unicode="&#x4aa;" horiz-adv-x="731" 
d="M218.5 32.5q-87.5 46.5 -137.5 129.5t-50 188t50 188t137.5 129.5t197.5 46.5q96 0 173 -34t128 -98l-126 -114q-68 82 -165 82q-57 0 -101.5 -25t-69 -70.5t-24.5 -104.5t24.5 -104.5t69 -70.5t101.5 -25q97 0 165 82l126 -114q-51 -64 -128 -98t-173 -34
q-110 0 -197.5 46.5zM484 -141h-182v176h182v-176z" />
    <glyph glyph-name="uni04AB" unicode="&#x4ab;" horiz-adv-x="605" 
d="M175 27q-71 36 -110.5 100t-39.5 145t39.5 144.5t110.5 99t161 35.5q92 0 159 -39.5t95 -109.5l-147 -75q-37 73 -108 73q-51 0 -84.5 -34t-33.5 -94q0 -61 33.5 -95.5t84.5 -34.5q71 0 108 73l147 -75q-28 -70 -95 -109.5t-159 -39.5q-90 0 -161 36zM404 -104h-177v136
h177v-136z" />
    <glyph glyph-name="uni04AC" unicode="&#x4ac;" horiz-adv-x="655" 
d="M639 543h-214v-543h-195v543h-215v157h624v-157zM520 157v-298h-182v141h-108v157h290z" />
    <glyph glyph-name="uni04AD" unicode="&#x4ad;" horiz-adv-x="558" 
d="M374 391v-239h76v-256h-176v104h-89v391h-175v151h538v-151h-174z" />
    <glyph glyph-name="uni04AE" unicode="&#x4ae;" horiz-adv-x="738" 
d="M468 251v-251h-198v252l-268 448h210l165 -278l167 278h192z" />
    <glyph glyph-name="uni04AF" unicode="&#x4af;" horiz-adv-x="641" 
d="M414 0v-194h-190v193l-225 543h196l130 -331l137 331h180z" />
    <glyph glyph-name="uni04B0" unicode="&#x4b0;" horiz-adv-x="738" 
d="M468 251v-251h-198v252l-268 448h210l165 -278l167 278h192zM136.787 311h453.939v-99h-453.939v99z" />
    <glyph glyph-name="uni04B1" unicode="&#x4b1;" horiz-adv-x="641" 
d="M414 0v-194h-190v193l-225 543h196l130 -331l137 331h180zM68.2314 55h501.339v-99h-501.339v99z" />
    <glyph glyph-name="uni04B2" unicode="&#x4b2;" horiz-adv-x="780" 
d="M249 701l125 -190l124 190h230l-230 -335l250 -366h-233l-141 207l-140 -207h-228l249 357l-233 344h227zM764 157v-298h-182v141h-67v157h249z" />
    <glyph glyph-name="uni04B3" unicode="&#x4b3;" horiz-adv-x="624" 
d="M407 0l-97 142l-104 -142h-206l206 271l-200 271h214l96 -137l100 137h201l-200 -264l207 -278h-217zM649 148v-253h-171v105h-67v148h238z" />
    <glyph glyph-name="uni04B4" unicode="&#x4b4;" horiz-adv-x="1005" 
d="M986 157v-300h-181v143h-574v543h-215v157h573v-157h-163v-386h269v543h195v-543h96z" />
    <glyph glyph-name="uni04B5" unicode="&#x4b5;" horiz-adv-x="814" 
d="M795 152v-256h-176v104h-434v391h-175v151h464v-151h-100v-239h163v390h189v-390h69z" />
    <glyph glyph-name="uni04B6" unicode="&#x4b6;" horiz-adv-x="797" 
d="M682 700v-700h-195v238q-81 -27 -149 -27q-147 0 -224.5 70.5t-77.5 203.5v215h195v-193q0 -135 132 -135q72 0 124 24v304h195zM777 157v-298h-182v141h-108v157h290z" />
    <glyph glyph-name="uni04B7" unicode="&#x4b7;" horiz-adv-x="685" 
d="M583 542v-542h-189v193q-60 -31 -138 -31q-114 0 -171 51t-57 161v168h190v-155q0 -45 20.5 -64.5t61.5 -19.5q52 0 94 22v217h189zM659 152v-256h-176v104h-89v152h265z" />
    <glyph glyph-name="uni04B8" unicode="&#x4b8;" horiz-adv-x="757" 
d="M682 700v-700h-195v238q-43 -15 -84 -21v-113h-89v107q-136 6 -207 76t-71 198v215h195v-193q0 -108 83 -129v104h89v-108q44 4 84 22v304h195z" />
    <glyph glyph-name="uni04B9" unicode="&#x4b9;" horiz-adv-x="647" 
d="M583 542v-542h-189v193q-24 -13 -56 -21v-86h-78l1 76h-5q-114 0 -171 51t-57 161v168h190v-155q0 -64 44 -79l1 82h75v-84q32 6 56 19v217h189z" />
    <glyph glyph-name="uni04BA" unicode="&#x4ba;" horiz-adv-x="757" 
d="M643.5 418.5q77.5 -70.5 77.5 -203.5v-215h-195v193q0 135 -132 135q-71 0 -124 -24v-304h-195v700h195v-238q81 27 149 27q147 0 224.5 -70.5z" />
    <glyph glyph-name="uni04BB" unicode="&#x4bb;" horiz-adv-x="691" 
d="M579.5 491q61.5 -60 61.5 -181v-310h-190v279q0 111 -89 111q-49 0 -78.5 -32t-29.5 -96v-262h-190v742h190v-250q31 29 73 44t90 15q101 0 162.5 -60z" />
    <glyph glyph-name="uni04BC" unicode="&#x4bc;" horiz-adv-x="1033" 
d="M998 277h-533q20 -60 68.5 -94t109.5 -34q44 0 87.5 19.5t79.5 58.5l143 -117q-62 -61 -144 -92.5t-169 -31.5q-90 0 -171 34t-137 99.5t-72 157.5h-27q-99 0 -156.5 52t-57.5 138q0 58 26 120l159 -27q-24 -39 -24 -77q0 -32 20 -52t59 -20q14 95 69.5 163.5t136.5 104
t170 35.5q98 0 182.5 -42t136.5 -123.5t52 -193.5q0 -38 -8 -78zM525.5 515q-48.5 -38 -64.5 -104h340q-15 67 -61.5 104.5t-105.5 37.5q-60 0 -108.5 -38z" />
    <glyph glyph-name="uni04BD" unicode="&#x4bd;" horiz-adv-x="840" 
d="M815 223h-403q12 -41 47.5 -64t88.5 -23q40 0 69.5 11t58.5 36l102 -104q-80 -88 -236 -88q-87 0 -156 29.5t-112 82t-55 120.5h-21q-90 0 -137 36t-47 103q0 43 20 98l144 -25q-17 -32 -17 -58q0 -25 15 -39.5t43 -14.5q12 67 54 119t106 80.5t141 28.5
q83 0 151.5 -33.5t108 -97t39.5 -150.5q0 -17 -4 -47zM447 391q-30 -25 -38 -68h227q-8 43 -38.5 68t-75.5 25t-75 -25z" />
    <glyph glyph-name="uni04BE" unicode="&#x4be;" horiz-adv-x="1033" 
d="M998 277h-533q20 -60 68.5 -94t109.5 -34q44 0 87.5 19.5t79.5 58.5l143 -117q-62 -61 -144 -92.5t-169 -31.5q-90 0 -171 34t-137 99.5t-72 157.5h-27q-99 0 -156.5 52t-57.5 138q0 58 26 120l159 -27q-24 -39 -24 -77q0 -32 20 -52t59 -20q14 95 69.5 163.5t136.5 104
t170 35.5q98 0 182.5 -42t136.5 -123.5t52 -193.5q0 -38 -8 -78zM525.5 515q-48.5 -38 -64.5 -104h340q-15 67 -61.5 104.5t-105.5 37.5q-60 0 -108.5 -38zM735 -141h-182v176h182v-176z" />
    <glyph glyph-name="uni04BF" unicode="&#x4bf;" horiz-adv-x="840" 
d="M815 223h-403q12 -41 47.5 -64t88.5 -23q40 0 69.5 11t58.5 36l102 -104q-80 -88 -236 -88q-87 0 -156 29.5t-112 82t-55 120.5h-21q-90 0 -137 36t-47 103q0 43 20 98l144 -25q-17 -32 -17 -58q0 -25 15 -39.5t43 -14.5q12 67 54 119t106 80.5t141 28.5
q83 0 151.5 -33.5t108 -97t39.5 -150.5q0 -17 -4 -47zM447 391q-30 -25 -38 -68h227q-8 43 -38.5 68t-75.5 25t-75 -25zM610 -104h-177v136h177v-136z" />
    <glyph glyph-name="uni04C0" unicode="&#x4c0;" horiz-adv-x="348" 
d="M75 700h198v-700h-198v700z" />
    <glyph glyph-name="uni04C1" unicode="&#x4c1;" horiz-adv-x="1109" 
d="M735 268h-83v-268h-194v268h-83l-137 -268h-229l199 367l-187 333h208l140 -272h89v272h194v-272h85l143 272h207l-187 -333l199 -367h-228zM399.5 783q-49.5 41 -49.5 122h133q1 -35 18 -52t54 -17t55 17t19 52h133q0 -81 -50 -122t-157 -41q-106 0 -155.5 41z" />
    <glyph glyph-name="uni04C2" unicode="&#x4c2;" horiz-adv-x="950" 
d="M625 193h-56v-193h-187v193h-57l-98 -193h-225l163 280l-151 262h201l106 -200h61v200h187v-200h59l107 200h201l-152 -262l164 -280h-225zM334.5 634.5q-45.5 40.5 -46.5 124.5h123q1 -35 16 -52.5t48 -17.5t49.5 18t16.5 52h125q0 -84 -46.5 -124.5t-143.5 -40.5
q-96 0 -141.5 40.5z" />
    <glyph glyph-name="uni04C3" unicode="&#x4c3;" horiz-adv-x="761" 
d="M691 155.5q53 -84.5 53 -156.5q0 -97 -58.5 -151.5t-161.5 -54.5q-74 0 -139 30l45 137q29 -13 50 -13q22 0 34.5 15t12.5 43q0 44 -45 116t-112 147h-97v-268h-198v700h198v-272h94l167 272h207l-215 -335q112 -125 165 -209.5z" />
    <glyph glyph-name="uni04C4" unicode="&#x4c4;" horiz-adv-x="667" 
d="M481 294q89 -93 132 -165t43 -138q0 -92 -59 -143.5t-152 -51.5q-67 0 -136 29l47 133q30 -15 55 -15t39.5 15t14.5 42q0 66 -124 193h-87v-193h-190v542h190v-200h68l133 200h201z" />
    <glyph glyph-name="uni04C6" unicode="&#x4c6;" horiz-adv-x="710" 
d="M698 152l-74 -256h-150l20 104h-68v391h-137l-4 -83q-4 -106 -21 -175t-56 -107.5t-107 -38.5q-35 0 -92 13l8 155q18 -2 24 -2q31 0 47 20t22 53.5t8 89.5l8 226h490v-390h82z" />
    <glyph glyph-name="uni04C7" unicode="&#x4c7;" horiz-adv-x="813" 
d="M428 -40q29 -15 54 -15q27 0 44 16t17 46v260h-273v-267h-195v700h195v-276h273v276h195v-696q0 -68 -30 -115t-80 -70.5t-110 -23.5q-69 0 -137 31z" />
    <glyph glyph-name="uni04C8" unicode="&#x4c8;" horiz-adv-x="703" 
d="M348 -195.5q-35 7.5 -59 21.5l47 133q26 -16 57 -16q27 0 42 18t15 54v175h-197v-190h-189v542h189v-201h197v201h189v-530q0 -99 -57.5 -157t-160.5 -58q-38 0 -73 7.5z" />
    <glyph glyph-name="uni04C9" unicode="&#x4c9;" horiz-adv-x="861" 
d="M842 157l-85 -298h-155l25 141h-84v273h-270v-273h-198v700h198v-263h270v263h198v-543h101z" />
    <glyph glyph-name="uni04CA" unicode="&#x4ca;" horiz-adv-x="733" 
d="M720 152l-74 -256h-150l20 104h-68v190h-195v-190h-189v542h189v-201h195v201h190v-390h82z" />
    <glyph glyph-name="uni04CB" unicode="&#x4cb;" horiz-adv-x="752" 
d="M677 700v-700h-141v-141h-182v298h128v122q-77 -26 -147 -26q-147 0 -224.5 65.5t-77.5 190.5v191h195v-169q0 -58 33.5 -88t98.5 -30q68 0 122 23v264h195z" />
    <glyph glyph-name="uni04CC" unicode="&#x4cc;" horiz-adv-x="643" 
d="M579 542v-542h-105v-104h-177v247h92v83q-60 -31 -138 -31q-114 0 -170.5 51.5t-56.5 161.5v134h189v-122q0 -44 20.5 -63.5t62.5 -19.5q49 0 93 21v184h190z" />
    <glyph glyph-name="uni04CD" unicode="&#x4cd;" horiz-adv-x="1027" 
d="M1010 157l-85 -298h-155l25 141h-89l-1 371l-180 -302h-88l-180 294v-363h-182v700h163l246 -404l240 404h163l2 -543h121z" />
    <glyph glyph-name="uni04CE" unicode="&#x4ce;" horiz-adv-x="875" 
d="M862 152l-74 -256h-150l20 104h-68v285l-139 -237h-81l-135 241v-289h-171v542h200l151 -283l166 283h179l1 -390h101z" />
    <glyph glyph-name="uni04CF" unicode="&#x4cf;" horiz-adv-x="318" 
d="M64 742h190v-742h-190v742z" />
    <glyph glyph-name="uni04D0" unicode="&#x4d0;" horiz-adv-x="824" 
d="M558 136h-296l-55 -136h-202l309 700h195l310 -700h-206zM500 282l-90 224l-90 -224h180zM255.5 783q-49.5 41 -49.5 122h133q1 -35 18 -52t54 -17t55 17t19 52h133q0 -81 -50 -122t-157 -41q-106 0 -155.5 41z" />
    <glyph glyph-name="uni04D1" unicode="&#x4d1;" horiz-adv-x="612" 
d="M491 489.5q71 -61.5 71 -188.5v-301h-177v70q-41 -79 -160 -79q-63 0 -109 22t-69.5 59.5t-23.5 85.5q0 77 59 119.5t182 42.5h108q-5 86 -115 86q-39 0 -79 -12.5t-68 -34.5l-64 129q45 30 109.5 46.5t129.5 16.5q135 0 206 -61.5zM336 127q25 16 36 47v47h-82
q-83 0 -83 -55q0 -25 19 -40t52 -15t58 16zM164.5 634.5q-45.5 40.5 -46.5 124.5h123q1 -35 16 -52.5t48 -17.5t49.5 18t16.5 52h125q0 -84 -46.5 -124.5t-143.5 -40.5q-96 0 -141.5 40.5z" />
    <glyph glyph-name="uni04D2" unicode="&#x4d2;" horiz-adv-x="824" 
d="M558 136h-296l-55 -136h-202l309 700h195l310 -700h-206zM500 282l-90 224l-90 -224h180zM249.5 777.5q-22.5 21.5 -22.5 56.5t22.5 57t56.5 22t56.5 -22t22.5 -57t-22.5 -56.5t-56.5 -21.5t-56.5 21.5zM461.5 777.5q-22.5 21.5 -22.5 56.5t22.5 57t56.5 22t56.5 -22
t22.5 -57t-22.5 -56.5t-56.5 -21.5t-56.5 21.5z" />
    <glyph glyph-name="uni04D3" unicode="&#x4d3;" horiz-adv-x="612" 
d="M491 489.5q71 -61.5 71 -188.5v-301h-177v70q-41 -79 -160 -79q-63 0 -109 22t-69.5 59.5t-23.5 85.5q0 77 59 119.5t182 42.5h108q-5 86 -115 86q-39 0 -79 -12.5t-68 -34.5l-64 129q45 30 109.5 46.5t129.5 16.5q135 0 206 -61.5zM336 127q25 16 36 47v47h-82
q-83 0 -83 -55q0 -25 19 -40t52 -15t58 16zM143.5 627.5q-22.5 21.5 -22.5 56.5t22.5 57t56.5 22t56.5 -22t22.5 -57t-22.5 -56.5t-56.5 -21.5t-56.5 21.5zM355.5 627.5q-22.5 21.5 -22.5 56.5t22.5 57t56.5 22t56.5 -22t22.5 -57t-22.5 -56.5t-56.5 -21.5t-56.5 21.5z" />
    <glyph glyph-name="uni04D4" unicode="&#x4d4;" horiz-adv-x="1115" 
d="M1076 153v-153h-562v136h-238l-71 -136h-202l382 700h678v-153h-353v-118h311v-148h-311v-128h366zM514 282v265h-23l-138 -265h161z" />
    <glyph glyph-name="uni04D5" unicode="&#x4d5;" horiz-adv-x="993" 
d="M961 222h-394q11 -41 45.5 -63.5t85.5 -22.5q36 0 66 11.5t60 35.5l100 -104q-82 -88 -229 -88q-70 0 -130 21.5t-103 66.5q-64 -88 -204 -88q-110 0 -173 47.5t-63 125.5q0 74 59.5 116t181.5 42h108q-3 40 -31.5 62t-82.5 22q-41 0 -80.5 -12.5t-67.5 -34.5l-64 129
q46 30 109 46.5t129 16.5q131 0 198 -68q39 33 89 50.5t106 17.5q78 0 144 -33.5t105 -96.5t39 -147q0 -29 -3 -52zM601.5 391q-30.5 -25 -38.5 -69h219q-7 44 -37 69t-72 25q-41 0 -71.5 -25zM346.5 135q24.5 24 24.5 65v22h-82q-83 0 -83 -54q0 -27 19 -42t54 -15
q43 0 67.5 24z" />
    <glyph glyph-name="uni04D6" unicode="&#x4d6;" horiz-adv-x="675" 
d="M637 153v-153h-562v700h549v-153h-353v-118h311v-148h-311v-128h366zM193.5 783q-49.5 41 -49.5 122h133q1 -35 18 -52t54 -17t55 17t19 52h133q0 -81 -50 -122t-157 -41q-106 0 -155.5 41z" />
    <glyph glyph-name="uni04D7" unicode="&#x4d7;" horiz-adv-x="649" 
d="M610 223h-394q12 -42 46.5 -64.5t86.5 -22.5q39 0 67.5 11t57.5 36l100 -104q-79 -88 -231 -88q-95 0 -167 36t-111.5 100t-39.5 145q0 80 38.5 143.5t106.5 99.5t153 36q81 0 147 -33.5t104.5 -97t38.5 -150.5q0 -2 -3 -47zM250.5 391q-29.5 -25 -37.5 -68h222
q-8 43 -37.5 68t-73.5 25t-73.5 -25zM177.5 634.5q-45.5 40.5 -46.5 124.5h123q1 -35 16 -52.5t48 -17.5t49.5 18t16.5 52h125q0 -84 -46.5 -124.5t-143.5 -40.5q-96 0 -141.5 40.5z" />
    <glyph glyph-name="uni04D8" unicode="&#x4d8;" horiz-adv-x="819" 
d="M588.5 671.5q89.5 -42.5 144 -124.5t54.5 -196t-54 -196.5t-142.5 -125.5t-188.5 -43q-99 0 -185 42t-138 123.5t-52 193.5q0 41 8 76h541q-20 61 -70 95.5t-112 34.5q-46 0 -90 -19.5t-81 -58.5l-143 117q62 61 145.5 92.5t170.5 31.5q103 0 192.5 -42.5zM514.5 185.5
q49.5 38.5 66.5 106.5h-350q14 -68 61.5 -106.5t109.5 -38.5q63 0 112.5 38.5z" />
    <glyph glyph-name="uni04D9" unicode="&#x4d9;" horiz-adv-x="650" 
d="M474 515q72 -36 111.5 -100t39.5 -145q0 -80 -38.5 -143.5t-106.5 -99.5t-153 -36q-81 0 -147 33.5t-104.5 97t-38.5 150.5q0 2 3 47h394q-12 42 -46.5 64.5t-86.5 22.5q-39 0 -67.5 -11t-57.5 -36l-100 104q79 88 231 88q95 0 167 -36zM399.5 151q29.5 25 37.5 68h-222
q8 -43 37.5 -68t73.5 -25t73.5 25z" />
    <glyph glyph-name="uni04DA" unicode="&#x4da;" horiz-adv-x="819" 
d="M588.5 671.5q89.5 -42.5 144 -124.5t54.5 -196t-54 -196.5t-142.5 -125.5t-188.5 -43q-99 0 -185 42t-138 123.5t-52 193.5q0 41 8 76h541q-20 61 -70 95.5t-112 34.5q-46 0 -90 -19.5t-81 -58.5l-143 117q62 61 145.5 92.5t170.5 31.5q103 0 192.5 -42.5zM514.5 185.5
q49.5 38.5 66.5 106.5h-350q14 -68 61.5 -106.5t109.5 -38.5q63 0 112.5 38.5zM247.5 777.5q-22.5 21.5 -22.5 56.5t22.5 57t56.5 22t56.5 -22t22.5 -57t-22.5 -56.5t-56.5 -21.5t-56.5 21.5zM459.5 777.5q-22.5 21.5 -22.5 56.5t22.5 57t56.5 22t56.5 -22t22.5 -57
t-22.5 -56.5t-56.5 -21.5t-56.5 21.5z" />
    <glyph glyph-name="uni04DB" unicode="&#x4db;" horiz-adv-x="650" 
d="M474 515q72 -36 111.5 -100t39.5 -145q0 -80 -38.5 -143.5t-106.5 -99.5t-153 -36q-81 0 -147 33.5t-104.5 97t-38.5 150.5q0 2 3 47h394q-12 42 -46.5 64.5t-86.5 22.5q-39 0 -67.5 -11t-57.5 -36l-100 104q79 88 231 88q95 0 167 -36zM399.5 151q29.5 25 37.5 68h-222
q8 -43 37.5 -68t73.5 -25t73.5 25zM168.5 627.5q-22.5 21.5 -22.5 56.5t22.5 57t56.5 22t56.5 -22t22.5 -57t-22.5 -56.5t-56.5 -21.5t-56.5 21.5zM380.5 627.5q-22.5 21.5 -22.5 56.5t22.5 57t56.5 22t56.5 -22t22.5 -57t-22.5 -56.5t-56.5 -21.5t-56.5 21.5z" />
    <glyph glyph-name="uni04DC" unicode="&#x4dc;" horiz-adv-x="1109" 
d="M735 268h-83v-268h-194v268h-83l-137 -268h-229l199 367l-187 333h208l140 -272h89v272h194v-272h85l143 272h207l-187 -333l199 -367h-228zM393.5 777.5q-22.5 21.5 -22.5 56.5t22.5 57t56.5 22t56.5 -22t22.5 -57t-22.5 -56.5t-56.5 -21.5t-56.5 21.5zM605.5 777.5
q-22.5 21.5 -22.5 56.5t22.5 57t56.5 22t56.5 -22t22.5 -57t-22.5 -56.5t-56.5 -21.5t-56.5 21.5z" />
    <glyph glyph-name="uni04DD" unicode="&#x4dd;" horiz-adv-x="950" 
d="M625 193h-56v-193h-187v193h-57l-98 -193h-225l163 280l-151 262h201l106 -200h61v200h187v-200h59l107 200h201l-152 -262l164 -280h-225zM313.5 627.5q-22.5 21.5 -22.5 56.5t22.5 57t56.5 22t56.5 -22t22.5 -57t-22.5 -56.5t-56.5 -21.5t-56.5 21.5zM525.5 627.5
q-22.5 21.5 -22.5 56.5t22.5 57t56.5 22t56.5 -22t22.5 -57t-22.5 -56.5t-56.5 -21.5t-56.5 21.5z" />
    <glyph glyph-name="uni04DE" unicode="&#x4de;" horiz-adv-x="664" 
d="M599 298q33 -44 33 -101q0 -65 -44 -113t-119 -73.5t-165 -25.5q-71 0 -144.5 17t-140.5 51l59 138q47 -24 100.5 -36.5t103.5 -12.5q66 0 108 21.5t42 60.5q0 31 -26 46t-70 15h-179v145h163q40 0 62 16t22 43q0 34 -34 52.5t-88 18.5q-44 0 -93 -12.5t-93 -35.5
l-58 150q112 54 246 54q86 0 159.5 -24.5t117 -70.5t43.5 -109q0 -49 -25.5 -87.5t-70.5 -60.5q58 -22 91 -66zM163.5 777.5q-22.5 21.5 -22.5 56.5t22.5 57t56.5 22t56.5 -22t22.5 -57t-22.5 -56.5t-56.5 -21.5t-56.5 21.5zM375.5 777.5q-22.5 21.5 -22.5 56.5t22.5 57
t56.5 22t56.5 -22t22.5 -57t-22.5 -56.5t-56.5 -21.5t-56.5 21.5z" />
    <glyph glyph-name="uni04DF" unicode="&#x4df;" horiz-adv-x="573" 
d="M518.5 235.5q25.5 -30.5 25.5 -72.5q0 -54 -37.5 -93.5t-102 -60t-144.5 -20.5q-138 0 -246 47l49 128q86 -36 191 -36q45 0 71.5 13t26.5 37q0 22 -16 32t-49 10h-117v111h100q67 0 67 41q0 43 -89 43q-77 0 -172 -36l-45 125q118 49 233 49t190 -40.5t75 -113.5
q0 -37 -22 -68t-61 -50q47 -15 72.5 -45.5zM122.5 627.5q-22.5 21.5 -22.5 56.5t22.5 57t56.5 22t56.5 -22t22.5 -57t-22.5 -56.5t-56.5 -21.5t-56.5 21.5zM334.5 627.5q-22.5 21.5 -22.5 56.5t22.5 57t56.5 22t56.5 -22t22.5 -57t-22.5 -56.5t-56.5 -21.5t-56.5 21.5z" />
    <glyph glyph-name="uni04E0" unicode="&#x4e0;" horiz-adv-x="646" 
d="M566.5 350q49.5 -53 49.5 -130q0 -63 -34.5 -116.5t-105.5 -85.5t-176 -32q-78 0 -153 18t-126 51l65 148q44 -27 99 -42.5t108 -15.5q57 0 90 19.5t33 54.5q0 33 -29 50.5t-89 17.5h-84v125l133 135h-295v153h526v-124l-154 -156q93 -17 142.5 -70z" />
    <glyph glyph-name="uni04E1" unicode="&#x4e1;" horiz-adv-x="569" 
d="M503 174.5q47 -55.5 47 -136.5q0 -65 -33 -120t-100.5 -88t-167.5 -33q-74 0 -145 19t-122 54l66 149q41 -30 92 -46t102 -16q52 0 82 21.5t30 59.5q0 77 -107 77h-83v124l128 150h-279v153h501v-124l-146 -170q88 -18 135 -73.5z" />
    <glyph glyph-name="uni04E2" unicode="&#x4e2;" horiz-adv-x="820" 
d="M75 700h195v-411l289 411h186v-700h-195v410l-288 -410h-187v700zM213 884h394v-102h-394v102z" />
    <glyph glyph-name="uni04E3" unicode="&#x4e3;" horiz-adv-x="719" 
d="M64 542h189v-284l227 284h175v-542h-190v285l-225 -285h-176v542zM150 734h394v-102h-394v102z" />
    <glyph glyph-name="uni04E4" unicode="&#x4e4;" horiz-adv-x="820" 
d="M75 700h195v-411l289 411h186v-700h-195v410l-288 -410h-187v700zM247.5 777.5q-22.5 21.5 -22.5 56.5t22.5 57t56.5 22t56.5 -22t22.5 -57t-22.5 -56.5t-56.5 -21.5t-56.5 21.5zM459.5 777.5q-22.5 21.5 -22.5 56.5t22.5 57t56.5 22t56.5 -22t22.5 -57t-22.5 -56.5
t-56.5 -21.5t-56.5 21.5z" />
    <glyph glyph-name="uni04E5" unicode="&#x4e5;" horiz-adv-x="719" 
d="M64 542h189v-284l227 284h175v-542h-190v285l-225 -285h-176v542zM184.5 627.5q-22.5 21.5 -22.5 56.5t22.5 57t56.5 22t56.5 -22t22.5 -57t-22.5 -56.5t-56.5 -21.5t-56.5 21.5zM396.5 627.5q-22.5 21.5 -22.5 56.5t22.5 57t56.5 22t56.5 -22t22.5 -57t-22.5 -56.5
t-56.5 -21.5t-56.5 21.5z" />
    <glyph glyph-name="uni04E6" unicode="&#x4e6;" horiz-adv-x="839" 
d="M219.5 33q-88.5 47 -139 130t-50.5 187t50.5 187t139 130t199.5 47t199.5 -47t139 -130t50.5 -187t-50.5 -187t-139 -130t-199.5 -47t-199.5 47zM515 175q43 25 68 70.5t25 104.5t-25 104.5t-68 70.5t-96 25t-96 -25t-68 -70.5t-25 -104.5t25 -104.5t68 -70.5t96 -25
t96 25zM256.5 777.5q-22.5 21.5 -22.5 56.5t22.5 57t56.5 22t56.5 -22t22.5 -57t-22.5 -56.5t-56.5 -21.5t-56.5 21.5zM468.5 777.5q-22.5 21.5 -22.5 56.5t22.5 57t56.5 22t56.5 -22t22.5 -57t-22.5 -56.5t-56.5 -21.5t-56.5 21.5z" />
    <glyph glyph-name="uni04E7" unicode="&#x4e7;" horiz-adv-x="662" 
d="M174 27q-70 36 -109.5 100t-39.5 145q0 80 39.5 144t109 99.5t157.5 35.5t158 -35.5t109 -99t39 -144.5t-39 -145t-109 -100t-158 -36q-87 0 -157 36zM413 176.5q32 34.5 32 95.5q0 60 -32 94t-82 34t-82 -34t-32 -94q0 -61 32 -95.5t82 -34.5t82 34.5zM166.5 627.5
q-22.5 21.5 -22.5 56.5t22.5 57t56.5 22t56.5 -22t22.5 -57t-22.5 -56.5t-56.5 -21.5t-56.5 21.5zM378.5 627.5q-22.5 21.5 -22.5 56.5t22.5 57t56.5 22t56.5 -22t22.5 -57t-22.5 -56.5t-56.5 -21.5t-56.5 21.5z" />
    <glyph glyph-name="uni04E8" unicode="&#x4e8;" horiz-adv-x="839" 
d="M619.5 667q88.5 -47 138.5 -130t50 -187t-50 -187t-138.5 -130t-199.5 -47t-199.5 47t-139 130t-50.5 187t50.5 187t139 130t199.5 47t199.5 -47zM304.5 512q-49.5 -38 -66.5 -102h363q-17 64 -66.5 102t-114.5 38q-66 0 -115.5 -38zM534 187q49 37 66 101h-361
q17 -63 66 -100.5t115 -37.5q65 0 114 37z" />
    <glyph glyph-name="uni04E9" unicode="&#x4e9;" horiz-adv-x="668" 
d="M493.5 515.5q70.5 -35.5 110 -99t39.5 -144.5t-39.5 -145t-110 -100t-159.5 -36t-160 36t-110.5 100t-39.5 145t39.5 144.5t110.5 99t160 35.5t159.5 -35.5zM257.5 395.5q-31.5 -23.5 -44.5 -65.5h242q-14 42 -45.5 65.5t-75.5 23.5q-45 0 -76.5 -23.5zM409 147
q31 23 45 65h-240q14 -42 45 -65t75 -23t75 23z" />
    <glyph glyph-name="uni04EA" unicode="&#x4ea;" horiz-adv-x="839" 
d="M619.5 667q88.5 -47 138.5 -130t50 -187t-50 -187t-138.5 -130t-199.5 -47t-199.5 47t-139 130t-50.5 187t50.5 187t139 130t199.5 47t199.5 -47zM304.5 512q-49.5 -38 -66.5 -102h363q-17 64 -66.5 102t-114.5 38q-66 0 -115.5 -38zM534 187q49 37 66 101h-361
q17 -63 66 -100.5t115 -37.5q65 0 114 37zM257.5 777.5q-22.5 21.5 -22.5 56.5t22.5 57t56.5 22t56.5 -22t22.5 -57t-22.5 -56.5t-56.5 -21.5t-56.5 21.5zM469.5 777.5q-22.5 21.5 -22.5 56.5t22.5 57t56.5 22t56.5 -22t22.5 -57t-22.5 -56.5t-56.5 -21.5t-56.5 21.5z" />
    <glyph glyph-name="uni04EB" unicode="&#x4eb;" horiz-adv-x="668" 
d="M493.5 515.5q70.5 -35.5 110 -99t39.5 -144.5t-39.5 -145t-110 -100t-159.5 -36t-160 36t-110.5 100t-39.5 145t39.5 144.5t110.5 99t160 35.5t159.5 -35.5zM257.5 395.5q-31.5 -23.5 -44.5 -65.5h242q-14 42 -45.5 65.5t-75.5 23.5q-45 0 -76.5 -23.5zM409 147
q31 23 45 65h-240q14 -42 45 -65t75 -23t75 23zM171.5 627.5q-22.5 21.5 -22.5 56.5t22.5 57t56.5 22t56.5 -22t22.5 -57t-22.5 -56.5t-56.5 -21.5t-56.5 21.5zM383.5 627.5q-22.5 21.5 -22.5 56.5t22.5 57t56.5 22t56.5 -22t22.5 -57t-22.5 -56.5t-56.5 -21.5t-56.5 21.5z
" />
    <glyph glyph-name="uni04EC" unicode="&#x4ec;" horiz-adv-x="718" 
d="M507 667.5q84 -46.5 131.5 -129.5t47.5 -188t-47.5 -188t-131.5 -129.5t-190 -46.5q-97 0 -174.5 34t-128.5 98l125 114q70 -82 168 -82q63 0 107.5 34.5t61.5 95.5h-253v146h251q-17 58 -61 91t-106 33q-98 0 -168 -82l-125 114q51 64 128.5 98t174.5 34
q106 0 190 -46.5zM172.5 777.5q-22.5 21.5 -22.5 56.5t22.5 57t56.5 22t56.5 -22t22.5 -57t-22.5 -56.5t-56.5 -21.5t-56.5 21.5zM384.5 777.5q-22.5 21.5 -22.5 56.5t22.5 57t56.5 22t56.5 -22t22.5 -57t-22.5 -56.5t-56.5 -21.5t-56.5 21.5z" />
    <glyph glyph-name="uni04ED" unicode="&#x4ed;" horiz-adv-x="600" 
d="M425 518q71 -36 110.5 -100t39.5 -146t-39.5 -147t-110.5 -101t-161 -36q-82 0 -147 27.5t-108 78.5l109 100q58 -64 138 -64q48 0 82.5 21t50.5 59h-202v126h201q-16 36 -50.5 56.5t-81.5 20.5q-80 0 -138 -64l-109 99q43 51 108 78.5t147 27.5q90 0 161 -36z
M123.5 627.5q-22.5 21.5 -22.5 56.5t22.5 57t56.5 22t56.5 -22t22.5 -57t-22.5 -56.5t-56.5 -21.5t-56.5 21.5zM335.5 627.5q-22.5 21.5 -22.5 56.5t22.5 57t56.5 22t56.5 -22t22.5 -57t-22.5 -56.5t-56.5 -21.5t-56.5 21.5z" />
    <glyph glyph-name="uni04EE" unicode="&#x4ee;" horiz-adv-x="743" 
d="M740 700l-290 -541q-46 -87 -112.5 -132t-145.5 -45q-58 0 -124 26l47 146q41 -12 70 -12t51.5 13t41.5 41l-272 504h209l163 -338l169 338h193zM173 884h394v-102h-394v102z" />
    <glyph glyph-name="uni04EF" unicode="&#x4ef;" horiz-adv-x="640" 
d="M642 542l-234 -564q-41 -100 -100 -140.5t-144 -40.5q-43 0 -86.5 13.5t-70.5 35.5l66 133q16 -15 38.5 -23.5t45.5 -8.5q27 0 44.5 11t29.5 35l-232 549h195l133 -331l134 331h181zM113 734h394v-102h-394v102z" />
    <glyph glyph-name="uni04F0" unicode="&#x4f0;" horiz-adv-x="743" 
d="M740 700l-290 -541q-46 -87 -112.5 -132t-145.5 -45q-58 0 -124 26l47 146q41 -12 70 -12t51.5 13t41.5 41l-272 504h209l163 -338l169 338h193zM207.5 777.5q-22.5 21.5 -22.5 56.5t22.5 57t56.5 22t56.5 -22t22.5 -57t-22.5 -56.5t-56.5 -21.5t-56.5 21.5zM419.5 777.5
q-22.5 21.5 -22.5 56.5t22.5 57t56.5 22t56.5 -22t22.5 -57t-22.5 -56.5t-56.5 -21.5t-56.5 21.5z" />
    <glyph glyph-name="uni04F1" unicode="&#x4f1;" horiz-adv-x="640" 
d="M642 542l-234 -564q-41 -100 -100 -140.5t-144 -40.5q-43 0 -86.5 13.5t-70.5 35.5l66 133q16 -15 38.5 -23.5t45.5 -8.5q27 0 44.5 11t29.5 35l-232 549h195l133 -331l134 331h181zM147.5 627.5q-22.5 21.5 -22.5 56.5t22.5 57t56.5 22t56.5 -22t22.5 -57t-22.5 -56.5
t-56.5 -21.5t-56.5 21.5zM359.5 627.5q-22.5 21.5 -22.5 56.5t22.5 57t56.5 22t56.5 -22t22.5 -57t-22.5 -56.5t-56.5 -21.5t-56.5 21.5z" />
    <glyph glyph-name="uni04F2" unicode="&#x4f2;" horiz-adv-x="743" 
d="M740 700l-290 -541q-46 -87 -112.5 -132t-145.5 -45q-58 0 -124 26l47 146q41 -12 70 -12t51.5 13t41.5 41l-272 504h209l163 -338l169 338h193zM258 909h170l-101 -152h-132zM475 909h170l-100 -152h-132z" />
    <glyph glyph-name="uni04F3" unicode="&#x4f3;" horiz-adv-x="640" 
d="M642 542l-234 -564q-41 -100 -100 -140.5t-144 -40.5q-43 0 -86.5 13.5t-70.5 35.5l66 133q16 -15 38.5 -23.5t45.5 -8.5q27 0 44.5 11t29.5 35l-232 549h195l133 -331l134 331h181zM198 759h170l-101 -152h-132zM415 759h170l-100 -152h-132z" />
    <glyph glyph-name="uni04F4" unicode="&#x4f4;" horiz-adv-x="757" 
d="M682 700v-700h-195v238q-81 -27 -149 -27q-147 0 -224.5 70.5t-77.5 203.5v215h195v-193q0 -135 132 -135q72 0 124 24v304h195zM201.5 777.5q-22.5 21.5 -22.5 56.5t22.5 57t56.5 22t56.5 -22t22.5 -57t-22.5 -56.5t-56.5 -21.5t-56.5 21.5zM413.5 777.5
q-22.5 21.5 -22.5 56.5t22.5 57t56.5 22t56.5 -22t22.5 -57t-22.5 -56.5t-56.5 -21.5t-56.5 21.5z" />
    <glyph glyph-name="uni04F5" unicode="&#x4f5;" horiz-adv-x="647" 
d="M583 542v-542h-189v193q-60 -31 -138 -31q-114 0 -171 51t-57 161v168h190v-155q0 -45 20.5 -64.5t61.5 -19.5q52 0 94 22v217h189zM139.5 627.5q-22.5 21.5 -22.5 56.5t22.5 57t56.5 22t56.5 -22t22.5 -57t-22.5 -56.5t-56.5 -21.5t-56.5 21.5zM351.5 627.5
q-22.5 21.5 -22.5 56.5t22.5 57t56.5 22t56.5 -22t22.5 -57t-22.5 -56.5t-56.5 -21.5t-56.5 21.5z" />
    <glyph glyph-name="uni04F6" unicode="&#x4f6;" horiz-adv-x="602" 
d="M587 543h-317v-543h-195v700h513zM365 157v-298h-182v141h-108v157h290z" />
    <glyph glyph-name="uni04F7" unicode="&#x4f7;" horiz-adv-x="528" 
d="M518 391h-265v-391h-189v542h454v-151zM329 152v-256h-176v104h-89v152h265z" />
    <glyph glyph-name="uni04F8" unicode="&#x4f8;" horiz-adv-x="1049" 
d="M631 419.5q70 -57.5 70 -170.5q0 -121 -78 -185t-217 -64h-331v700h195v-223h162q129 0 199 -57.5zM472.5 169q29.5 27 29.5 76q0 91 -109 91h-123v-194h123q50 0 79.5 27zM778 700h195v-700h-195v700zM365.5 777.5q-22.5 21.5 -22.5 56.5t22.5 57t56.5 22t56.5 -22
t22.5 -57t-22.5 -56.5t-56.5 -21.5t-56.5 21.5zM577.5 777.5q-22.5 21.5 -22.5 56.5t22.5 57t56.5 22t56.5 -22t22.5 -57t-22.5 -56.5t-56.5 -21.5t-56.5 21.5z" />
    <glyph glyph-name="uni04F9" unicode="&#x4f9;" horiz-adv-x="889" 
d="M535 326q54 -47 54 -134q0 -91 -62.5 -142t-176.5 -50h-286v542h189v-168h121q107 -1 161 -48zM635 542h189v-542h-189v542zM403 195q0 32 -18 47t-54 16h-78v-127l78 -1q72 0 72 65zM284.5 627.5q-22.5 21.5 -22.5 56.5t22.5 57t56.5 22t56.5 -22t22.5 -57t-22.5 -56.5
t-56.5 -21.5t-56.5 21.5zM496.5 627.5q-22.5 21.5 -22.5 56.5t22.5 57t56.5 22t56.5 -22t22.5 -57t-22.5 -56.5t-56.5 -21.5t-56.5 21.5z" />
    <glyph glyph-name="uni04FA" unicode="&#x4fa;" horiz-adv-x="653" 
d="M315 543v-166h261v-115h-261v-144h76v-113q0 -67 -28.5 -114.5t-78 -71.5t-110.5 -24q-71 0 -140 31l43 122q29 -13 55 -13q30 0 48 16.5t21 48.5h-84v262h-102v115h102v323h515v-157h-317z" />
    <glyph glyph-name="uni04FB" unicode="&#x4fb;" horiz-adv-x="538" 
d="M293 391v-81h176v-107h-176v-86h76v-106q0 -100 -60 -157t-158 -57q-68 0 -132 29l42 120q30 -15 56 -15q28 0 44.5 17.5t18.5 51.5h-77v203h-87v107h87v232h417v-151h-227z" />
    <glyph glyph-name="uni04FC" unicode="&#x4fc;" horiz-adv-x="745" 
d="M492 368q123 -144 178 -228t55 -152q0 -62 -30 -106t-80.5 -67t-111.5 -23q-72 0 -137 31l45 135q27 -12 48 -12q23 0 36 13.5t13 38.5q0 34 -35.5 87.5t-99.5 128.5l-142 -214h-225l254 355l-245 345h224l140 -201l138 201h214z" />
    <glyph glyph-name="uni04FD" unicode="&#x4fd;" horiz-adv-x="626" 
d="M430 293q69 -79 106.5 -127.5t59.5 -95.5t22 -95q0 -56 -27.5 -96.5t-75 -61.5t-105.5 -21q-68 0 -138 29l47 134q32 -16 57 -16q23 0 37.5 13t14.5 34q0 27 -25.5 65.5t-77.5 97.5l-116 -153h-208l207 272l-201 270h215l97 -136l99 136h201z" />
    <glyph glyph-name="uni04FE" unicode="&#x4fe;" horiz-adv-x="759" 
d="M751 0h-234l-141 207l-139 -207h-228l211 303h-135v116h131l-191 282h227l124 -190l125 190h229l-194 -282h132v-116h-125z" />
    <glyph glyph-name="uni04FF" unicode="&#x4ff;" horiz-adv-x="633" 
d="M410 0l-96 141l-104 -141h-206l165 217h-99v106h101l-160 219h215l95 -137l100 137h200l-165 -219h110v-106h-98l160 -217h-218z" />
    <glyph glyph-name="uni0510" unicode="&#x510;" horiz-adv-x="664" 
d="M645 53q-67 -34 -140.5 -51t-144.5 -17q-90 0 -165 25.5t-119 73.5t-44 113q0 57 32.5 101t90.5 66q-44 22 -69.5 60.5t-25.5 87.5q0 63 43.5 109t116.5 70.5t160 24.5q134 0 246 -54l-59 -150q-44 23 -92.5 35.5t-92.5 12.5q-54 0 -88 -18.5t-34 -52.5q0 -27 22 -43
t61 -16h164v-145h-180q-44 0 -69.5 -15t-25.5 -46q0 -39 41.5 -60.5t107.5 -21.5q50 0 104 12.5t101 36.5z" />
    <glyph glyph-name="uni0511" unicode="&#x511;" horiz-adv-x="572" 
d="M558 36q-108 -47 -246 -47q-80 0 -144.5 20.5t-102 60t-37.5 93.5q0 42 25.5 72.5t72.5 45.5q-39 19 -61 50t-22 68q0 73 75 113.5t190 40.5t233 -49l-45 -125q-95 36 -172 36q-89 0 -89 -43q0 -41 67 -41h100v-111h-117q-33 0 -49 -10t-16 -32q0 -24 26.5 -37t71.5 -13
q105 0 191 36z" />
    <glyph glyph-name="uni0512" unicode="&#x512;" horiz-adv-x="803" 
d="M418 -40q29 -15 54 -15q27 0 44 16t17 46v536h-202l-3 -114q-5 -150 -24.5 -244t-67 -145.5t-133.5 -51.5q-39 0 -89 12l10 162q15 -3 28 -3q56 0 76.5 64t25.5 198l10 279h564v-696q0 -68 -30 -115t-80 -70.5t-110 -23.5q-69 0 -137 31z" />
    <glyph glyph-name="uni0513" unicode="&#x513;" horiz-adv-x="681" 
d="M617 542v-528q0 -100 -58 -158.5t-163 -58.5q-36 0 -71 7.5t-59 21.5l47 133q26 -16 56 -16q58 0 58 72v376h-138l-4 -83q-4 -106 -21 -175t-56 -107.5t-107 -38.5q-35 0 -92 13l8 155q18 -2 24 -2q31 0 47 20t22 53.5t8 89.5l8 226h491z" />
    <glyph glyph-name="uni051A" unicode="&#x51a;" horiz-adv-x="842" 
d="M844 -81q-35 -43 -85.5 -65.5t-110.5 -22.5q-58 0 -105 15t-94.5 49.5t-106.5 96.5q-91 15 -162 65t-110.5 126t-39.5 167q0 104 50.5 187t139 130t199.5 47t199.5 -47t139 -130t50.5 -187q0 -118 -64.5 -208.5t-173.5 -129.5q20 -22 39.5 -31t42.5 -9q59 0 106 49z
M255 245.5q25 -45.5 68 -70.5t96 -25t96 25t68 70.5t25 104.5t-25 104.5t-68 70.5t-96 25t-96 -25t-68 -70.5t-25 -104.5t25 -104.5z" />
    <glyph glyph-name="uni051B" unicode="&#x51b;" horiz-adv-x="698" 
d="M634 542v-736h-190v242q-55 -57 -151 -57q-74 0 -134.5 34.5t-96 98t-35.5 147.5t35.5 147.5t96 98t134.5 34.5q107 0 160 -63v54h181zM415 176.5q32 34.5 32 94.5t-32 94.5t-82 34.5t-82 -34.5t-32 -94.5t32 -94.5t82 -34.5t82 34.5z" />
    <glyph glyph-name="uni051C" unicode="&#x51c;" horiz-adv-x="1152" 
d="M1142 700l-226 -700h-208l-129 424l-135 -424h-208l-226 700h204l137 -438l141 438h183l135 -442l143 442h189z" />
    <glyph glyph-name="uni051D" unicode="&#x51d;" horiz-adv-x="989" 
d="M987 542l-195 -542h-196l-100 299l-102 -299h-197l-196 542h192l107 -317l114 317h173l108 -318l114 318h178z" />
    <glyph glyph-name="uni0524" unicode="&#x524;" horiz-adv-x="847" 
d="M732 700v-700h-196v543h-266v-543h-195v700h657zM826 157v-298h-182v141h-108v157h290z" />
    <glyph glyph-name="uni0525" unicode="&#x525;" horiz-adv-x="689" 
d="M624 542v-542h-189v391h-182v-391h-189v542h560zM700 152v-256h-176v104h-89v152h265z" />
    <glyph glyph-name="uni0526" unicode="&#x526;" horiz-adv-x="833" 
d="M643.5 418.5q77.5 -70.5 77.5 -203.5v-215h-195v193q0 135 -132 135q-71 0 -124 -24v-304h-195v700h195v-238q81 27 149 27q147 0 224.5 -70.5zM816 157v-298h-182v141h-108v157h290z" />
    <glyph glyph-name="uni0527" unicode="&#x527;" horiz-adv-x="736" 
d="M721 152v-256h-176v104h-95v278q0 110 -88 110q-49 0 -78.5 -31.5t-29.5 -95.5v-261h-190v742h190v-255q31 31 73.5 47.5t91.5 16.5q100 0 160.5 -60t60.5 -180v-159h81z" />
    <glyph glyph-name="uni0528" unicode="&#x528;" horiz-adv-x="812" 
d="M-40 -40q28 -15 54 -15q27 0 43.5 16t16.5 46v693h195v-276h273v276h195v-700h-195v267h-273v-263q0 -68 -30 -115t-79.5 -70.5t-109.5 -23.5q-69 0 -137 31z" />
    <glyph glyph-name="uni0529" unicode="&#x529;" horiz-adv-x="703" 
d="M639 542v-542h-190v194h-195v-182q0 -99 -57.5 -157t-160.5 -58q-39 0 -74 7.5t-59 21.5l47 133q27 -16 58 -16q26 0 41 18t15 54v527h190v-196h195v196h190z" />
    <glyph glyph-name="uni052E" unicode="&#x52e;" horiz-adv-x="843" 
d="M822 157v-298h-182v141h-107v543h-201l-4 -114q-5 -150 -24.5 -244t-66.5 -145.5t-133 -51.5q-40 0 -90 12l11 162q13 -3 27 -3q39 0 60 31t30 86.5t12 144.5l10 279h564v-543h94z" />
    <glyph glyph-name="uni052F" unicode="&#x52f;" horiz-adv-x="709" 
d="M616 542v-542h-190v391h-137l-4 -83q-4 -106 -21 -175t-56 -107.5t-107 -38.5q-35 0 -92 13l8 155q18 -2 24 -2q31 0 47 20t22 53.5t8 89.5l8 226h490zM691 152v-256h-176v104h-89v152h265z" />
    <glyph glyph-name="uni1E08" unicode="&#x1e08;" horiz-adv-x="738" 
d="M221.5 32.5q-87.5 46.5 -137.5 129.5t-50 188t50 188t137.5 129.5t197.5 46.5q96 0 173 -34t128 -98l-126 -114q-68 82 -165 82q-57 0 -101.5 -25t-69 -70.5t-24.5 -104.5t24.5 -104.5t69 -70.5t101.5 -25q97 0 165 82l126 -114q-51 -64 -128 -98t-173 -34
q-110 0 -197.5 46.5zM306.5 -230q-26.5 6 -43.5 15l26 75q30 -14 62 -14q50 0 50 28q0 25 -45 25h-37l26 110h99l-14 -60q44 -5 65 -27.5t21 -53.5q0 -48 -43 -76t-115 -28q-25 0 -51.5 6zM452 910h190l-188 -152h-136z" />
    <glyph glyph-name="uni1E09" unicode="&#x1e09;" horiz-adv-x="603" 
d="M177 27q-71 36 -110.5 100t-39.5 145t39.5 144.5t110.5 99t161 35.5q92 0 159 -39.5t95 -109.5l-147 -75q-37 73 -108 73q-51 0 -84.5 -34t-33.5 -94q0 -61 33.5 -95.5t84.5 -34.5q71 0 108 73l147 -75q-28 -70 -95 -109.5t-159 -39.5q-90 0 -161 36zM223.5 -230
q-26.5 6 -43.5 15l26 75q30 -14 62 -14q50 0 50 28q0 25 -45 25h-37l26 110h99l-14 -60q44 -5 65 -27.5t21 -53.5q0 -48 -43 -76t-115 -28q-25 0 -51.5 6zM354 759h190l-188 -152h-136z" />
    <glyph glyph-name="uni1E0C" unicode="&#x1e0c;" horiz-adv-x="826" 
d="M70 700h331q115 0 204 -43t138 -122t49 -185t-49 -185t-138 -122t-204 -43h-331v700zM393 158q90 0 144.5 51t54.5 141t-54.5 141t-144.5 51h-125v-384h125zM310.5 -197q-22.5 21 -22.5 56t22.5 57t56.5 22t56.5 -22t22.5 -57t-22.5 -56t-56.5 -21t-56.5 21z" />
    <glyph glyph-name="uni1E0D" unicode="&#x1e0d;" horiz-adv-x="698" 
d="M637 742v-742h-181v54q-53 -63 -159 -63q-74 0 -135 34.5t-96.5 98.5t-35.5 148t35.5 147.5t96.5 97.5t135 34q97 0 150 -56v247h190zM418 176.5q32 34.5 32 95.5q0 60 -31.5 94t-81.5 34t-82 -34t-32 -94q0 -61 32 -95.5t82 -34.5q49 0 81 34.5zM315.5 -197
q-22.5 21 -22.5 56t22.5 57t56.5 22t56.5 -22t22.5 -57t-22.5 -56t-56.5 -21t-56.5 21z" />
    <glyph glyph-name="uni1E0E" unicode="&#x1e0e;" horiz-adv-x="826" 
d="M70 700h331q115 0 204 -43t138 -122t49 -185t-49 -185t-138 -122t-204 -43h-331v700zM393 158q90 0 144.5 51t54.5 141t-54.5 141t-144.5 51h-125v-384h125zM170 -85h394v-102h-394v102z" />
    <glyph glyph-name="uni1E0F" unicode="&#x1e0f;" horiz-adv-x="698" 
d="M637 742v-742h-181v54q-53 -63 -159 -63q-74 0 -135 34.5t-96.5 98.5t-35.5 148t35.5 147.5t96.5 97.5t135 34q97 0 150 -56v247h190zM418 176.5q32 34.5 32 95.5q0 60 -31.5 94t-81.5 34t-82 -34t-32 -94q0 -61 32 -95.5t82 -34.5q49 0 81 34.5zM175 -85h394v-102h-394
v102z" />
    <glyph glyph-name="uni1E14" unicode="&#x1e14;" horiz-adv-x="672" 
d="M632 153v-153h-562v700h549v-153h-353v-118h311v-148h-311v-128h366zM148 867h394v-98h-394v98zM148 1054h186l106 -125h-130z" />
    <glyph glyph-name="uni1E15" unicode="&#x1e15;" horiz-adv-x="642" 
d="M612 223h-394q12 -42 46.5 -64.5t86.5 -22.5q39 0 67.5 11t57.5 36l100 -104q-79 -88 -231 -88q-95 0 -167 36t-111.5 100t-39.5 145q0 80 38.5 143.5t106.5 99.5t153 36q81 0 147 -33.5t104.5 -97t38.5 -150.5q0 -2 -3 -47zM252.5 391q-29.5 -25 -37.5 -68h222
q-8 43 -37.5 68t-73.5 25t-73.5 -25zM124 717h394v-98h-394v98zM124 904h186l106 -125h-130z" />
    <glyph glyph-name="uni1E16" unicode="&#x1e16;" horiz-adv-x="672" 
d="M632 153v-153h-562v700h549v-153h-353v-118h311v-148h-311v-128h366zM148 867h394v-98h-394v98zM356 1054h186l-161 -125h-131z" />
    <glyph glyph-name="uni1E17" unicode="&#x1e17;" horiz-adv-x="642" 
d="M612 223h-394q12 -42 46.5 -64.5t86.5 -22.5q39 0 67.5 11t57.5 36l100 -104q-79 -88 -231 -88q-95 0 -167 36t-111.5 100t-39.5 145q0 80 38.5 143.5t106.5 99.5t153 36q81 0 147 -33.5t104.5 -97t38.5 -150.5q0 -2 -3 -47zM252.5 391q-29.5 -25 -37.5 -68h222
q-8 43 -37.5 68t-73.5 25t-73.5 -25zM124 717h394v-98h-394v98zM332 904h186l-161 -125h-131z" />
    <glyph glyph-name="uni1E1C" unicode="&#x1e1c;" horiz-adv-x="672" 
d="M632 153v-153h-562v700h549v-153h-353v-118h311v-148h-311v-128h366zM259.5 -230q-26.5 6 -43.5 15l26 75q30 -14 62 -14q50 0 50 28q0 25 -45 25h-37l26 110h99l-14 -60q44 -5 65 -27.5t21 -53.5q0 -48 -43 -76t-115 -28q-25 0 -51.5 6zM206 791.5q-54 43.5 -57 117.5
h116q1 -30 24 -48t56 -18t56 18t24 48h116q-3 -74 -57 -117.5t-139 -43.5t-139 43.5z" />
    <glyph glyph-name="uni1E1D" unicode="&#x1e1d;" horiz-adv-x="642" 
d="M612 223h-394q12 -42 46.5 -64.5t86.5 -22.5q39 0 67.5 11t57.5 36l100 -104q-79 -88 -231 -88q-95 0 -167 36t-111.5 100t-39.5 145q0 80 38.5 143.5t106.5 99.5t153 36q81 0 147 -33.5t104.5 -97t38.5 -150.5q0 -2 -3 -47zM252.5 391q-29.5 -25 -37.5 -68h222
q-8 43 -37.5 68t-73.5 25t-73.5 -25zM232.5 -230q-26.5 6 -43.5 15l26 75q30 -14 62 -14q50 0 50 28q0 25 -45 25h-37l26 110h99l-14 -60q44 -5 65 -27.5t21 -53.5q0 -48 -43 -76t-115 -28q-25 0 -51.5 6zM182 641.5q-54 43.5 -57 117.5h116q1 -30 24 -48t56 -18t56 18
t24 48h116q-3 -74 -57 -117.5t-139 -43.5t-139 43.5z" />
    <glyph glyph-name="uni1E20" unicode="&#x1e20;" horiz-adv-x="770" 
d="M539 365h175v-290q-60 -43 -138 -66t-156 -23q-110 0 -198 46.5t-138 129.5t-50 188t50 188t139 129.5t201 46.5q98 0 176 -33t130 -95l-126 -114q-71 78 -170 78q-90 0 -145 -54.5t-55 -145.5q0 -58 25 -103.5t70 -71t103 -25.5q57 0 107 23v192zM223 885h394v-102h-394
v102z" />
    <glyph glyph-name="uni1E21" unicode="&#x1e21;" horiz-adv-x="705" 
d="M644 542v-443q0 -151 -82 -226.5t-236 -75.5q-80 0 -150 18t-119 53l69 133q33 -27 83.5 -42.5t99.5 -15.5q75 0 110 33t35 98v18q-55 -64 -161 -64q-72 0 -133 32.5t-97 92t-36 137.5q0 77 36 136.5t97 92t133 32.5q116 0 170 -75v66h181zM422.5 210q33.5 31 33.5 80
t-33 79.5t-85 30.5t-85.5 -30.5t-33.5 -79.5t34 -80t85 -31t84.5 31zM151 734h394v-102h-394v102z" />
    <glyph glyph-name="uni1E24" unicode="&#x1e24;" horiz-adv-x="806" 
d="M736 700v-700h-198v273h-270v-273h-198v700h198v-263h270v263h198zM346.5 -197q-22.5 21 -22.5 56t22.5 57t56.5 22t56.5 -22t22.5 -57t-22.5 -56t-56.5 -21t-56.5 21z" />
    <glyph glyph-name="uni1E25" unicode="&#x1e25;" horiz-adv-x="696" 
d="M576.5 491q61.5 -60 61.5 -181v-310h-190v279q0 111 -89 111q-49 0 -78.5 -32t-29.5 -96v-262h-190v742h190v-250q31 29 73 44t90 15q101 0 162.5 -60zM295.5 -197q-22.5 21 -22.5 56t22.5 57t56.5 22t56.5 -22t22.5 -57t-22.5 -56t-56.5 -21t-56.5 21z" />
    <glyph glyph-name="uni1E2A" unicode="&#x1e2a;" horiz-adv-x="806" 
d="M736 700v-700h-198v273h-270v-273h-198v700h198v-263h270v263h198zM265 -179.5q-54 41.5 -58 108.5h109q2 -28 26 -45t61 -17t61 17t26 45h109q-4 -67 -58 -108.5t-138 -41.5t-138 41.5z" />
    <glyph glyph-name="uni1E2B" unicode="&#x1e2b;" horiz-adv-x="696" 
d="M576.5 491q61.5 -60 61.5 -181v-310h-190v279q0 111 -89 111q-49 0 -78.5 -32t-29.5 -96v-262h-190v742h190v-250q31 29 73 44t90 15q101 0 162.5 -60zM214 -179.5q-54 41.5 -58 108.5h109q2 -28 26 -45t61 -17t61 17t26 45h109q-4 -67 -58 -108.5t-138 -41.5t-138 41.5z
" />
    <glyph glyph-name="uni1E2E" unicode="&#x1e2e;" horiz-adv-x="339" 
d="M70 700h198v-700h-198v700zM13.5 775.5q-21.5 20.5 -21.5 53.5t21.5 54t53.5 21q33 0 54.5 -21t21.5 -54t-21.5 -53.5t-54.5 -20.5q-32 0 -53.5 20.5zM217.5 775.5q-21.5 20.5 -21.5 53.5t21.5 54t53.5 21t53.5 -21t21.5 -54t-21.5 -53.5t-53.5 -20.5t-53.5 20.5z
M180 1053h186l-161 -125h-131z" />
    <glyph glyph-name="uni1E2F" unicode="&#x1e2f;" horiz-adv-x="313" 
d="M61 542h190v-542h-190v542zM0.5 626.5q-21.5 20.5 -21.5 53.5t21.5 54t53.5 21q33 0 54.5 -21t21.5 -54t-21.5 -53.5t-54.5 -20.5q-32 0 -53.5 20.5zM204.5 626.5q-21.5 20.5 -21.5 53.5t21.5 54t53.5 21t53.5 -21t21.5 -54t-21.5 -53.5t-53.5 -20.5t-53.5 20.5zM167 904
h186l-161 -125h-131z" />
    </font>
</defs>
</svg>
